<svg width="62" height="88" viewBox="0 0 62 88" fill="none" xmlns="http://www.w3.org/2000/svg">
<rect width="62" height="88" fill="url(#paint0_linear)"/>
<path d="M2.97949 12.248C3.50814 12.248 3.84766 12.207 3.99805 12.125C4.15299 12.0384 4.25098 11.9495 4.29199 11.8584C4.33757 11.7673 4.36035 11.6533 4.36035 11.5166V5.61719C4.36035 5.28906 4.33073 5.07487 4.27148 4.97461C4.2168 4.87435 4.06185 4.82422 3.80664 4.82422H2.91113V4.07227C3.46257 4.07227 3.92969 3.92871 4.3125 3.6416C4.69531 3.35449 4.88672 3.06055 4.88672 2.75977L5.87109 2.74609L5.86426 11.5166C5.86426 11.8037 5.92578 11.9837 6.04883 12.0566C6.25391 12.1842 6.65039 12.248 7.23828 12.248V13H2.97949V12.248ZM12.7891 13.1367C11.627 13.1367 10.6699 12.6696 9.91797 11.7354C9.16602 10.7965 8.79004 9.48633 8.79004 7.80469C8.79004 6.12305 9.19336 4.81055 10 3.86719C10.7201 3.02865 11.6497 2.60938 12.7891 2.60938C13.9284 2.60938 14.8581 3.02865 15.5781 3.86719C16.3848 4.81055 16.7881 6.12305 16.7881 7.80469C16.7881 9.48633 16.4121 10.7965 15.6602 11.7354C14.9082 12.6696 13.9512 13.1367 12.7891 13.1367ZM12.7891 12.3164C13.3678 12.3164 13.8509 12.027 14.2383 11.4482C14.7259 10.7145 14.9697 9.55241 14.9697 7.96191C14.9697 6.36686 14.7669 5.21387 14.3613 4.50293C13.9557 3.78743 13.4316 3.42969 12.7891 3.42969C11.7819 3.42969 11.1143 4.21354 10.7861 5.78125C10.6676 6.33724 10.6084 6.96842 10.6084 7.6748C10.6084 8.37663 10.6403 8.95996 10.7041 9.4248C10.7679 9.88509 10.8545 10.2839 10.9639 10.6211C11.1553 11.2318 11.415 11.667 11.7432 11.9268C12.0758 12.1865 12.4245 12.3164 12.7891 12.3164Z" fill="black"/>
<path d="M44.9795 83.248C45.5081 83.248 45.8477 83.207 45.998 83.125C46.153 83.0384 46.251 82.9495 46.292 82.8584C46.3376 82.7673 46.3604 82.6533 46.3604 82.5166V76.6172C46.3604 76.2891 46.3307 76.0749 46.2715 75.9746C46.2168 75.8743 46.0618 75.8242 45.8066 75.8242H44.9111V75.0723C45.4626 75.0723 45.9297 74.9287 46.3125 74.6416C46.6953 74.3545 46.8867 74.0605 46.8867 73.7598L47.8711 73.7461L47.8643 82.5166C47.8643 82.8037 47.9258 82.9837 48.0488 83.0566C48.2539 83.1842 48.6504 83.248 49.2383 83.248V84H44.9795V83.248ZM54.7891 84.1367C53.627 84.1367 52.6699 83.6696 51.918 82.7354C51.166 81.7965 50.79 80.4863 50.79 78.8047C50.79 77.123 51.1934 75.8105 52 74.8672C52.7201 74.0286 53.6497 73.6094 54.7891 73.6094C55.9284 73.6094 56.8581 74.0286 57.5781 74.8672C58.3848 75.8105 58.7881 77.123 58.7881 78.8047C58.7881 80.4863 58.4121 81.7965 57.6602 82.7354C56.9082 83.6696 55.9512 84.1367 54.7891 84.1367ZM54.7891 83.3164C55.3678 83.3164 55.8509 83.027 56.2383 82.4482C56.7259 81.7145 56.9697 80.5524 56.9697 78.9619C56.9697 77.3669 56.7669 76.2139 56.3613 75.5029C55.9557 74.7874 55.4316 74.4297 54.7891 74.4297C53.7819 74.4297 53.1143 75.2135 52.7861 76.7812C52.6676 77.3372 52.6084 77.9684 52.6084 78.6748C52.6084 79.3766 52.6403 79.96 52.7041 80.4248C52.7679 80.8851 52.8545 81.2839 52.9639 81.6211C53.1553 82.2318 53.415 82.667 53.7432 82.9268C54.0758 83.1865 54.4245 83.3164 54.7891 83.3164Z" fill="black"/>
<path d="M38.418 56H23.6172L23.7578 55.3848C25.3398 55.0684 26.4766 54.752 27.168 54.4355C27.8711 54.1191 28.498 53.6094 29.0488 52.9062C29.6113 52.2031 30.0449 51.418 30.3496 50.5508C30.666 49.6719 30.8242 48.7871 30.8242 47.8965L30.7891 47.0703C30.1211 48.4766 29.2656 49.5254 28.2227 50.2168C27.1797 50.9082 26.1367 51.2539 25.0938 51.2539C24.1914 51.2539 23.3594 51.0312 22.5977 50.5859C21.8477 50.1406 21.2676 49.5488 20.8574 48.8105C20.4473 48.0723 20.2422 47.252 20.2422 46.3496C20.2422 45.002 20.6699 43.8652 21.5254 42.9395C22.3809 42.0137 23.3535 41.5449 24.4434 41.5332C25.1699 41.5332 26.1191 41.832 27.291 42.4297C26.8457 41.668 26.5234 41.0527 26.3242 40.584C26.1953 40.1504 26.1309 39.7109 26.1309 39.2656C26.1309 37.8477 26.6055 36.6992 27.5547 35.8203C28.5039 34.9414 29.6406 34.502 30.9648 34.502C32.3242 34.502 33.4727 34.9707 34.4102 35.9082C35.3477 36.8457 35.8164 37.9414 35.8164 39.1953C35.8164 40.2031 35.4121 41.2812 34.6035 42.4297C35.5879 41.9609 36.1738 41.709 36.3613 41.6738C36.6191 41.5801 36.9766 41.5332 37.4336 41.5332C38.6641 41.5332 39.6777 41.9902 40.4746 42.9043C41.3301 43.7949 41.7578 44.9199 41.7578 46.2793C41.7578 47.6387 41.3008 48.8047 40.3867 49.7773C39.4727 50.7383 38.3359 51.2188 36.9766 51.2188C36.3203 51.2188 35.6465 51.0781 34.9551 50.7969C34.2637 50.5039 33.6367 50.1172 33.0742 49.6367C32.5234 49.1562 31.8906 48.3008 31.1758 47.0703C31.2344 48.5469 31.4043 49.7363 31.6855 50.6387C31.9785 51.5293 32.4414 52.3262 33.0742 53.0293C33.7188 53.7324 34.4102 54.2422 35.1484 54.5586C35.8984 54.8633 36.9414 55.1387 38.2773 55.3848L38.418 56Z" fill="black"/>
<path d="M10 15.186C10.1058 15.5923 10.2603 15.9753 10.4634 16.335C10.6665 16.6904 11.0876 17.1623 11.7266 17.7505C12.3232 18.2837 12.6956 18.6899 12.8438 18.9692C12.9919 19.2485 13.0701 19.5384 13.0786 19.8389C13.0786 20.2451 12.9411 20.5837 12.666 20.8545C12.391 21.1253 12.0693 21.2607 11.7012 21.2607C11.0368 21.2607 10.4951 20.8566 10.0762 20.0483C10.0889 20.7212 10.1777 21.2332 10.3428 21.5845C10.512 21.9357 10.7681 22.2108 11.1108 22.4097C11.4578 22.6086 11.9106 22.7271 12.4692 22.7651L12.52 23H7.49268L7.53076 22.7651C8.0555 22.7651 8.49984 22.6636 8.86377 22.4604C9.2277 22.2531 9.50065 21.9674 9.68262 21.6035C9.86882 21.2396 9.96191 20.7508 9.96191 20.1372V20.0483C9.58105 20.8566 9.03092 21.2607 8.31152 21.2607C7.9349 21.2607 7.60905 21.1253 7.33398 20.8545C7.05892 20.5837 6.92139 20.2536 6.92139 19.8643C6.92139 19.4876 7.01449 19.1554 7.20068 18.8677C7.39111 18.5799 7.6958 18.2625 8.11475 17.9155C8.70296 17.4119 9.13672 16.9634 9.41602 16.5698C9.69531 16.1763 9.88997 15.715 10 15.186Z" fill="black"/>
<path d="M54.6787 72H49.334L49.3848 71.7778C49.9561 71.6636 50.3665 71.5493 50.6162 71.4351C50.8701 71.3208 51.0965 71.1367 51.2954 70.8828C51.4985 70.6289 51.6551 70.3454 51.7651 70.0322C51.8794 69.7148 51.9365 69.3953 51.9365 69.0737L51.9238 68.7754C51.6826 69.2832 51.3737 69.6619 50.9971 69.9116C50.6204 70.1613 50.2438 70.2861 49.8672 70.2861C49.5413 70.2861 49.2409 70.2057 48.9658 70.0449C48.695 69.8841 48.4855 69.6704 48.3374 69.4038C48.1893 69.1372 48.1152 68.841 48.1152 68.5151C48.1152 68.0285 48.2697 67.618 48.5786 67.2837C48.8875 66.9494 49.2388 66.7801 49.6323 66.7759C49.8947 66.7759 50.2375 66.8838 50.6606 67.0996C50.4998 66.8245 50.3835 66.6024 50.3115 66.4331C50.265 66.2765 50.2417 66.1178 50.2417 65.957C50.2417 65.445 50.4131 65.0303 50.7559 64.7129C51.0986 64.3955 51.5091 64.2368 51.9873 64.2368C52.4782 64.2368 52.8929 64.4061 53.2314 64.7446C53.57 65.0832 53.7393 65.4788 53.7393 65.9316C53.7393 66.2956 53.5933 66.6849 53.3013 67.0996C53.6567 66.9303 53.8683 66.8394 53.936 66.8267C54.0291 66.7928 54.1582 66.7759 54.3232 66.7759C54.7676 66.7759 55.1336 66.9409 55.4214 67.271C55.7303 67.5926 55.8848 67.9989 55.8848 68.4897C55.8848 68.9806 55.7197 69.4017 55.3896 69.7529C55.0596 70.0999 54.6491 70.2734 54.1582 70.2734C53.9212 70.2734 53.6779 70.2227 53.4282 70.1211C53.1785 70.0153 52.9521 69.8757 52.749 69.7021C52.5501 69.5286 52.3216 69.2197 52.0635 68.7754C52.0846 69.3086 52.146 69.7381 52.2476 70.064C52.3534 70.3856 52.5205 70.6733 52.749 70.9272C52.9818 71.1812 53.2314 71.3652 53.498 71.4795C53.7689 71.5895 54.1455 71.689 54.6279 71.7778L54.6787 72Z" fill="black"/>
<defs>
<linearGradient id="paint0_linear" x1="31" y1="0" x2="31" y2="88" gradientUnits="userSpaceOnUse">
<stop stop-color="white"/>
<stop offset="1" stop-color="#EEEEEE"/>
</linearGradient>
</defs>
</svg>
