<svg width="62" height="88" viewBox="0 0 62 88" fill="none" xmlns="http://www.w3.org/2000/svg">
<rect width="62" height="88" fill="url(#paint0_linear)"/>
<path d="M2.97949 13.248C3.50814 13.248 3.84766 13.207 3.99805 13.125C4.15299 13.0384 4.25098 12.9495 4.29199 12.8584C4.33757 12.7673 4.36035 12.6533 4.36035 12.5166V6.61719C4.36035 6.28906 4.33073 6.07487 4.27148 5.97461C4.2168 5.87435 4.06185 5.82422 3.80664 5.82422H2.91113V5.07227C3.46257 5.07227 3.92969 4.92871 4.3125 4.6416C4.69531 4.35449 4.88672 4.06055 4.88672 3.75977L5.87109 3.74609L5.86426 12.5166C5.86426 12.8037 5.92578 12.9837 6.04883 13.0566C6.25391 13.1842 6.65039 13.248 7.23828 13.248V14H2.97949V13.248ZM12.7891 14.1367C11.627 14.1367 10.6699 13.6696 9.91797 12.7354C9.16602 11.7965 8.79004 10.4863 8.79004 8.80469C8.79004 7.12305 9.19336 5.81055 10 4.86719C10.7201 4.02865 11.6497 3.60938 12.7891 3.60938C13.9284 3.60938 14.8581 4.02865 15.5781 4.86719C16.3848 5.81055 16.7881 7.12305 16.7881 8.80469C16.7881 10.4863 16.4121 11.7965 15.6602 12.7354C14.9082 13.6696 13.9512 14.1367 12.7891 14.1367ZM12.7891 13.3164C13.3678 13.3164 13.8509 13.027 14.2383 12.4482C14.7259 11.7145 14.9697 10.5524 14.9697 8.96191C14.9697 7.36686 14.7669 6.21387 14.3613 5.50293C13.9557 4.78743 13.4316 4.42969 12.7891 4.42969C11.7819 4.42969 11.1143 5.21354 10.7861 6.78125C10.6676 7.33724 10.6084 7.96842 10.6084 8.6748C10.6084 9.37663 10.6403 9.95996 10.7041 10.4248C10.7679 10.8851 10.8545 11.2839 10.9639 11.6211C11.1553 12.2318 11.415 12.667 11.7432 12.9268C12.0758 13.1865 12.4245 13.3164 12.7891 13.3164Z" fill="#C50000"/>
<path d="M44.9795 83.248C45.5081 83.248 45.8477 83.207 45.998 83.125C46.153 83.0384 46.251 82.9495 46.292 82.8584C46.3376 82.7673 46.3604 82.6533 46.3604 82.5166V76.6172C46.3604 76.2891 46.3307 76.0749 46.2715 75.9746C46.2168 75.8743 46.0618 75.8242 45.8066 75.8242H44.9111V75.0723C45.4626 75.0723 45.9297 74.9287 46.3125 74.6416C46.6953 74.3545 46.8867 74.0605 46.8867 73.7598L47.8711 73.7461L47.8643 82.5166C47.8643 82.8037 47.9258 82.9837 48.0488 83.0566C48.2539 83.1842 48.6504 83.248 49.2383 83.248V84H44.9795V83.248ZM54.7891 84.1367C53.627 84.1367 52.6699 83.6696 51.918 82.7354C51.166 81.7965 50.79 80.4863 50.79 78.8047C50.79 77.123 51.1934 75.8105 52 74.8672C52.7201 74.0286 53.6497 73.6094 54.7891 73.6094C55.9284 73.6094 56.8581 74.0286 57.5781 74.8672C58.3848 75.8105 58.7881 77.123 58.7881 78.8047C58.7881 80.4863 58.4121 81.7965 57.6602 82.7354C56.9082 83.6696 55.9512 84.1367 54.7891 84.1367ZM54.7891 83.3164C55.3678 83.3164 55.8509 83.027 56.2383 82.4482C56.7259 81.7145 56.9697 80.5524 56.9697 78.9619C56.9697 77.3669 56.7669 76.2139 56.3613 75.5029C55.9557 74.7874 55.4316 74.4297 54.7891 74.4297C53.7819 74.4297 53.1143 75.2135 52.7861 76.7812C52.6676 77.3372 52.6084 77.9684 52.6084 78.6748C52.6084 79.3766 52.6403 79.96 52.7041 80.4248C52.7679 80.8851 52.8545 81.2839 52.9639 81.6211C53.1553 82.2318 53.415 82.667 53.7432 82.9268C54.0758 83.1865 54.4245 83.3164 54.7891 83.3164Z" fill="#C50000"/>
<path d="M30.9297 34.502C31.7734 35.9668 32.9688 37.7598 34.5156 39.8809C36.0742 41.9902 37.5684 43.8477 38.998 45.4531C38.2012 46.2734 36.9062 47.8789 35.1133 50.2695C33.3203 52.6484 31.9375 54.7051 30.9648 56.4395C30.5312 55.6074 29.7695 54.4297 28.6797 52.9062C27.6016 51.3711 26.6289 50.0469 25.7617 48.9336C24.8945 47.8086 23.9629 46.6484 22.9668 45.4531C24.3262 43.8477 25.7617 42.0371 27.2734 40.0215C28.7969 37.9941 30.0156 36.1543 30.9297 34.502Z" fill="#C50000"/>
<path d="M9.97461 15.2368C10.2793 15.7658 10.7109 16.4132 11.2695 17.1792C11.8324 17.9409 12.3719 18.6117 12.8882 19.1914C12.6004 19.4876 12.1328 20.0674 11.4854 20.9307C10.8379 21.7897 10.3385 22.5324 9.9873 23.1587C9.83073 22.8582 9.55566 22.4329 9.16211 21.8828C8.77279 21.3285 8.42155 20.8503 8.1084 20.4482C7.79525 20.042 7.45882 19.623 7.09912 19.1914C7.59001 18.6117 8.1084 17.9578 8.6543 17.23C9.20443 16.4979 9.64453 15.8335 9.97461 15.2368Z" fill="#C50000"/>
<path d="M51.9746 64.2368C52.2793 64.7658 52.7109 65.4132 53.2695 66.1792C53.8324 66.9409 54.3719 67.6117 54.8882 68.1914C54.6004 68.4876 54.1328 69.0674 53.4854 69.9307C52.8379 70.7897 52.3385 71.5324 51.9873 72.1587C51.8307 71.8582 51.5557 71.4329 51.1621 70.8828C50.7728 70.3285 50.4215 69.8503 50.1084 69.4482C49.7952 69.042 49.4588 68.623 49.0991 68.1914C49.59 67.6117 50.1084 66.9578 50.6543 66.23C51.2044 65.4979 51.6445 64.8335 51.9746 64.2368Z" fill="#C50000"/>
<defs>
<linearGradient id="paint0_linear" x1="31" y1="0" x2="31" y2="88" gradientUnits="userSpaceOnUse">
<stop stop-color="white"/>
<stop offset="1" stop-color="#EEEEEE"/>
</linearGradient>
</defs>
</svg>
