<svg width="62" height="88" viewBox="0 0 62 88" fill="none" xmlns="http://www.w3.org/2000/svg">
<rect width="62" height="88" fill="url(#paint0_linear)"/>
<path d="M2.97949 13.248C3.50814 13.248 3.84766 13.207 3.99805 13.125C4.15299 13.0384 4.25098 12.9495 4.29199 12.8584C4.33757 12.7673 4.36035 12.6533 4.36035 12.5166V6.61719C4.36035 6.28906 4.33073 6.07487 4.27148 5.97461C4.2168 5.87435 4.06185 5.82422 3.80664 5.82422H2.91113V5.07227C3.46257 5.07227 3.92969 4.92871 4.3125 4.6416C4.69531 4.35449 4.88672 4.06055 4.88672 3.75977L5.87109 3.74609L5.86426 12.5166C5.86426 12.8037 5.92578 12.9837 6.04883 13.0566C6.25391 13.1842 6.65039 13.248 7.23828 13.248V14H2.97949V13.248ZM12.7891 14.1367C11.627 14.1367 10.6699 13.6696 9.91797 12.7354C9.16602 11.7965 8.79004 10.4863 8.79004 8.80469C8.79004 7.12305 9.19336 5.81055 10 4.86719C10.7201 4.02865 11.6497 3.60938 12.7891 3.60938C13.9284 3.60938 14.8581 4.02865 15.5781 4.86719C16.3848 5.81055 16.7881 7.12305 16.7881 8.80469C16.7881 10.4863 16.4121 11.7965 15.6602 12.7354C14.9082 13.6696 13.9512 14.1367 12.7891 14.1367ZM12.7891 13.3164C13.3678 13.3164 13.8509 13.027 14.2383 12.4482C14.7259 11.7145 14.9697 10.5524 14.9697 8.96191C14.9697 7.36686 14.7669 6.21387 14.3613 5.50293C13.9557 4.78743 13.4316 4.42969 12.7891 4.42969C11.7819 4.42969 11.1143 5.21354 10.7861 6.78125C10.6676 7.33724 10.6084 7.96842 10.6084 8.6748C10.6084 9.37663 10.6403 9.95996 10.7041 10.4248C10.7679 10.8851 10.8545 11.2839 10.9639 11.6211C11.1553 12.2318 11.415 12.667 11.7432 12.9268C12.0758 13.1865 12.4245 13.3164 12.7891 13.3164Z" fill="#C50000"/>
<path d="M44.9795 83.248C45.5081 83.248 45.8477 83.207 45.998 83.125C46.153 83.0384 46.251 82.9495 46.292 82.8584C46.3376 82.7673 46.3604 82.6533 46.3604 82.5166V76.6172C46.3604 76.2891 46.3307 76.0749 46.2715 75.9746C46.2168 75.8743 46.0618 75.8242 45.8066 75.8242H44.9111V75.0723C45.4626 75.0723 45.9297 74.9287 46.3125 74.6416C46.6953 74.3545 46.8867 74.0605 46.8867 73.7598L47.8711 73.7461L47.8643 82.5166C47.8643 82.8037 47.9258 82.9837 48.0488 83.0566C48.2539 83.1842 48.6504 83.248 49.2383 83.248V84H44.9795V83.248ZM54.7891 84.1367C53.627 84.1367 52.6699 83.6696 51.918 82.7354C51.166 81.7965 50.79 80.4863 50.79 78.8047C50.79 77.123 51.1934 75.8105 52 74.8672C52.7201 74.0286 53.6497 73.6094 54.7891 73.6094C55.9284 73.6094 56.8581 74.0286 57.5781 74.8672C58.3848 75.8105 58.7881 77.123 58.7881 78.8047C58.7881 80.4863 58.4121 81.7965 57.6602 82.7354C56.9082 83.6696 55.9512 84.1367 54.7891 84.1367ZM54.7891 83.3164C55.3678 83.3164 55.8509 83.027 56.2383 82.4482C56.7259 81.7145 56.9697 80.5524 56.9697 78.9619C56.9697 77.3669 56.7669 76.2139 56.3613 75.5029C55.9557 74.7874 55.4316 74.4297 54.7891 74.4297C53.7819 74.4297 53.1143 75.2135 52.7861 76.7812C52.6676 77.3372 52.6084 77.9684 52.6084 78.6748C52.6084 79.3766 52.6403 79.96 52.7041 80.4248C52.7679 80.8851 52.8545 81.2839 52.9639 81.6211C53.1553 82.2318 53.415 82.667 53.7432 82.9268C54.0758 83.1865 54.4245 83.3164 54.7891 83.3164Z" fill="#C50000"/>
<path d="M31.0352 56.4043C30.7773 55.3965 30.3789 54.3594 29.8398 53.293C29.3125 52.2266 28.0176 50.3105 25.9551 47.5449L24.373 45.3828C23.4941 44.2109 22.8965 43.25 22.5801 42.5C22.2637 41.7383 22.1055 40.9707 22.1055 40.1973C22.1055 38.9434 22.5098 37.918 23.3184 37.1211C24.1387 36.3125 25.1406 35.9082 26.3242 35.9082C27.3438 35.9082 28.2695 36.2422 29.1016 36.9102C29.9453 37.5781 30.5898 38.6152 31.0352 40.0215C31.4336 38.627 32.0488 37.5898 32.8809 36.9102C33.7129 36.2188 34.6445 35.873 35.6758 35.873C36.8125 35.873 37.7969 36.2715 38.6289 37.0684C39.4727 37.8652 39.8945 38.8379 39.8945 39.9863C39.8945 40.9941 39.6367 42.0547 39.1211 43.168C38.6055 44.2812 37.6973 45.6406 36.3965 47.2461C34.7559 49.3438 33.5547 51.0195 32.793 52.2734C32.043 53.5156 31.457 54.8926 31.0352 56.4043Z" fill="#C50000"/>
<path d="M10.0127 23.146C9.9196 22.7821 9.77572 22.4076 9.58105 22.0225C9.39062 21.6374 8.92301 20.9455 8.17822 19.9468L7.60693 19.166C7.28955 18.7428 7.07373 18.3958 6.95947 18.125C6.84521 17.8499 6.78809 17.5728 6.78809 17.2935C6.78809 16.8407 6.93408 16.4704 7.22607 16.1826C7.5223 15.8906 7.88411 15.7446 8.31152 15.7446C8.67969 15.7446 9.014 15.8652 9.31445 16.1064C9.61914 16.3477 9.85189 16.7222 10.0127 17.23C10.1566 16.7264 10.3787 16.3519 10.6792 16.1064C10.9797 15.8568 11.3161 15.7319 11.6885 15.7319C12.099 15.7319 12.4544 15.8758 12.7549 16.1636C13.0596 16.4513 13.2119 16.8026 13.2119 17.2173C13.2119 17.5812 13.1188 17.9642 12.9326 18.3662C12.7464 18.7682 12.4185 19.2591 11.9487 19.8389C11.3563 20.5964 10.9225 21.2015 10.6475 21.6543C10.3766 22.1029 10.165 22.6001 10.0127 23.146Z" fill="#C50000"/>
<path d="M52.0127 72.146C51.9196 71.7821 51.7757 71.4076 51.5811 71.0225C51.3906 70.6374 50.923 69.9455 50.1782 68.9468L49.6069 68.166C49.2896 67.7428 49.0737 67.3958 48.9595 67.125C48.8452 66.8499 48.7881 66.5728 48.7881 66.2935C48.7881 65.8407 48.9341 65.4704 49.2261 65.1826C49.5223 64.8906 49.8841 64.7446 50.3115 64.7446C50.6797 64.7446 51.014 64.8652 51.3145 65.1064C51.6191 65.3477 51.8519 65.7222 52.0127 66.23C52.1566 65.7264 52.3787 65.3519 52.6792 65.1064C52.9797 64.8568 53.3161 64.7319 53.6885 64.7319C54.099 64.7319 54.4544 64.8758 54.7549 65.1636C55.0596 65.4513 55.2119 65.8026 55.2119 66.2173C55.2119 66.5812 55.1188 66.9642 54.9326 67.3662C54.7464 67.7682 54.4185 68.2591 53.9487 68.8389C53.3563 69.5964 52.9225 70.2015 52.6475 70.6543C52.3766 71.1029 52.165 71.6001 52.0127 72.146Z" fill="#C50000"/>
<defs>
<linearGradient id="paint0_linear" x1="31" y1="0" x2="31" y2="88" gradientUnits="userSpaceOnUse">
<stop stop-color="white"/>
<stop offset="1" stop-color="#EEEEEE"/>
</linearGradient>
</defs>
</svg>
