<svg width="62" height="88" viewBox="0 0 62 88" fill="none" xmlns="http://www.w3.org/2000/svg">
<rect width="62" height="88" fill="url(#paint0_linear)"/>
<path d="M6.25 4.42773C6.58268 4.61003 6.74902 4.86751 6.74902 5.2002C6.74902 5.53288 6.6556 5.79264 6.46875 5.97949C6.2819 6.16634 6.08594 6.25977 5.88086 6.25977C5.52083 6.25977 5.24512 6.15267 5.05371 5.93848C4.86686 5.72428 4.77344 5.4668 4.77344 5.16602C4.77344 4.54622 5.10612 3.96517 5.77148 3.42285C6.44141 2.88053 7.2526 2.60938 8.20508 2.60938C9.15755 2.60938 9.90951 2.87826 10.4609 3.41602C11.0169 3.94922 11.2949 4.68522 11.2949 5.62402C11.2949 6.55827 10.8597 7.42871 9.98926 8.23535C9.60189 8.59538 9.14844 8.96224 8.62891 9.33594C8.11393 9.70964 7.71973 10.0081 7.44629 10.2314C6.80827 10.7555 6.3571 11.2454 6.09277 11.7012H9.08691C9.74772 11.7012 10.1829 11.5986 10.3926 11.3936C10.502 11.2842 10.5863 11.1406 10.6455 10.9629C10.7048 10.7852 10.7708 10.5664 10.8438 10.3066H11.6162L11.2744 13H4.88281V12.1797C4.88281 11.5143 5.38411 10.7305 6.38672 9.82812C7.14323 9.13997 7.69238 8.625 8.03418 8.2832C9.09147 7.22591 9.62012 6.19368 9.62012 5.18652C9.62012 4.60319 9.46517 4.16113 9.15527 3.86035C8.84993 3.55501 8.43978 3.40234 7.9248 3.40234C7.40983 3.40234 6.95638 3.58919 6.56445 3.96289C6.43229 4.09505 6.32747 4.25 6.25 4.42773Z" fill="black"/>
<path d="M52.25 76.4277C52.5827 76.61 52.749 76.8675 52.749 77.2002C52.749 77.5329 52.6556 77.7926 52.4688 77.9795C52.2819 78.1663 52.0859 78.2598 51.8809 78.2598C51.5208 78.2598 51.2451 78.1527 51.0537 77.9385C50.8669 77.7243 50.7734 77.4668 50.7734 77.166C50.7734 76.5462 51.1061 75.9652 51.7715 75.4229C52.4414 74.8805 53.2526 74.6094 54.2051 74.6094C55.1576 74.6094 55.9095 74.8783 56.4609 75.416C57.0169 75.9492 57.2949 76.6852 57.2949 77.624C57.2949 78.5583 56.8597 79.4287 55.9893 80.2354C55.6019 80.5954 55.1484 80.9622 54.6289 81.3359C54.1139 81.7096 53.7197 82.0081 53.4463 82.2314C52.8083 82.7555 52.3571 83.2454 52.0928 83.7012H55.0869C55.7477 83.7012 56.1829 83.5986 56.3926 83.3936C56.502 83.2842 56.5863 83.1406 56.6455 82.9629C56.7048 82.7852 56.7708 82.5664 56.8438 82.3066H57.6162L57.2744 85H50.8828V84.1797C50.8828 83.5143 51.3841 82.7305 52.3867 81.8281C53.1432 81.14 53.6924 80.625 54.0342 80.2832C55.0915 79.2259 55.6201 78.1937 55.6201 77.1865C55.6201 76.6032 55.4652 76.1611 55.1553 75.8604C54.8499 75.555 54.4398 75.4023 53.9248 75.4023C53.4098 75.4023 52.9564 75.5892 52.5645 75.9629C52.4323 76.0951 52.3275 76.25 52.25 76.4277Z" fill="black"/>
<path d="M38.418 56H23.6172L23.7578 55.3848C25.3398 55.0684 26.4766 54.752 27.168 54.4355C27.8711 54.1191 28.498 53.6094 29.0488 52.9062C29.6113 52.2031 30.0449 51.418 30.3496 50.5508C30.666 49.6719 30.8242 48.7871 30.8242 47.8965L30.7891 47.0703C30.1211 48.4766 29.2656 49.5254 28.2227 50.2168C27.1797 50.9082 26.1367 51.2539 25.0938 51.2539C24.1914 51.2539 23.3594 51.0312 22.5977 50.5859C21.8477 50.1406 21.2676 49.5488 20.8574 48.8105C20.4473 48.0723 20.2422 47.252 20.2422 46.3496C20.2422 45.002 20.6699 43.8652 21.5254 42.9395C22.3809 42.0137 23.3535 41.5449 24.4434 41.5332C25.1699 41.5332 26.1191 41.832 27.291 42.4297C26.8457 41.668 26.5234 41.0527 26.3242 40.584C26.1953 40.1504 26.1309 39.7109 26.1309 39.2656C26.1309 37.8477 26.6055 36.6992 27.5547 35.8203C28.5039 34.9414 29.6406 34.502 30.9648 34.502C32.3242 34.502 33.4727 34.9707 34.4102 35.9082C35.3477 36.8457 35.8164 37.9414 35.8164 39.1953C35.8164 40.2031 35.4121 41.2812 34.6035 42.4297C35.5879 41.9609 36.1738 41.709 36.3613 41.6738C36.6191 41.5801 36.9766 41.5332 37.4336 41.5332C38.6641 41.5332 39.6777 41.9902 40.4746 42.9043C41.3301 43.7949 41.7578 44.9199 41.7578 46.2793C41.7578 47.6387 41.3008 48.8047 40.3867 49.7773C39.4727 50.7383 38.3359 51.2188 36.9766 51.2188C36.3203 51.2188 35.6465 51.0781 34.9551 50.7969C34.2637 50.5039 33.6367 50.1172 33.0742 49.6367C32.5234 49.1562 31.8906 48.3008 31.1758 47.0703C31.2344 48.5469 31.4043 49.7363 31.6855 50.6387C31.9785 51.5293 32.4414 52.3262 33.0742 53.0293C33.7188 53.7324 34.4102 54.2422 35.1484 54.5586C35.8984 54.8633 36.9414 55.1387 38.2773 55.3848L38.418 56Z" fill="black"/>
<path d="M10.6787 23H5.33398L5.38477 22.7778C5.95605 22.6636 6.36654 22.5493 6.61621 22.4351C6.87012 22.3208 7.09652 22.1367 7.29541 21.8828C7.49854 21.6289 7.65511 21.3454 7.76514 21.0322C7.87939 20.7148 7.93652 20.3953 7.93652 20.0737L7.92383 19.7754C7.68262 20.2832 7.3737 20.6619 6.99707 20.9116C6.62044 21.1613 6.24382 21.2861 5.86719 21.2861C5.54134 21.2861 5.24089 21.2057 4.96582 21.0449C4.69499 20.8841 4.48551 20.6704 4.3374 20.4038C4.18929 20.1372 4.11523 19.841 4.11523 19.5151C4.11523 19.0285 4.26969 18.618 4.57861 18.2837C4.88753 17.9494 5.23877 17.7801 5.63232 17.7759C5.89469 17.7759 6.23747 17.8838 6.66064 18.0996C6.49984 17.8245 6.38346 17.6024 6.31152 17.4331C6.26497 17.2765 6.2417 17.1178 6.2417 16.957C6.2417 16.445 6.41309 16.0303 6.75586 15.7129C7.09863 15.3955 7.50911 15.2368 7.9873 15.2368C8.47819 15.2368 8.8929 15.4061 9.23145 15.7446C9.56999 16.0832 9.73926 16.4788 9.73926 16.9316C9.73926 17.2956 9.59326 17.6849 9.30127 18.0996C9.65674 17.9303 9.86833 17.8394 9.93604 17.8267C10.0291 17.7928 10.1582 17.7759 10.3232 17.7759C10.7676 17.7759 11.1336 17.9409 11.4214 18.271C11.7303 18.5926 11.8848 18.9989 11.8848 19.4897C11.8848 19.9806 11.7197 20.4017 11.3896 20.7529C11.0596 21.0999 10.6491 21.2734 10.1582 21.2734C9.92122 21.2734 9.6779 21.2227 9.42822 21.1211C9.17855 21.0153 8.95215 20.8757 8.74902 20.7021C8.55013 20.5286 8.32161 20.2197 8.06348 19.7754C8.08464 20.3086 8.146 20.7381 8.24756 21.064C8.35335 21.3856 8.52051 21.6733 8.74902 21.9272C8.98177 22.1812 9.23145 22.3652 9.49805 22.4795C9.76888 22.5895 10.1455 22.689 10.6279 22.7778L10.6787 23Z" fill="black"/>
<path d="M57.6787 72H52.334L52.3848 71.7778C52.9561 71.6636 53.3665 71.5493 53.6162 71.4351C53.8701 71.3208 54.0965 71.1367 54.2954 70.8828C54.4985 70.6289 54.6551 70.3454 54.7651 70.0322C54.8794 69.7148 54.9365 69.3953 54.9365 69.0737L54.9238 68.7754C54.6826 69.2832 54.3737 69.6619 53.9971 69.9116C53.6204 70.1613 53.2438 70.2861 52.8672 70.2861C52.5413 70.2861 52.2409 70.2057 51.9658 70.0449C51.695 69.8841 51.4855 69.6704 51.3374 69.4038C51.1893 69.1372 51.1152 68.841 51.1152 68.5151C51.1152 68.0285 51.2697 67.618 51.5786 67.2837C51.8875 66.9494 52.2388 66.7801 52.6323 66.7759C52.8947 66.7759 53.2375 66.8838 53.6606 67.0996C53.4998 66.8245 53.3835 66.6024 53.3115 66.4331C53.265 66.2765 53.2417 66.1178 53.2417 65.957C53.2417 65.445 53.4131 65.0303 53.7559 64.7129C54.0986 64.3955 54.5091 64.2368 54.9873 64.2368C55.4782 64.2368 55.8929 64.4061 56.2314 64.7446C56.57 65.0832 56.7393 65.4788 56.7393 65.9316C56.7393 66.2956 56.5933 66.6849 56.3013 67.0996C56.6567 66.9303 56.8683 66.8394 56.936 66.8267C57.0291 66.7928 57.1582 66.7759 57.3232 66.7759C57.7676 66.7759 58.1336 66.9409 58.4214 67.271C58.7303 67.5926 58.8848 67.9989 58.8848 68.4897C58.8848 68.9806 58.7197 69.4017 58.3896 69.7529C58.0596 70.0999 57.6491 70.2734 57.1582 70.2734C56.9212 70.2734 56.6779 70.2227 56.4282 70.1211C56.1785 70.0153 55.9521 69.8757 55.749 69.7021C55.5501 69.5286 55.3216 69.2197 55.0635 68.7754C55.0846 69.3086 55.146 69.7381 55.2476 70.064C55.3534 70.3856 55.5205 70.6733 55.749 70.9272C55.9818 71.1812 56.2314 71.3652 56.498 71.4795C56.7689 71.5895 57.1455 71.689 57.6279 71.7778L57.6787 72Z" fill="black"/>
<defs>
<linearGradient id="paint0_linear" x1="31" y1="0" x2="31" y2="88" gradientUnits="userSpaceOnUse">
<stop stop-color="white"/>
<stop offset="1" stop-color="#EEEEEE"/>
</linearGradient>
</defs>
</svg>
