<svg width="62" height="88" viewBox="0 0 62 88" fill="none" xmlns="http://www.w3.org/2000/svg">
<rect width="62" height="88" fill="url(#paint0_linear)"/>
<path d="M6.25 4.42773C6.58268 4.61003 6.74902 4.86751 6.74902 5.2002C6.74902 5.53288 6.6556 5.79264 6.46875 5.97949C6.2819 6.16634 6.08594 6.25977 5.88086 6.25977C5.52083 6.25977 5.24512 6.15267 5.05371 5.93848C4.86686 5.72428 4.77344 5.4668 4.77344 5.16602C4.77344 4.54622 5.10612 3.96517 5.77148 3.42285C6.44141 2.88053 7.2526 2.60938 8.20508 2.60938C9.15755 2.60938 9.90951 2.87826 10.4609 3.41602C11.0169 3.94922 11.2949 4.68522 11.2949 5.62402C11.2949 6.55827 10.8597 7.42871 9.98926 8.23535C9.60189 8.59538 9.14844 8.96224 8.62891 9.33594C8.11393 9.70964 7.71973 10.0081 7.44629 10.2314C6.80827 10.7555 6.3571 11.2454 6.09277 11.7012H9.08691C9.74772 11.7012 10.1829 11.5986 10.3926 11.3936C10.502 11.2842 10.5863 11.1406 10.6455 10.9629C10.7048 10.7852 10.7708 10.5664 10.8438 10.3066H11.6162L11.2744 13H4.88281V12.1797C4.88281 11.5143 5.38411 10.7305 6.38672 9.82812C7.14323 9.13997 7.69238 8.625 8.03418 8.2832C9.09147 7.22591 9.62012 6.19368 9.62012 5.18652C9.62012 4.60319 9.46517 4.16113 9.15527 3.86035C8.84993 3.55501 8.43978 3.40234 7.9248 3.40234C7.40983 3.40234 6.95638 3.58919 6.56445 3.96289C6.43229 4.09505 6.32747 4.25 6.25 4.42773Z" fill="#C50000"/>
<path d="M52.25 76.4277C52.5827 76.61 52.749 76.8675 52.749 77.2002C52.749 77.5329 52.6556 77.7926 52.4688 77.9795C52.2819 78.1663 52.0859 78.2598 51.8809 78.2598C51.5208 78.2598 51.2451 78.1527 51.0537 77.9385C50.8669 77.7243 50.7734 77.4668 50.7734 77.166C50.7734 76.5462 51.1061 75.9652 51.7715 75.4229C52.4414 74.8805 53.2526 74.6094 54.2051 74.6094C55.1576 74.6094 55.9095 74.8783 56.4609 75.416C57.0169 75.9492 57.2949 76.6852 57.2949 77.624C57.2949 78.5583 56.8597 79.4287 55.9893 80.2354C55.6019 80.5954 55.1484 80.9622 54.6289 81.3359C54.1139 81.7096 53.7197 82.0081 53.4463 82.2314C52.8083 82.7555 52.3571 83.2454 52.0928 83.7012H55.0869C55.7477 83.7012 56.1829 83.5986 56.3926 83.3936C56.502 83.2842 56.5863 83.1406 56.6455 82.9629C56.7048 82.7852 56.7708 82.5664 56.8438 82.3066H57.6162L57.2744 85H50.8828V84.1797C50.8828 83.5143 51.3841 82.7305 52.3867 81.8281C53.1432 81.14 53.6924 80.625 54.0342 80.2832C55.0915 79.2259 55.6201 78.1937 55.6201 77.1865C55.6201 76.6032 55.4652 76.1611 55.1553 75.8604C54.8499 75.555 54.4398 75.4023 53.9248 75.4023C53.4098 75.4023 52.9564 75.5892 52.5645 75.9629C52.4323 76.0951 52.3275 76.25 52.25 76.4277Z" fill="#C50000"/>
<path d="M30.9297 34.502C31.7734 35.9668 32.9688 37.7598 34.5156 39.8809C36.0742 41.9902 37.5684 43.8477 38.998 45.4531C38.2012 46.2734 36.9062 47.8789 35.1133 50.2695C33.3203 52.6484 31.9375 54.7051 30.9648 56.4395C30.5312 55.6074 29.7695 54.4297 28.6797 52.9062C27.6016 51.3711 26.6289 50.0469 25.7617 48.9336C24.8945 47.8086 23.9629 46.6484 22.9668 45.4531C24.3262 43.8477 25.7617 42.0371 27.2734 40.0215C28.7969 37.9941 30.0156 36.1543 30.9297 34.502Z" fill="#C50000"/>
<path d="M7.97461 15.2368C8.2793 15.7658 8.71094 16.4132 9.26953 17.1792C9.83236 17.9409 10.3719 18.6117 10.8882 19.1914C10.6004 19.4876 10.1328 20.0674 9.48535 20.9307C8.83789 21.7897 8.33854 22.5324 7.9873 23.1587C7.83073 22.8582 7.55566 22.4329 7.16211 21.8828C6.77279 21.3285 6.42155 20.8503 6.1084 20.4482C5.79525 20.042 5.45882 19.623 5.09912 19.1914C5.59001 18.6117 6.1084 17.9578 6.6543 17.23C7.20443 16.4979 7.64453 15.8335 7.97461 15.2368Z" fill="#C50000"/>
<path d="M54.9746 64.2368C55.2793 64.7658 55.7109 65.4132 56.2695 66.1792C56.8324 66.9409 57.3719 67.6117 57.8882 68.1914C57.6004 68.4876 57.1328 69.0674 56.4854 69.9307C55.8379 70.7897 55.3385 71.5324 54.9873 72.1587C54.8307 71.8582 54.5557 71.4329 54.1621 70.8828C53.7728 70.3285 53.4215 69.8503 53.1084 69.4482C52.7952 69.042 52.4588 68.623 52.0991 68.1914C52.59 67.6117 53.1084 66.9578 53.6543 66.23C54.2044 65.4979 54.6445 64.8335 54.9746 64.2368Z" fill="#C50000"/>
<defs>
<linearGradient id="paint0_linear" x1="31" y1="0" x2="31" y2="88" gradientUnits="userSpaceOnUse">
<stop stop-color="white"/>
<stop offset="1" stop-color="#EEEEEE"/>
</linearGradient>
</defs>
</svg>
