<svg width="62" height="88" viewBox="0 0 62 88" fill="none" xmlns="http://www.w3.org/2000/svg">
<rect width="62" height="88" fill="url(#paint0_linear)"/>
<path d="M6.25 4.42773C6.58268 4.61003 6.74902 4.86751 6.74902 5.2002C6.74902 5.53288 6.6556 5.79264 6.46875 5.97949C6.2819 6.16634 6.08594 6.25977 5.88086 6.25977C5.52083 6.25977 5.24512 6.15267 5.05371 5.93848C4.86686 5.72428 4.77344 5.4668 4.77344 5.16602C4.77344 4.54622 5.10612 3.96517 5.77148 3.42285C6.44141 2.88053 7.2526 2.60938 8.20508 2.60938C9.15755 2.60938 9.90951 2.87826 10.4609 3.41602C11.0169 3.94922 11.2949 4.68522 11.2949 5.62402C11.2949 6.55827 10.8597 7.42871 9.98926 8.23535C9.60189 8.59538 9.14844 8.96224 8.62891 9.33594C8.11393 9.70964 7.71973 10.0081 7.44629 10.2314C6.80827 10.7555 6.3571 11.2454 6.09277 11.7012H9.08691C9.74772 11.7012 10.1829 11.5986 10.3926 11.3936C10.502 11.2842 10.5863 11.1406 10.6455 10.9629C10.7048 10.7852 10.7708 10.5664 10.8438 10.3066H11.6162L11.2744 13H4.88281V12.1797C4.88281 11.5143 5.38411 10.7305 6.38672 9.82812C7.14323 9.13997 7.69238 8.625 8.03418 8.2832C9.09147 7.22591 9.62012 6.19368 9.62012 5.18652C9.62012 4.60319 9.46517 4.16113 9.15527 3.86035C8.84993 3.55501 8.43978 3.40234 7.9248 3.40234C7.40983 3.40234 6.95638 3.58919 6.56445 3.96289C6.43229 4.09505 6.32747 4.25 6.25 4.42773Z" fill="#C50000"/>
<path d="M52.25 76.4277C52.5827 76.61 52.749 76.8675 52.749 77.2002C52.749 77.5329 52.6556 77.7926 52.4688 77.9795C52.2819 78.1663 52.0859 78.2598 51.8809 78.2598C51.5208 78.2598 51.2451 78.1527 51.0537 77.9385C50.8669 77.7243 50.7734 77.4668 50.7734 77.166C50.7734 76.5462 51.1061 75.9652 51.7715 75.4229C52.4414 74.8805 53.2526 74.6094 54.2051 74.6094C55.1576 74.6094 55.9095 74.8783 56.4609 75.416C57.0169 75.9492 57.2949 76.6852 57.2949 77.624C57.2949 78.5583 56.8597 79.4287 55.9893 80.2354C55.6019 80.5954 55.1484 80.9622 54.6289 81.3359C54.1139 81.7096 53.7197 82.0081 53.4463 82.2314C52.8083 82.7555 52.3571 83.2454 52.0928 83.7012H55.0869C55.7477 83.7012 56.1829 83.5986 56.3926 83.3936C56.502 83.2842 56.5863 83.1406 56.6455 82.9629C56.7048 82.7852 56.7708 82.5664 56.8438 82.3066H57.6162L57.2744 85H50.8828V84.1797C50.8828 83.5143 51.3841 82.7305 52.3867 81.8281C53.1432 81.14 53.6924 80.625 54.0342 80.2832C55.0915 79.2259 55.6201 78.1937 55.6201 77.1865C55.6201 76.6032 55.4652 76.1611 55.1553 75.8604C54.8499 75.555 54.4398 75.4023 53.9248 75.4023C53.4098 75.4023 52.9564 75.5892 52.5645 75.9629C52.4323 76.0951 52.3275 76.25 52.25 76.4277Z" fill="#C50000"/>
<path d="M31.0352 56.4043C30.7773 55.3965 30.3789 54.3594 29.8398 53.293C29.3125 52.2266 28.0176 50.3105 25.9551 47.5449L24.373 45.3828C23.4941 44.2109 22.8965 43.25 22.5801 42.5C22.2637 41.7383 22.1055 40.9707 22.1055 40.1973C22.1055 38.9434 22.5098 37.918 23.3184 37.1211C24.1387 36.3125 25.1406 35.9082 26.3242 35.9082C27.3438 35.9082 28.2695 36.2422 29.1016 36.9102C29.9453 37.5781 30.5898 38.6152 31.0352 40.0215C31.4336 38.627 32.0488 37.5898 32.8809 36.9102C33.7129 36.2188 34.6445 35.873 35.6758 35.873C36.8125 35.873 37.7969 36.2715 38.6289 37.0684C39.4727 37.8652 39.8945 38.8379 39.8945 39.9863C39.8945 40.9941 39.6367 42.0547 39.1211 43.168C38.6055 44.2812 37.6973 45.6406 36.3965 47.2461C34.7559 49.3438 33.5547 51.0195 32.793 52.2734C32.043 53.5156 31.457 54.8926 31.0352 56.4043Z" fill="#C50000"/>
<path d="M8.0127 23.146C7.9196 22.7821 7.77572 22.4076 7.58105 22.0225C7.39062 21.6374 6.92301 20.9455 6.17822 19.9468L5.60693 19.166C5.28955 18.7428 5.07373 18.3958 4.95947 18.125C4.84521 17.8499 4.78809 17.5728 4.78809 17.2935C4.78809 16.8407 4.93408 16.4704 5.22607 16.1826C5.5223 15.8906 5.88411 15.7446 6.31152 15.7446C6.67969 15.7446 7.014 15.8652 7.31445 16.1064C7.61914 16.3477 7.85189 16.7222 8.0127 17.23C8.15658 16.7264 8.37874 16.3519 8.6792 16.1064C8.97965 15.8568 9.31608 15.7319 9.68848 15.7319C10.099 15.7319 10.4544 15.8758 10.7549 16.1636C11.0596 16.4513 11.2119 16.8026 11.2119 17.2173C11.2119 17.5812 11.1188 17.9642 10.9326 18.3662C10.7464 18.7682 10.4185 19.2591 9.94873 19.8389C9.35628 20.5964 8.92253 21.2015 8.64746 21.6543C8.37663 22.1029 8.16504 22.6001 8.0127 23.146Z" fill="#C50000"/>
<path d="M55.0127 72.146C54.9196 71.7821 54.7757 71.4076 54.5811 71.0225C54.3906 70.6374 53.923 69.9455 53.1782 68.9468L52.6069 68.166C52.2896 67.7428 52.0737 67.3958 51.9595 67.125C51.8452 66.8499 51.7881 66.5728 51.7881 66.2935C51.7881 65.8407 51.9341 65.4704 52.2261 65.1826C52.5223 64.8906 52.8841 64.7446 53.3115 64.7446C53.6797 64.7446 54.014 64.8652 54.3145 65.1064C54.6191 65.3477 54.8519 65.7222 55.0127 66.23C55.1566 65.7264 55.3787 65.3519 55.6792 65.1064C55.9797 64.8568 56.3161 64.7319 56.6885 64.7319C57.099 64.7319 57.4544 64.8758 57.7549 65.1636C58.0596 65.4513 58.2119 65.8026 58.2119 66.2173C58.2119 66.5812 58.1188 66.9642 57.9326 67.3662C57.7464 67.7682 57.4185 68.2591 56.9487 68.8389C56.3563 69.5964 55.9225 70.2015 55.6475 70.6543C55.3766 71.1029 55.165 71.6001 55.0127 72.146Z" fill="#C50000"/>
<defs>
<linearGradient id="paint0_linear" x1="31" y1="0" x2="31" y2="88" gradientUnits="userSpaceOnUse">
<stop stop-color="white"/>
<stop offset="1" stop-color="#EEEEEE"/>
</linearGradient>
</defs>
</svg>
