<svg width="62" height="88" viewBox="0 0 62 88" fill="none" xmlns="http://www.w3.org/2000/svg">
<rect width="62" height="88" fill="url(#paint0_linear)"/>
<path d="M6.25 4.42773C6.58268 4.61003 6.74902 4.86751 6.74902 5.2002C6.74902 5.53288 6.6556 5.79264 6.46875 5.97949C6.2819 6.16634 6.08594 6.25977 5.88086 6.25977C5.52083 6.25977 5.24512 6.15267 5.05371 5.93848C4.86686 5.72428 4.77344 5.4668 4.77344 5.16602C4.77344 4.54622 5.10612 3.96517 5.77148 3.42285C6.44141 2.88053 7.2526 2.60938 8.20508 2.60938C9.15755 2.60938 9.90951 2.87826 10.4609 3.41602C11.0169 3.94922 11.2949 4.68522 11.2949 5.62402C11.2949 6.55827 10.8597 7.42871 9.98926 8.23535C9.60189 8.59538 9.14844 8.96224 8.62891 9.33594C8.11393 9.70964 7.71973 10.0081 7.44629 10.2314C6.80827 10.7555 6.3571 11.2454 6.09277 11.7012H9.08691C9.74772 11.7012 10.1829 11.5986 10.3926 11.3936C10.502 11.2842 10.5863 11.1406 10.6455 10.9629C10.7048 10.7852 10.7708 10.5664 10.8438 10.3066H11.6162L11.2744 13H4.88281V12.1797C4.88281 11.5143 5.38411 10.7305 6.38672 9.82812C7.14323 9.13997 7.69238 8.625 8.03418 8.2832C9.09147 7.22591 9.62012 6.19368 9.62012 5.18652C9.62012 4.60319 9.46517 4.16113 9.15527 3.86035C8.84993 3.55501 8.43978 3.40234 7.9248 3.40234C7.40983 3.40234 6.95638 3.58919 6.56445 3.96289C6.43229 4.09505 6.32747 4.25 6.25 4.42773Z" fill="black"/>
<path d="M52.25 76.4277C52.5827 76.61 52.749 76.8675 52.749 77.2002C52.749 77.5329 52.6556 77.7926 52.4688 77.9795C52.2819 78.1663 52.0859 78.2598 51.8809 78.2598C51.5208 78.2598 51.2451 78.1527 51.0537 77.9385C50.8669 77.7243 50.7734 77.4668 50.7734 77.166C50.7734 76.5462 51.1061 75.9652 51.7715 75.4229C52.4414 74.8805 53.2526 74.6094 54.2051 74.6094C55.1576 74.6094 55.9095 74.8783 56.4609 75.416C57.0169 75.9492 57.2949 76.6852 57.2949 77.624C57.2949 78.5583 56.8597 79.4287 55.9893 80.2354C55.6019 80.5954 55.1484 80.9622 54.6289 81.3359C54.1139 81.7096 53.7197 82.0081 53.4463 82.2314C52.8083 82.7555 52.3571 83.2454 52.0928 83.7012H55.0869C55.7477 83.7012 56.1829 83.5986 56.3926 83.3936C56.502 83.2842 56.5863 83.1406 56.6455 82.9629C56.7048 82.7852 56.7708 82.5664 56.8438 82.3066H57.6162L57.2744 85H50.8828V84.1797C50.8828 83.5143 51.3841 82.7305 52.3867 81.8281C53.1432 81.14 53.6924 80.625 54.0342 80.2832C55.0915 79.2259 55.6201 78.1937 55.6201 77.1865C55.6201 76.6032 55.4652 76.1611 55.1553 75.8604C54.8499 75.555 54.4398 75.4023 53.9248 75.4023C53.4098 75.4023 52.9564 75.5892 52.5645 75.9629C52.4323 76.0951 52.3275 76.25 52.25 76.4277Z" fill="black"/>
<path d="M31 34.3613C31.293 35.4863 31.7207 36.5469 32.2832 37.543C32.8457 38.5273 34.0117 39.834 35.7812 41.4629C37.4336 42.9395 38.4648 44.0645 38.875 44.8379C39.2852 45.6113 39.502 46.4141 39.5254 47.2461C39.5254 48.3711 39.1445 49.3086 38.3828 50.0586C37.6211 50.8086 36.7305 51.1836 35.7109 51.1836C33.8711 51.1836 32.3711 50.0645 31.2109 47.8262C31.2461 49.6895 31.4922 51.1074 31.9492 52.0801C32.418 53.0527 33.127 53.8145 34.0762 54.3652C35.0371 54.916 36.291 55.2441 37.8379 55.3496L37.9785 56H24.0566L24.1621 55.3496C25.6152 55.3496 26.8457 55.0684 27.8535 54.5059C28.8613 53.9316 29.6172 53.1406 30.1211 52.1328C30.6367 51.125 30.8945 49.7715 30.8945 48.0723V47.8262C29.8398 50.0645 28.3164 51.1836 26.3242 51.1836C25.2812 51.1836 24.3789 50.8086 23.6172 50.0586C22.8555 49.3086 22.4746 48.3945 22.4746 47.3164C22.4746 46.2734 22.7324 45.3535 23.248 44.5566C23.7754 43.7598 24.6191 42.8809 25.7793 41.9199C27.4082 40.5254 28.6094 39.2832 29.3828 38.1934C30.1562 37.1035 30.6953 35.8262 31 34.3613Z" fill="black"/>
<path d="M8 15.186C8.10579 15.5923 8.26025 15.9753 8.46338 16.335C8.6665 16.6904 9.08757 17.1623 9.72656 17.7505C10.3232 18.2837 10.6956 18.6899 10.8438 18.9692C10.9919 19.2485 11.0701 19.5384 11.0786 19.8389C11.0786 20.2451 10.9411 20.5837 10.666 20.8545C10.391 21.1253 10.0693 21.2607 9.70117 21.2607C9.03678 21.2607 8.49512 20.8566 8.07617 20.0483C8.08887 20.7212 8.17773 21.2332 8.34277 21.5845C8.51204 21.9357 8.76807 22.2108 9.11084 22.4097C9.45785 22.6086 9.91064 22.7271 10.4692 22.7651L10.52 23H5.49268L5.53076 22.7651C6.0555 22.7651 6.49984 22.6636 6.86377 22.4604C7.2277 22.2531 7.50065 21.9674 7.68262 21.6035C7.86882 21.2396 7.96191 20.7508 7.96191 20.1372V20.0483C7.58105 20.8566 7.03092 21.2607 6.31152 21.2607C5.9349 21.2607 5.60905 21.1253 5.33398 20.8545C5.05892 20.5837 4.92139 20.2536 4.92139 19.8643C4.92139 19.4876 5.01449 19.1554 5.20068 18.8677C5.39111 18.5799 5.6958 18.2625 6.11475 17.9155C6.70296 17.4119 7.13672 16.9634 7.41602 16.5698C7.69531 16.1763 7.88997 15.715 8 15.186Z" fill="black"/>
<path d="M55 64.186C55.1058 64.5923 55.2603 64.9753 55.4634 65.335C55.6665 65.6904 56.0876 66.1623 56.7266 66.7505C57.3232 67.2837 57.6956 67.6899 57.8438 67.9692C57.9919 68.2485 58.0701 68.5384 58.0786 68.8389C58.0786 69.2451 57.9411 69.5837 57.666 69.8545C57.391 70.1253 57.0693 70.2607 56.7012 70.2607C56.0368 70.2607 55.4951 69.8566 55.0762 69.0483C55.0889 69.7212 55.1777 70.2332 55.3428 70.5845C55.512 70.9357 55.7681 71.2108 56.1108 71.4097C56.4578 71.6086 56.9106 71.7271 57.4692 71.7651L57.52 72H52.4927L52.5308 71.7651C53.0555 71.7651 53.4998 71.6636 53.8638 71.4604C54.2277 71.2531 54.5007 70.9674 54.6826 70.6035C54.8688 70.2396 54.9619 69.7508 54.9619 69.1372V69.0483C54.5811 69.8566 54.0309 70.2607 53.3115 70.2607C52.9349 70.2607 52.609 70.1253 52.334 69.8545C52.0589 69.5837 51.9214 69.2536 51.9214 68.8643C51.9214 68.4876 52.0145 68.1554 52.2007 67.8677C52.3911 67.5799 52.6958 67.2625 53.1147 66.9155C53.703 66.4119 54.1367 65.9634 54.416 65.5698C54.6953 65.1763 54.89 64.715 55 64.186Z" fill="black"/>
<defs>
<linearGradient id="paint0_linear" x1="31" y1="0" x2="31" y2="88" gradientUnits="userSpaceOnUse">
<stop stop-color="white"/>
<stop offset="1" stop-color="#EEEEEE"/>
</linearGradient>
</defs>
</svg>
