<svg width="62" height="88" viewBox="0 0 62 88" fill="none" xmlns="http://www.w3.org/2000/svg">
<rect width="62" height="88" fill="url(#paint0_linear)"/>
<path d="M6.55762 4.28418C6.85384 4.45736 7.00195 4.73763 7.00195 5.125C7.00195 5.50781 6.8151 5.77669 6.44141 5.93164C6.32747 5.98177 6.20215 6.00684 6.06543 6.00684C5.80111 6.00684 5.58008 5.90658 5.40234 5.70605C5.22917 5.50098 5.14258 5.25488 5.14258 4.96777C5.14258 4.38444 5.43652 3.84668 6.02441 3.35449C6.6123 2.85775 7.33919 2.60938 8.20508 2.60938C9.07552 2.60938 9.81152 2.84635 10.4131 3.32031C11.0192 3.79427 11.3223 4.43685 11.3223 5.24805C11.3223 6.05924 10.96 6.73828 10.2354 7.28516C10.0348 7.43555 9.83203 7.56315 9.62695 7.66797C10.2012 7.87305 10.6729 8.20117 11.042 8.65234C11.4111 9.10352 11.5957 9.57747 11.5957 10.0742C11.5957 11.013 11.2493 11.7581 10.5566 12.3096C9.86849 12.861 9.0459 13.1367 8.08887 13.1367C7.13184 13.1367 6.33431 12.902 5.69629 12.4326C5.41374 12.2275 5.19499 11.9974 5.04004 11.7422C4.88509 11.487 4.80762 11.2591 4.80762 11.0586C4.80762 10.694 4.90104 10.4069 5.08789 10.1973C5.27474 9.98307 5.50944 9.87598 5.79199 9.87598C6.20671 9.87598 6.49382 10.0651 6.65332 10.4434C6.69889 10.5573 6.72168 10.6781 6.72168 10.8057C6.72168 11.1292 6.58724 11.3867 6.31836 11.5781C6.5599 12.043 7.05892 12.2754 7.81543 12.2754C8.38509 12.2754 8.87728 12.0931 9.29199 11.7285C9.71126 11.3639 9.9209 10.8376 9.9209 10.1494C9.9209 9.64355 9.72038 9.19466 9.31934 8.80273C8.91829 8.41081 8.41927 8.21484 7.82227 8.21484H7.23438V7.25781H7.60352C8.20508 7.25781 8.69499 7.06413 9.07324 6.67676C9.45605 6.28483 9.64746 5.79492 9.64746 5.20703C9.64746 4.61458 9.4834 4.17708 9.15527 3.89453C8.82715 3.61198 8.42155 3.4707 7.93848 3.4707C7.4554 3.4707 7.07259 3.62109 6.79004 3.92188C6.68978 4.02214 6.6123 4.1429 6.55762 4.28418Z" fill="#C50000"/>
<path d="M52.5576 76.2842C52.8538 76.4574 53.002 76.7376 53.002 77.125C53.002 77.5078 52.8151 77.7767 52.4414 77.9316C52.3275 77.9818 52.2021 78.0068 52.0654 78.0068C51.8011 78.0068 51.5801 77.9066 51.4023 77.7061C51.2292 77.501 51.1426 77.2549 51.1426 76.9678C51.1426 76.3844 51.4365 75.8467 52.0244 75.3545C52.6123 74.8577 53.3392 74.6094 54.2051 74.6094C55.0755 74.6094 55.8115 74.8464 56.4131 75.3203C57.0192 75.7943 57.3223 76.4368 57.3223 77.248C57.3223 78.0592 56.96 78.7383 56.2354 79.2852C56.0348 79.4355 55.832 79.5632 55.627 79.668C56.2012 79.873 56.6729 80.2012 57.042 80.6523C57.4111 81.1035 57.5957 81.5775 57.5957 82.0742C57.5957 83.013 57.2493 83.7581 56.5566 84.3096C55.8685 84.861 55.0459 85.1367 54.0889 85.1367C53.1318 85.1367 52.3343 84.902 51.6963 84.4326C51.4137 84.2275 51.195 83.9974 51.04 83.7422C50.8851 83.487 50.8076 83.2591 50.8076 83.0586C50.8076 82.694 50.901 82.4069 51.0879 82.1973C51.2747 81.9831 51.5094 81.876 51.792 81.876C52.2067 81.876 52.4938 82.0651 52.6533 82.4434C52.6989 82.5573 52.7217 82.6781 52.7217 82.8057C52.7217 83.1292 52.5872 83.3867 52.3184 83.5781C52.5599 84.043 53.0589 84.2754 53.8154 84.2754C54.3851 84.2754 54.8773 84.0931 55.292 83.7285C55.7113 83.3639 55.9209 82.8376 55.9209 82.1494C55.9209 81.6436 55.7204 81.1947 55.3193 80.8027C54.9183 80.4108 54.4193 80.2148 53.8223 80.2148H53.2344V79.2578H53.6035C54.2051 79.2578 54.695 79.0641 55.0732 78.6768C55.4561 78.2848 55.6475 77.7949 55.6475 77.207C55.6475 76.6146 55.4834 76.1771 55.1553 75.8945C54.8271 75.612 54.4215 75.4707 53.9385 75.4707C53.4554 75.4707 53.0726 75.6211 52.79 75.9219C52.6898 76.0221 52.6123 76.1429 52.5576 76.2842Z" fill="#C50000"/>
<path d="M31.0352 56.4043C30.7773 55.3965 30.3789 54.3594 29.8398 53.293C29.3125 52.2266 28.0176 50.3105 25.9551 47.5449L24.373 45.3828C23.4941 44.2109 22.8965 43.25 22.5801 42.5C22.2637 41.7383 22.1055 40.9707 22.1055 40.1973C22.1055 38.9434 22.5098 37.918 23.3184 37.1211C24.1387 36.3125 25.1406 35.9082 26.3242 35.9082C27.3438 35.9082 28.2695 36.2422 29.1016 36.9102C29.9453 37.5781 30.5898 38.6152 31.0352 40.0215C31.4336 38.627 32.0488 37.5898 32.8809 36.9102C33.7129 36.2188 34.6445 35.873 35.6758 35.873C36.8125 35.873 37.7969 36.2715 38.6289 37.0684C39.4727 37.8652 39.8945 38.8379 39.8945 39.9863C39.8945 40.9941 39.6367 42.0547 39.1211 43.168C38.6055 44.2812 37.6973 45.6406 36.3965 47.2461C34.7559 49.3438 33.5547 51.0195 32.793 52.2734C32.043 53.5156 31.457 54.8926 31.0352 56.4043Z" fill="#C50000"/>
<path d="M8.0127 23.146C7.9196 22.7821 7.77572 22.4076 7.58105 22.0225C7.39062 21.6374 6.92301 20.9455 6.17822 19.9468L5.60693 19.166C5.28955 18.7428 5.07373 18.3958 4.95947 18.125C4.84521 17.8499 4.78809 17.5728 4.78809 17.2935C4.78809 16.8407 4.93408 16.4704 5.22607 16.1826C5.5223 15.8906 5.88411 15.7446 6.31152 15.7446C6.67969 15.7446 7.014 15.8652 7.31445 16.1064C7.61914 16.3477 7.85189 16.7222 8.0127 17.23C8.15658 16.7264 8.37874 16.3519 8.6792 16.1064C8.97965 15.8568 9.31608 15.7319 9.68848 15.7319C10.099 15.7319 10.4544 15.8758 10.7549 16.1636C11.0596 16.4513 11.2119 16.8026 11.2119 17.2173C11.2119 17.5812 11.1188 17.9642 10.9326 18.3662C10.7464 18.7682 10.4185 19.2591 9.94873 19.8389C9.35628 20.5964 8.92253 21.2015 8.64746 21.6543C8.37663 22.1029 8.16504 22.6001 8.0127 23.146Z" fill="#C50000"/>
<path d="M55.0127 72.146C54.9196 71.7821 54.7757 71.4076 54.5811 71.0225C54.3906 70.6374 53.923 69.9455 53.1782 68.9468L52.6069 68.166C52.2896 67.7428 52.0737 67.3958 51.9595 67.125C51.8452 66.8499 51.7881 66.5728 51.7881 66.2935C51.7881 65.8407 51.9341 65.4704 52.2261 65.1826C52.5223 64.8906 52.8841 64.7446 53.3115 64.7446C53.6797 64.7446 54.014 64.8652 54.3145 65.1064C54.6191 65.3477 54.8519 65.7222 55.0127 66.23C55.1566 65.7264 55.3787 65.3519 55.6792 65.1064C55.9797 64.8568 56.3161 64.7319 56.6885 64.7319C57.099 64.7319 57.4544 64.8758 57.7549 65.1636C58.0596 65.4513 58.2119 65.8026 58.2119 66.2173C58.2119 66.5812 58.1188 66.9642 57.9326 67.3662C57.7464 67.7682 57.4185 68.2591 56.9487 68.8389C56.3563 69.5964 55.9225 70.2015 55.6475 70.6543C55.3766 71.1029 55.165 71.6001 55.0127 72.146Z" fill="#C50000"/>
<defs>
<linearGradient id="paint0_linear" x1="31" y1="0" x2="31" y2="88" gradientUnits="userSpaceOnUse">
<stop stop-color="white"/>
<stop offset="1" stop-color="#EEEEEE"/>
</linearGradient>
</defs>
</svg>
