<svg width="62" height="88" viewBox="0 0 62 88" fill="none" xmlns="http://www.w3.org/2000/svg">
<rect width="62" height="88" fill="url(#paint0_linear)"/>
<path d="M6.55762 4.28418C6.85384 4.45736 7.00195 4.73763 7.00195 5.125C7.00195 5.50781 6.8151 5.77669 6.44141 5.93164C6.32747 5.98177 6.20215 6.00684 6.06543 6.00684C5.80111 6.00684 5.58008 5.90658 5.40234 5.70605C5.22917 5.50098 5.14258 5.25488 5.14258 4.96777C5.14258 4.38444 5.43652 3.84668 6.02441 3.35449C6.6123 2.85775 7.33919 2.60938 8.20508 2.60938C9.07552 2.60938 9.81152 2.84635 10.4131 3.32031C11.0192 3.79427 11.3223 4.43685 11.3223 5.24805C11.3223 6.05924 10.96 6.73828 10.2354 7.28516C10.0348 7.43555 9.83203 7.56315 9.62695 7.66797C10.2012 7.87305 10.6729 8.20117 11.042 8.65234C11.4111 9.10352 11.5957 9.57747 11.5957 10.0742C11.5957 11.013 11.2493 11.7581 10.5566 12.3096C9.86849 12.861 9.0459 13.1367 8.08887 13.1367C7.13184 13.1367 6.33431 12.902 5.69629 12.4326C5.41374 12.2275 5.19499 11.9974 5.04004 11.7422C4.88509 11.487 4.80762 11.2591 4.80762 11.0586C4.80762 10.694 4.90104 10.4069 5.08789 10.1973C5.27474 9.98307 5.50944 9.87598 5.79199 9.87598C6.20671 9.87598 6.49382 10.0651 6.65332 10.4434C6.69889 10.5573 6.72168 10.6781 6.72168 10.8057C6.72168 11.1292 6.58724 11.3867 6.31836 11.5781C6.5599 12.043 7.05892 12.2754 7.81543 12.2754C8.38509 12.2754 8.87728 12.0931 9.29199 11.7285C9.71126 11.3639 9.9209 10.8376 9.9209 10.1494C9.9209 9.64355 9.72038 9.19466 9.31934 8.80273C8.91829 8.41081 8.41927 8.21484 7.82227 8.21484H7.23438V7.25781H7.60352C8.20508 7.25781 8.69499 7.06413 9.07324 6.67676C9.45605 6.28483 9.64746 5.79492 9.64746 5.20703C9.64746 4.61458 9.4834 4.17708 9.15527 3.89453C8.82715 3.61198 8.42155 3.4707 7.93848 3.4707C7.4554 3.4707 7.07259 3.62109 6.79004 3.92188C6.68978 4.02214 6.6123 4.1429 6.55762 4.28418Z" fill="black"/>
<path d="M52.5576 76.2842C52.8538 76.4574 53.002 76.7376 53.002 77.125C53.002 77.5078 52.8151 77.7767 52.4414 77.9316C52.3275 77.9818 52.2021 78.0068 52.0654 78.0068C51.8011 78.0068 51.5801 77.9066 51.4023 77.7061C51.2292 77.501 51.1426 77.2549 51.1426 76.9678C51.1426 76.3844 51.4365 75.8467 52.0244 75.3545C52.6123 74.8577 53.3392 74.6094 54.2051 74.6094C55.0755 74.6094 55.8115 74.8464 56.4131 75.3203C57.0192 75.7943 57.3223 76.4368 57.3223 77.248C57.3223 78.0592 56.96 78.7383 56.2354 79.2852C56.0348 79.4355 55.832 79.5632 55.627 79.668C56.2012 79.873 56.6729 80.2012 57.042 80.6523C57.4111 81.1035 57.5957 81.5775 57.5957 82.0742C57.5957 83.013 57.2493 83.7581 56.5566 84.3096C55.8685 84.861 55.0459 85.1367 54.0889 85.1367C53.1318 85.1367 52.3343 84.902 51.6963 84.4326C51.4137 84.2275 51.195 83.9974 51.04 83.7422C50.8851 83.487 50.8076 83.2591 50.8076 83.0586C50.8076 82.694 50.901 82.4069 51.0879 82.1973C51.2747 81.9831 51.5094 81.876 51.792 81.876C52.2067 81.876 52.4938 82.0651 52.6533 82.4434C52.6989 82.5573 52.7217 82.6781 52.7217 82.8057C52.7217 83.1292 52.5872 83.3867 52.3184 83.5781C52.5599 84.043 53.0589 84.2754 53.8154 84.2754C54.3851 84.2754 54.8773 84.0931 55.292 83.7285C55.7113 83.3639 55.9209 82.8376 55.9209 82.1494C55.9209 81.6436 55.7204 81.1947 55.3193 80.8027C54.9183 80.4108 54.4193 80.2148 53.8223 80.2148H53.2344V79.2578H53.6035C54.2051 79.2578 54.695 79.0641 55.0732 78.6768C55.4561 78.2848 55.6475 77.7949 55.6475 77.207C55.6475 76.6146 55.4834 76.1771 55.1553 75.8945C54.8271 75.612 54.4215 75.4707 53.9385 75.4707C53.4554 75.4707 53.0726 75.6211 52.79 75.9219C52.6898 76.0221 52.6123 76.1429 52.5576 76.2842Z" fill="black"/>
<path d="M31 34.3613C31.293 35.4863 31.7207 36.5469 32.2832 37.543C32.8457 38.5273 34.0117 39.834 35.7812 41.4629C37.4336 42.9395 38.4648 44.0645 38.875 44.8379C39.2852 45.6113 39.502 46.4141 39.5254 47.2461C39.5254 48.3711 39.1445 49.3086 38.3828 50.0586C37.6211 50.8086 36.7305 51.1836 35.7109 51.1836C33.8711 51.1836 32.3711 50.0645 31.2109 47.8262C31.2461 49.6895 31.4922 51.1074 31.9492 52.0801C32.418 53.0527 33.127 53.8145 34.0762 54.3652C35.0371 54.916 36.291 55.2441 37.8379 55.3496L37.9785 56H24.0566L24.1621 55.3496C25.6152 55.3496 26.8457 55.0684 27.8535 54.5059C28.8613 53.9316 29.6172 53.1406 30.1211 52.1328C30.6367 51.125 30.8945 49.7715 30.8945 48.0723V47.8262C29.8398 50.0645 28.3164 51.1836 26.3242 51.1836C25.2812 51.1836 24.3789 50.8086 23.6172 50.0586C22.8555 49.3086 22.4746 48.3945 22.4746 47.3164C22.4746 46.2734 22.7324 45.3535 23.248 44.5566C23.7754 43.7598 24.6191 42.8809 25.7793 41.9199C27.4082 40.5254 28.6094 39.2832 29.3828 38.1934C30.1562 37.1035 30.6953 35.8262 31 34.3613Z" fill="black"/>
<path d="M8 15.186C8.10579 15.5923 8.26025 15.9753 8.46338 16.335C8.6665 16.6904 9.08757 17.1623 9.72656 17.7505C10.3232 18.2837 10.6956 18.6899 10.8438 18.9692C10.9919 19.2485 11.0701 19.5384 11.0786 19.8389C11.0786 20.2451 10.9411 20.5837 10.666 20.8545C10.391 21.1253 10.0693 21.2607 9.70117 21.2607C9.03678 21.2607 8.49512 20.8566 8.07617 20.0483C8.08887 20.7212 8.17773 21.2332 8.34277 21.5845C8.51204 21.9357 8.76807 22.2108 9.11084 22.4097C9.45785 22.6086 9.91064 22.7271 10.4692 22.7651L10.52 23H5.49268L5.53076 22.7651C6.0555 22.7651 6.49984 22.6636 6.86377 22.4604C7.2277 22.2531 7.50065 21.9674 7.68262 21.6035C7.86882 21.2396 7.96191 20.7508 7.96191 20.1372V20.0483C7.58105 20.8566 7.03092 21.2607 6.31152 21.2607C5.9349 21.2607 5.60905 21.1253 5.33398 20.8545C5.05892 20.5837 4.92139 20.2536 4.92139 19.8643C4.92139 19.4876 5.01449 19.1554 5.20068 18.8677C5.39111 18.5799 5.6958 18.2625 6.11475 17.9155C6.70296 17.4119 7.13672 16.9634 7.41602 16.5698C7.69531 16.1763 7.88997 15.715 8 15.186Z" fill="black"/>
<path d="M55 64.186C55.1058 64.5923 55.2603 64.9753 55.4634 65.335C55.6665 65.6904 56.0876 66.1623 56.7266 66.7505C57.3232 67.2837 57.6956 67.6899 57.8438 67.9692C57.9919 68.2485 58.0701 68.5384 58.0786 68.8389C58.0786 69.2451 57.9411 69.5837 57.666 69.8545C57.391 70.1253 57.0693 70.2607 56.7012 70.2607C56.0368 70.2607 55.4951 69.8566 55.0762 69.0483C55.0889 69.7212 55.1777 70.2332 55.3428 70.5845C55.512 70.9357 55.7681 71.2108 56.1108 71.4097C56.4578 71.6086 56.9106 71.7271 57.4692 71.7651L57.52 72H52.4927L52.5308 71.7651C53.0555 71.7651 53.4998 71.6636 53.8638 71.4604C54.2277 71.2531 54.5007 70.9674 54.6826 70.6035C54.8688 70.2396 54.9619 69.7508 54.9619 69.1372V69.0483C54.5811 69.8566 54.0309 70.2607 53.3115 70.2607C52.9349 70.2607 52.609 70.1253 52.334 69.8545C52.0589 69.5837 51.9214 69.2536 51.9214 68.8643C51.9214 68.4876 52.0145 68.1554 52.2007 67.8677C52.3911 67.5799 52.6958 67.2625 53.1147 66.9155C53.703 66.4119 54.1367 65.9634 54.416 65.5698C54.6953 65.1763 54.89 64.715 55 64.186Z" fill="black"/>
<defs>
<linearGradient id="paint0_linear" x1="31" y1="0" x2="31" y2="88" gradientUnits="userSpaceOnUse">
<stop stop-color="white"/>
<stop offset="1" stop-color="#EEEEEE"/>
</linearGradient>
</defs>
</svg>
