<svg width="62" height="88" viewBox="0 0 62 88" fill="none" xmlns="http://www.w3.org/2000/svg">
<rect width="62" height="88" fill="url(#paint0_linear)"/>
<path d="M6.55762 4.28418C6.85384 4.45736 7.00195 4.73763 7.00195 5.125C7.00195 5.50781 6.8151 5.77669 6.44141 5.93164C6.32747 5.98177 6.20215 6.00684 6.06543 6.00684C5.80111 6.00684 5.58008 5.90658 5.40234 5.70605C5.22917 5.50098 5.14258 5.25488 5.14258 4.96777C5.14258 4.38444 5.43652 3.84668 6.02441 3.35449C6.6123 2.85775 7.33919 2.60938 8.20508 2.60938C9.07552 2.60938 9.81152 2.84635 10.4131 3.32031C11.0192 3.79427 11.3223 4.43685 11.3223 5.24805C11.3223 6.05924 10.96 6.73828 10.2354 7.28516C10.0348 7.43555 9.83203 7.56315 9.62695 7.66797C10.2012 7.87305 10.6729 8.20117 11.042 8.65234C11.4111 9.10352 11.5957 9.57747 11.5957 10.0742C11.5957 11.013 11.2493 11.7581 10.5566 12.3096C9.86849 12.861 9.0459 13.1367 8.08887 13.1367C7.13184 13.1367 6.33431 12.902 5.69629 12.4326C5.41374 12.2275 5.19499 11.9974 5.04004 11.7422C4.88509 11.487 4.80762 11.2591 4.80762 11.0586C4.80762 10.694 4.90104 10.4069 5.08789 10.1973C5.27474 9.98307 5.50944 9.87598 5.79199 9.87598C6.20671 9.87598 6.49382 10.0651 6.65332 10.4434C6.69889 10.5573 6.72168 10.6781 6.72168 10.8057C6.72168 11.1292 6.58724 11.3867 6.31836 11.5781C6.5599 12.043 7.05892 12.2754 7.81543 12.2754C8.38509 12.2754 8.87728 12.0931 9.29199 11.7285C9.71126 11.3639 9.9209 10.8376 9.9209 10.1494C9.9209 9.64355 9.72038 9.19466 9.31934 8.80273C8.91829 8.41081 8.41927 8.21484 7.82227 8.21484H7.23438V7.25781H7.60352C8.20508 7.25781 8.69499 7.06413 9.07324 6.67676C9.45605 6.28483 9.64746 5.79492 9.64746 5.20703C9.64746 4.61458 9.4834 4.17708 9.15527 3.89453C8.82715 3.61198 8.42155 3.4707 7.93848 3.4707C7.4554 3.4707 7.07259 3.62109 6.79004 3.92188C6.68978 4.02214 6.6123 4.1429 6.55762 4.28418Z" fill="#C50000"/>
<path d="M52.5576 76.2842C52.8538 76.4574 53.002 76.7376 53.002 77.125C53.002 77.5078 52.8151 77.7767 52.4414 77.9316C52.3275 77.9818 52.2021 78.0068 52.0654 78.0068C51.8011 78.0068 51.5801 77.9066 51.4023 77.7061C51.2292 77.501 51.1426 77.2549 51.1426 76.9678C51.1426 76.3844 51.4365 75.8467 52.0244 75.3545C52.6123 74.8577 53.3392 74.6094 54.2051 74.6094C55.0755 74.6094 55.8115 74.8464 56.4131 75.3203C57.0192 75.7943 57.3223 76.4368 57.3223 77.248C57.3223 78.0592 56.96 78.7383 56.2354 79.2852C56.0348 79.4355 55.832 79.5632 55.627 79.668C56.2012 79.873 56.6729 80.2012 57.042 80.6523C57.4111 81.1035 57.5957 81.5775 57.5957 82.0742C57.5957 83.013 57.2493 83.7581 56.5566 84.3096C55.8685 84.861 55.0459 85.1367 54.0889 85.1367C53.1318 85.1367 52.3343 84.902 51.6963 84.4326C51.4137 84.2275 51.195 83.9974 51.04 83.7422C50.8851 83.487 50.8076 83.2591 50.8076 83.0586C50.8076 82.694 50.901 82.4069 51.0879 82.1973C51.2747 81.9831 51.5094 81.876 51.792 81.876C52.2067 81.876 52.4938 82.0651 52.6533 82.4434C52.6989 82.5573 52.7217 82.6781 52.7217 82.8057C52.7217 83.1292 52.5872 83.3867 52.3184 83.5781C52.5599 84.043 53.0589 84.2754 53.8154 84.2754C54.3851 84.2754 54.8773 84.0931 55.292 83.7285C55.7113 83.3639 55.9209 82.8376 55.9209 82.1494C55.9209 81.6436 55.7204 81.1947 55.3193 80.8027C54.9183 80.4108 54.4193 80.2148 53.8223 80.2148H53.2344V79.2578H53.6035C54.2051 79.2578 54.695 79.0641 55.0732 78.6768C55.4561 78.2848 55.6475 77.7949 55.6475 77.207C55.6475 76.6146 55.4834 76.1771 55.1553 75.8945C54.8271 75.612 54.4215 75.4707 53.9385 75.4707C53.4554 75.4707 53.0726 75.6211 52.79 75.9219C52.6898 76.0221 52.6123 76.1429 52.5576 76.2842Z" fill="#C50000"/>
<path d="M30.9297 34.502C31.7734 35.9668 32.9688 37.7598 34.5156 39.8809C36.0742 41.9902 37.5684 43.8477 38.998 45.4531C38.2012 46.2734 36.9062 47.8789 35.1133 50.2695C33.3203 52.6484 31.9375 54.7051 30.9648 56.4395C30.5312 55.6074 29.7695 54.4297 28.6797 52.9062C27.6016 51.3711 26.6289 50.0469 25.7617 48.9336C24.8945 47.8086 23.9629 46.6484 22.9668 45.4531C24.3262 43.8477 25.7617 42.0371 27.2734 40.0215C28.7969 37.9941 30.0156 36.1543 30.9297 34.502Z" fill="#C50000"/>
<path d="M7.97461 15.2368C8.2793 15.7658 8.71094 16.4132 9.26953 17.1792C9.83236 17.9409 10.3719 18.6117 10.8882 19.1914C10.6004 19.4876 10.1328 20.0674 9.48535 20.9307C8.83789 21.7897 8.33854 22.5324 7.9873 23.1587C7.83073 22.8582 7.55566 22.4329 7.16211 21.8828C6.77279 21.3285 6.42155 20.8503 6.1084 20.4482C5.79525 20.042 5.45882 19.623 5.09912 19.1914C5.59001 18.6117 6.1084 17.9578 6.6543 17.23C7.20443 16.4979 7.64453 15.8335 7.97461 15.2368Z" fill="#C50000"/>
<path d="M54.9746 64.2368C55.2793 64.7658 55.7109 65.4132 56.2695 66.1792C56.8324 66.9409 57.3719 67.6117 57.8882 68.1914C57.6004 68.4876 57.1328 69.0674 56.4854 69.9307C55.8379 70.7897 55.3385 71.5324 54.9873 72.1587C54.8307 71.8582 54.5557 71.4329 54.1621 70.8828C53.7728 70.3285 53.4215 69.8503 53.1084 69.4482C52.7952 69.042 52.4588 68.623 52.0991 68.1914C52.59 67.6117 53.1084 66.9578 53.6543 66.23C54.2044 65.4979 54.6445 64.8335 54.9746 64.2368Z" fill="#C50000"/>
<defs>
<linearGradient id="paint0_linear" x1="31" y1="0" x2="31" y2="88" gradientUnits="userSpaceOnUse">
<stop stop-color="white"/>
<stop offset="1" stop-color="#EEEEEE"/>
</linearGradient>
</defs>
</svg>
