<svg width="62" height="88" viewBox="0 0 62 88" fill="none" xmlns="http://www.w3.org/2000/svg">
<rect width="62" height="88" fill="url(#paint0_linear)"/>
<path d="M6.55762 4.28418C6.85384 4.45736 7.00195 4.73763 7.00195 5.125C7.00195 5.50781 6.8151 5.77669 6.44141 5.93164C6.32747 5.98177 6.20215 6.00684 6.06543 6.00684C5.80111 6.00684 5.58008 5.90658 5.40234 5.70605C5.22917 5.50098 5.14258 5.25488 5.14258 4.96777C5.14258 4.38444 5.43652 3.84668 6.02441 3.35449C6.6123 2.85775 7.33919 2.60938 8.20508 2.60938C9.07552 2.60938 9.81152 2.84635 10.4131 3.32031C11.0192 3.79427 11.3223 4.43685 11.3223 5.24805C11.3223 6.05924 10.96 6.73828 10.2354 7.28516C10.0348 7.43555 9.83203 7.56315 9.62695 7.66797C10.2012 7.87305 10.6729 8.20117 11.042 8.65234C11.4111 9.10352 11.5957 9.57747 11.5957 10.0742C11.5957 11.013 11.2493 11.7581 10.5566 12.3096C9.86849 12.861 9.0459 13.1367 8.08887 13.1367C7.13184 13.1367 6.33431 12.902 5.69629 12.4326C5.41374 12.2275 5.19499 11.9974 5.04004 11.7422C4.88509 11.487 4.80762 11.2591 4.80762 11.0586C4.80762 10.694 4.90104 10.4069 5.08789 10.1973C5.27474 9.98307 5.50944 9.87598 5.79199 9.87598C6.20671 9.87598 6.49382 10.0651 6.65332 10.4434C6.69889 10.5573 6.72168 10.6781 6.72168 10.8057C6.72168 11.1292 6.58724 11.3867 6.31836 11.5781C6.5599 12.043 7.05892 12.2754 7.81543 12.2754C8.38509 12.2754 8.87728 12.0931 9.29199 11.7285C9.71126 11.3639 9.9209 10.8376 9.9209 10.1494C9.9209 9.64355 9.72038 9.19466 9.31934 8.80273C8.91829 8.41081 8.41927 8.21484 7.82227 8.21484H7.23438V7.25781H7.60352C8.20508 7.25781 8.69499 7.06413 9.07324 6.67676C9.45605 6.28483 9.64746 5.79492 9.64746 5.20703C9.64746 4.61458 9.4834 4.17708 9.15527 3.89453C8.82715 3.61198 8.42155 3.4707 7.93848 3.4707C7.4554 3.4707 7.07259 3.62109 6.79004 3.92188C6.68978 4.02214 6.6123 4.1429 6.55762 4.28418Z" fill="black"/>
<path d="M52.5576 76.2842C52.8538 76.4574 53.002 76.7376 53.002 77.125C53.002 77.5078 52.8151 77.7767 52.4414 77.9316C52.3275 77.9818 52.2021 78.0068 52.0654 78.0068C51.8011 78.0068 51.5801 77.9066 51.4023 77.7061C51.2292 77.501 51.1426 77.2549 51.1426 76.9678C51.1426 76.3844 51.4365 75.8467 52.0244 75.3545C52.6123 74.8577 53.3392 74.6094 54.2051 74.6094C55.0755 74.6094 55.8115 74.8464 56.4131 75.3203C57.0192 75.7943 57.3223 76.4368 57.3223 77.248C57.3223 78.0592 56.96 78.7383 56.2354 79.2852C56.0348 79.4355 55.832 79.5632 55.627 79.668C56.2012 79.873 56.6729 80.2012 57.042 80.6523C57.4111 81.1035 57.5957 81.5775 57.5957 82.0742C57.5957 83.013 57.2493 83.7581 56.5566 84.3096C55.8685 84.861 55.0459 85.1367 54.0889 85.1367C53.1318 85.1367 52.3343 84.902 51.6963 84.4326C51.4137 84.2275 51.195 83.9974 51.04 83.7422C50.8851 83.487 50.8076 83.2591 50.8076 83.0586C50.8076 82.694 50.901 82.4069 51.0879 82.1973C51.2747 81.9831 51.5094 81.876 51.792 81.876C52.2067 81.876 52.4938 82.0651 52.6533 82.4434C52.6989 82.5573 52.7217 82.6781 52.7217 82.8057C52.7217 83.1292 52.5872 83.3867 52.3184 83.5781C52.5599 84.043 53.0589 84.2754 53.8154 84.2754C54.3851 84.2754 54.8773 84.0931 55.292 83.7285C55.7113 83.3639 55.9209 82.8376 55.9209 82.1494C55.9209 81.6436 55.7204 81.1947 55.3193 80.8027C54.9183 80.4108 54.4193 80.2148 53.8223 80.2148H53.2344V79.2578H53.6035C54.2051 79.2578 54.695 79.0641 55.0732 78.6768C55.4561 78.2848 55.6475 77.7949 55.6475 77.207C55.6475 76.6146 55.4834 76.1771 55.1553 75.8945C54.8271 75.612 54.4215 75.4707 53.9385 75.4707C53.4554 75.4707 53.0726 75.6211 52.79 75.9219C52.6898 76.0221 52.6123 76.1429 52.5576 76.2842Z" fill="black"/>
<path d="M38.418 56H23.6172L23.7578 55.3848C25.3398 55.0684 26.4766 54.752 27.168 54.4355C27.8711 54.1191 28.498 53.6094 29.0488 52.9062C29.6113 52.2031 30.0449 51.418 30.3496 50.5508C30.666 49.6719 30.8242 48.7871 30.8242 47.8965L30.7891 47.0703C30.1211 48.4766 29.2656 49.5254 28.2227 50.2168C27.1797 50.9082 26.1367 51.2539 25.0938 51.2539C24.1914 51.2539 23.3594 51.0312 22.5977 50.5859C21.8477 50.1406 21.2676 49.5488 20.8574 48.8105C20.4473 48.0723 20.2422 47.252 20.2422 46.3496C20.2422 45.002 20.6699 43.8652 21.5254 42.9395C22.3809 42.0137 23.3535 41.5449 24.4434 41.5332C25.1699 41.5332 26.1191 41.832 27.291 42.4297C26.8457 41.668 26.5234 41.0527 26.3242 40.584C26.1953 40.1504 26.1309 39.7109 26.1309 39.2656C26.1309 37.8477 26.6055 36.6992 27.5547 35.8203C28.5039 34.9414 29.6406 34.502 30.9648 34.502C32.3242 34.502 33.4727 34.9707 34.4102 35.9082C35.3477 36.8457 35.8164 37.9414 35.8164 39.1953C35.8164 40.2031 35.4121 41.2812 34.6035 42.4297C35.5879 41.9609 36.1738 41.709 36.3613 41.6738C36.6191 41.5801 36.9766 41.5332 37.4336 41.5332C38.6641 41.5332 39.6777 41.9902 40.4746 42.9043C41.3301 43.7949 41.7578 44.9199 41.7578 46.2793C41.7578 47.6387 41.3008 48.8047 40.3867 49.7773C39.4727 50.7383 38.3359 51.2188 36.9766 51.2188C36.3203 51.2188 35.6465 51.0781 34.9551 50.7969C34.2637 50.5039 33.6367 50.1172 33.0742 49.6367C32.5234 49.1562 31.8906 48.3008 31.1758 47.0703C31.2344 48.5469 31.4043 49.7363 31.6855 50.6387C31.9785 51.5293 32.4414 52.3262 33.0742 53.0293C33.7188 53.7324 34.4102 54.2422 35.1484 54.5586C35.8984 54.8633 36.9414 55.1387 38.2773 55.3848L38.418 56Z" fill="black"/>
<path d="M10.6787 23H5.33398L5.38477 22.7778C5.95605 22.6636 6.36654 22.5493 6.61621 22.4351C6.87012 22.3208 7.09652 22.1367 7.29541 21.8828C7.49854 21.6289 7.65511 21.3454 7.76514 21.0322C7.87939 20.7148 7.93652 20.3953 7.93652 20.0737L7.92383 19.7754C7.68262 20.2832 7.3737 20.6619 6.99707 20.9116C6.62044 21.1613 6.24382 21.2861 5.86719 21.2861C5.54134 21.2861 5.24089 21.2057 4.96582 21.0449C4.69499 20.8841 4.48551 20.6704 4.3374 20.4038C4.18929 20.1372 4.11523 19.841 4.11523 19.5151C4.11523 19.0285 4.26969 18.618 4.57861 18.2837C4.88753 17.9494 5.23877 17.7801 5.63232 17.7759C5.89469 17.7759 6.23747 17.8838 6.66064 18.0996C6.49984 17.8245 6.38346 17.6024 6.31152 17.4331C6.26497 17.2765 6.2417 17.1178 6.2417 16.957C6.2417 16.445 6.41309 16.0303 6.75586 15.7129C7.09863 15.3955 7.50911 15.2368 7.9873 15.2368C8.47819 15.2368 8.8929 15.4061 9.23145 15.7446C9.56999 16.0832 9.73926 16.4788 9.73926 16.9316C9.73926 17.2956 9.59326 17.6849 9.30127 18.0996C9.65674 17.9303 9.86833 17.8394 9.93604 17.8267C10.0291 17.7928 10.1582 17.7759 10.3232 17.7759C10.7676 17.7759 11.1336 17.9409 11.4214 18.271C11.7303 18.5926 11.8848 18.9989 11.8848 19.4897C11.8848 19.9806 11.7197 20.4017 11.3896 20.7529C11.0596 21.0999 10.6491 21.2734 10.1582 21.2734C9.92122 21.2734 9.6779 21.2227 9.42822 21.1211C9.17855 21.0153 8.95215 20.8757 8.74902 20.7021C8.55013 20.5286 8.32161 20.2197 8.06348 19.7754C8.08464 20.3086 8.146 20.7381 8.24756 21.064C8.35335 21.3856 8.52051 21.6733 8.74902 21.9272C8.98177 22.1812 9.23145 22.3652 9.49805 22.4795C9.76888 22.5895 10.1455 22.689 10.6279 22.7778L10.6787 23Z" fill="black"/>
<path d="M57.6787 72H52.334L52.3848 71.7778C52.9561 71.6636 53.3665 71.5493 53.6162 71.4351C53.8701 71.3208 54.0965 71.1367 54.2954 70.8828C54.4985 70.6289 54.6551 70.3454 54.7651 70.0322C54.8794 69.7148 54.9365 69.3953 54.9365 69.0737L54.9238 68.7754C54.6826 69.2832 54.3737 69.6619 53.9971 69.9116C53.6204 70.1613 53.2438 70.2861 52.8672 70.2861C52.5413 70.2861 52.2409 70.2057 51.9658 70.0449C51.695 69.8841 51.4855 69.6704 51.3374 69.4038C51.1893 69.1372 51.1152 68.841 51.1152 68.5151C51.1152 68.0285 51.2697 67.618 51.5786 67.2837C51.8875 66.9494 52.2388 66.7801 52.6323 66.7759C52.8947 66.7759 53.2375 66.8838 53.6606 67.0996C53.4998 66.8245 53.3835 66.6024 53.3115 66.4331C53.265 66.2765 53.2417 66.1178 53.2417 65.957C53.2417 65.445 53.4131 65.0303 53.7559 64.7129C54.0986 64.3955 54.5091 64.2368 54.9873 64.2368C55.4782 64.2368 55.8929 64.4061 56.2314 64.7446C56.57 65.0832 56.7393 65.4788 56.7393 65.9316C56.7393 66.2956 56.5933 66.6849 56.3013 67.0996C56.6567 66.9303 56.8683 66.8394 56.936 66.8267C57.0291 66.7928 57.1582 66.7759 57.3232 66.7759C57.7676 66.7759 58.1336 66.9409 58.4214 67.271C58.7303 67.5926 58.8848 67.9989 58.8848 68.4897C58.8848 68.9806 58.7197 69.4017 58.3896 69.7529C58.0596 70.0999 57.6491 70.2734 57.1582 70.2734C56.9212 70.2734 56.6779 70.2227 56.4282 70.1211C56.1785 70.0153 55.9521 69.8757 55.749 69.7021C55.5501 69.5286 55.3216 69.2197 55.0635 68.7754C55.0846 69.3086 55.146 69.7381 55.2476 70.064C55.3534 70.3856 55.5205 70.6733 55.749 70.9272C55.9818 71.1812 56.2314 71.3652 56.498 71.4795C56.7689 71.5895 57.1455 71.689 57.6279 71.7778L57.6787 72Z" fill="black"/>
<defs>
<linearGradient id="paint0_linear" x1="31" y1="0" x2="31" y2="88" gradientUnits="userSpaceOnUse">
<stop stop-color="white"/>
<stop offset="1" stop-color="#EEEEEE"/>
</linearGradient>
</defs>
</svg>
