<svg width="62" height="88" viewBox="0 0 62 88" fill="none" xmlns="http://www.w3.org/2000/svg">
<rect width="62" height="88" fill="url(#paint0_linear)"/>
<path d="M4.22656 9.22656L9.03223 2.74609H10.2627V8.83008C10.2627 9.07617 10.3311 9.20833 10.4678 9.22656C10.5179 9.23568 10.5749 9.24023 10.6387 9.24023H11.7188V10.0537H10.6045C10.4632 10.0537 10.3698 10.0833 10.3242 10.1426C10.2832 10.1973 10.2627 10.3135 10.2627 10.4912V11.5439C10.2627 11.8311 10.3219 12.0088 10.4404 12.0771C10.641 12.2002 11.0146 12.2617 11.5615 12.2617V13H7.19336V12.2617C7.89974 12.2617 8.32129 12.2275 8.45801 12.1592C8.59928 12.0863 8.68359 11.9997 8.71094 11.8994C8.74284 11.7946 8.75879 11.6556 8.75879 11.4824V10.0537H4.72559L4.22656 9.22656ZM8.75195 9.24023L8.75879 9.43848V4.74902L5.48438 9.24023H8.75195Z" fill="#C50000"/>
<path d="M50.2266 81.2266L55.0322 74.7461H56.2627V80.8301C56.2627 81.0762 56.3311 81.2083 56.4678 81.2266C56.5179 81.2357 56.5749 81.2402 56.6387 81.2402H57.7188V82.0537H56.6045C56.4632 82.0537 56.3698 82.0833 56.3242 82.1426C56.2832 82.1973 56.2627 82.3135 56.2627 82.4912V83.5439C56.2627 83.8311 56.3219 84.0088 56.4404 84.0771C56.641 84.2002 57.0146 84.2617 57.5615 84.2617V85H53.1934V84.2617C53.8997 84.2617 54.3213 84.2275 54.458 84.1592C54.5993 84.0863 54.6836 83.9997 54.7109 83.8994C54.7428 83.7946 54.7588 83.6556 54.7588 83.4824V82.0537H50.7256L50.2266 81.2266ZM54.752 81.2402L54.7588 81.4385V76.749L51.4844 81.2402H54.752Z" fill="#C50000"/>
<path d="M30.9297 34.502C31.7734 35.9668 32.9688 37.7598 34.5156 39.8809C36.0742 41.9902 37.5684 43.8477 38.998 45.4531C38.2012 46.2734 36.9062 47.8789 35.1133 50.2695C33.3203 52.6484 31.9375 54.7051 30.9648 56.4395C30.5312 55.6074 29.7695 54.4297 28.6797 52.9062C27.6016 51.3711 26.6289 50.0469 25.7617 48.9336C24.8945 47.8086 23.9629 46.6484 22.9668 45.4531C24.3262 43.8477 25.7617 42.0371 27.2734 40.0215C28.7969 37.9941 30.0156 36.1543 30.9297 34.502Z" fill="#C50000"/>
<path d="M7.97461 15.2368C8.2793 15.7658 8.71094 16.4132 9.26953 17.1792C9.83236 17.9409 10.3719 18.6117 10.8882 19.1914C10.6004 19.4876 10.1328 20.0674 9.48535 20.9307C8.83789 21.7897 8.33854 22.5324 7.9873 23.1587C7.83073 22.8582 7.55566 22.4329 7.16211 21.8828C6.77279 21.3285 6.42155 20.8503 6.1084 20.4482C5.79525 20.042 5.45882 19.623 5.09912 19.1914C5.59001 18.6117 6.1084 17.9578 6.6543 17.23C7.20443 16.4979 7.64453 15.8335 7.97461 15.2368Z" fill="#C50000"/>
<path d="M54.9746 64.2368C55.2793 64.7658 55.7109 65.4132 56.2695 66.1792C56.8324 66.9409 57.3719 67.6117 57.8882 68.1914C57.6004 68.4876 57.1328 69.0674 56.4854 69.9307C55.8379 70.7897 55.3385 71.5324 54.9873 72.1587C54.8307 71.8582 54.5557 71.4329 54.1621 70.8828C53.7728 70.3285 53.4215 69.8503 53.1084 69.4482C52.7952 69.042 52.4588 68.623 52.0991 68.1914C52.59 67.6117 53.1084 66.9578 53.6543 66.23C54.2044 65.4979 54.6445 64.8335 54.9746 64.2368Z" fill="#C50000"/>
<defs>
<linearGradient id="paint0_linear" x1="31" y1="0" x2="31" y2="88" gradientUnits="userSpaceOnUse">
<stop stop-color="white"/>
<stop offset="1" stop-color="#EEEEEE"/>
</linearGradient>
</defs>
</svg>
