<svg width="62" height="88" viewBox="0 0 62 88" fill="none" xmlns="http://www.w3.org/2000/svg">
<rect width="62" height="88" fill="url(#paint0_linear)"/>
<path d="M4.22656 9.22656L9.03223 2.74609H10.2627V8.83008C10.2627 9.07617 10.3311 9.20833 10.4678 9.22656C10.5179 9.23568 10.5749 9.24023 10.6387 9.24023H11.7188V10.0537H10.6045C10.4632 10.0537 10.3698 10.0833 10.3242 10.1426C10.2832 10.1973 10.2627 10.3135 10.2627 10.4912V11.5439C10.2627 11.8311 10.3219 12.0088 10.4404 12.0771C10.641 12.2002 11.0146 12.2617 11.5615 12.2617V13H7.19336V12.2617C7.89974 12.2617 8.32129 12.2275 8.45801 12.1592C8.59928 12.0863 8.68359 11.9997 8.71094 11.8994C8.74284 11.7946 8.75879 11.6556 8.75879 11.4824V10.0537H4.72559L4.22656 9.22656ZM8.75195 9.24023L8.75879 9.43848V4.74902L5.48438 9.24023H8.75195Z" fill="#C50000"/>
<path d="M50.2266 81.2266L55.0322 74.7461H56.2627V80.8301C56.2627 81.0762 56.3311 81.2083 56.4678 81.2266C56.5179 81.2357 56.5749 81.2402 56.6387 81.2402H57.7188V82.0537H56.6045C56.4632 82.0537 56.3698 82.0833 56.3242 82.1426C56.2832 82.1973 56.2627 82.3135 56.2627 82.4912V83.5439C56.2627 83.8311 56.3219 84.0088 56.4404 84.0771C56.641 84.2002 57.0146 84.2617 57.5615 84.2617V85H53.1934V84.2617C53.8997 84.2617 54.3213 84.2275 54.458 84.1592C54.5993 84.0863 54.6836 83.9997 54.7109 83.8994C54.7428 83.7946 54.7588 83.6556 54.7588 83.4824V82.0537H50.7256L50.2266 81.2266ZM54.752 81.2402L54.7588 81.4385V76.749L51.4844 81.2402H54.752Z" fill="#C50000"/>
<path d="M31.0352 56.4043C30.7773 55.3965 30.3789 54.3594 29.8398 53.293C29.3125 52.2266 28.0176 50.3105 25.9551 47.5449L24.373 45.3828C23.4941 44.2109 22.8965 43.25 22.5801 42.5C22.2637 41.7383 22.1055 40.9707 22.1055 40.1973C22.1055 38.9434 22.5098 37.918 23.3184 37.1211C24.1387 36.3125 25.1406 35.9082 26.3242 35.9082C27.3438 35.9082 28.2695 36.2422 29.1016 36.9102C29.9453 37.5781 30.5898 38.6152 31.0352 40.0215C31.4336 38.627 32.0488 37.5898 32.8809 36.9102C33.7129 36.2188 34.6445 35.873 35.6758 35.873C36.8125 35.873 37.7969 36.2715 38.6289 37.0684C39.4727 37.8652 39.8945 38.8379 39.8945 39.9863C39.8945 40.9941 39.6367 42.0547 39.1211 43.168C38.6055 44.2812 37.6973 45.6406 36.3965 47.2461C34.7559 49.3438 33.5547 51.0195 32.793 52.2734C32.043 53.5156 31.457 54.8926 31.0352 56.4043Z" fill="#C50000"/>
<path d="M8.0127 23.146C7.9196 22.7821 7.77572 22.4076 7.58105 22.0225C7.39062 21.6374 6.92301 20.9455 6.17822 19.9468L5.60693 19.166C5.28955 18.7428 5.07373 18.3958 4.95947 18.125C4.84521 17.8499 4.78809 17.5728 4.78809 17.2935C4.78809 16.8407 4.93408 16.4704 5.22607 16.1826C5.5223 15.8906 5.88411 15.7446 6.31152 15.7446C6.67969 15.7446 7.014 15.8652 7.31445 16.1064C7.61914 16.3477 7.85189 16.7222 8.0127 17.23C8.15658 16.7264 8.37874 16.3519 8.6792 16.1064C8.97965 15.8568 9.31608 15.7319 9.68848 15.7319C10.099 15.7319 10.4544 15.8758 10.7549 16.1636C11.0596 16.4513 11.2119 16.8026 11.2119 17.2173C11.2119 17.5812 11.1188 17.9642 10.9326 18.3662C10.7464 18.7682 10.4185 19.2591 9.94873 19.8389C9.35628 20.5964 8.92253 21.2015 8.64746 21.6543C8.37663 22.1029 8.16504 22.6001 8.0127 23.146Z" fill="#C50000"/>
<path d="M55.0127 72.146C54.9196 71.7821 54.7757 71.4076 54.5811 71.0225C54.3906 70.6374 53.923 69.9455 53.1782 68.9468L52.6069 68.166C52.2896 67.7428 52.0737 67.3958 51.9595 67.125C51.8452 66.8499 51.7881 66.5728 51.7881 66.2935C51.7881 65.8407 51.9341 65.4704 52.2261 65.1826C52.5223 64.8906 52.8841 64.7446 53.3115 64.7446C53.6797 64.7446 54.014 64.8652 54.3145 65.1064C54.6191 65.3477 54.8519 65.7222 55.0127 66.23C55.1566 65.7264 55.3787 65.3519 55.6792 65.1064C55.9797 64.8568 56.3161 64.7319 56.6885 64.7319C57.099 64.7319 57.4544 64.8758 57.7549 65.1636C58.0596 65.4513 58.2119 65.8026 58.2119 66.2173C58.2119 66.5812 58.1188 66.9642 57.9326 67.3662C57.7464 67.7682 57.4185 68.2591 56.9487 68.8389C56.3563 69.5964 55.9225 70.2015 55.6475 70.6543C55.3766 71.1029 55.165 71.6001 55.0127 72.146Z" fill="#C50000"/>
<defs>
<linearGradient id="paint0_linear" x1="31" y1="0" x2="31" y2="88" gradientUnits="userSpaceOnUse">
<stop stop-color="white"/>
<stop offset="1" stop-color="#EEEEEE"/>
</linearGradient>
</defs>
</svg>
