<svg width="62" height="88" viewBox="0 0 62 88" fill="none" xmlns="http://www.w3.org/2000/svg">
<rect width="62" height="88" fill="url(#paint0_linear)"/>
<path d="M6.07227 8.33105L4.9375 8.30371L5.48438 2.74609H11.4111C11.4157 2.79622 11.418 2.88281 11.418 3.00586C11.418 3.12891 11.3838 3.25195 11.3154 3.375C11.1742 3.61654 10.9759 3.80111 10.7207 3.92871C10.4655 4.05176 10.11 4.11328 9.6543 4.11328H6.39355L6.02441 7.23047C6.4209 6.77474 6.95182 6.4694 7.61719 6.31445C7.83594 6.25977 8.06152 6.23242 8.29395 6.23242C9.31478 6.23242 10.0941 6.55371 10.6318 7.19629C11.1696 7.83887 11.4385 8.625 11.4385 9.55469C11.4385 10.6803 11.0807 11.5599 10.3652 12.1934C9.6543 12.8223 8.82031 13.1367 7.86328 13.1367C6.91081 13.1367 6.13607 12.9134 5.53906 12.4668C4.94661 12.0202 4.65039 11.5394 4.65039 11.0244C4.65039 10.5049 4.84635 10.1517 5.23828 9.96484C5.35677 9.9056 5.48438 9.87598 5.62109 9.87598C5.89909 9.87598 6.12467 9.96712 6.29785 10.1494C6.47559 10.3317 6.56445 10.571 6.56445 10.8672C6.56445 11.1634 6.42773 11.4027 6.1543 11.585C6.40039 12.0908 6.90169 12.3438 7.6582 12.3438C8.22331 12.3438 8.7041 12.1182 9.10059 11.667C9.49707 11.2113 9.69531 10.5983 9.69531 9.82812C9.69531 9.05794 9.53353 8.44954 9.20996 8.00293C8.89095 7.55176 8.40104 7.32617 7.74023 7.32617C7.08398 7.32617 6.52799 7.66113 6.07227 8.33105Z" fill="#C50000"/>
<path d="M52.0723 80.3311L50.9375 80.3037L51.4844 74.7461H57.4111C57.4157 74.7962 57.418 74.8828 57.418 75.0059C57.418 75.1289 57.3838 75.252 57.3154 75.375C57.1742 75.6165 56.9759 75.8011 56.7207 75.9287C56.4655 76.0518 56.11 76.1133 55.6543 76.1133H52.3936L52.0244 79.2305C52.4209 78.7747 52.9518 78.4694 53.6172 78.3145C53.8359 78.2598 54.0615 78.2324 54.2939 78.2324C55.3148 78.2324 56.0941 78.5537 56.6318 79.1963C57.1696 79.8389 57.4385 80.625 57.4385 81.5547C57.4385 82.6803 57.0807 83.5599 56.3652 84.1934C55.6543 84.8223 54.8203 85.1367 53.8633 85.1367C52.9108 85.1367 52.1361 84.9134 51.5391 84.4668C50.9466 84.0202 50.6504 83.5394 50.6504 83.0244C50.6504 82.5049 50.8464 82.1517 51.2383 81.9648C51.3568 81.9056 51.4844 81.876 51.6211 81.876C51.8991 81.876 52.1247 81.9671 52.2979 82.1494C52.4756 82.3317 52.5645 82.571 52.5645 82.8672C52.5645 83.1634 52.4277 83.4027 52.1543 83.585C52.4004 84.0908 52.9017 84.3438 53.6582 84.3438C54.2233 84.3438 54.7041 84.1182 55.1006 83.667C55.4971 83.2113 55.6953 82.5983 55.6953 81.8281C55.6953 81.0579 55.5335 80.4495 55.21 80.0029C54.891 79.5518 54.401 79.3262 53.7402 79.3262C53.084 79.3262 52.528 79.6611 52.0723 80.3311Z" fill="#C50000"/>
<path d="M31.0352 56.4043C30.7773 55.3965 30.3789 54.3594 29.8398 53.293C29.3125 52.2266 28.0176 50.3105 25.9551 47.5449L24.373 45.3828C23.4941 44.2109 22.8965 43.25 22.5801 42.5C22.2637 41.7383 22.1055 40.9707 22.1055 40.1973C22.1055 38.9434 22.5098 37.918 23.3184 37.1211C24.1387 36.3125 25.1406 35.9082 26.3242 35.9082C27.3438 35.9082 28.2695 36.2422 29.1016 36.9102C29.9453 37.5781 30.5898 38.6152 31.0352 40.0215C31.4336 38.627 32.0488 37.5898 32.8809 36.9102C33.7129 36.2188 34.6445 35.873 35.6758 35.873C36.8125 35.873 37.7969 36.2715 38.6289 37.0684C39.4727 37.8652 39.8945 38.8379 39.8945 39.9863C39.8945 40.9941 39.6367 42.0547 39.1211 43.168C38.6055 44.2812 37.6973 45.6406 36.3965 47.2461C34.7559 49.3438 33.5547 51.0195 32.793 52.2734C32.043 53.5156 31.457 54.8926 31.0352 56.4043Z" fill="#C50000"/>
<path d="M8.0127 23.146C7.9196 22.7821 7.77572 22.4076 7.58105 22.0225C7.39062 21.6374 6.92301 20.9455 6.17822 19.9468L5.60693 19.166C5.28955 18.7428 5.07373 18.3958 4.95947 18.125C4.84521 17.8499 4.78809 17.5728 4.78809 17.2935C4.78809 16.8407 4.93408 16.4704 5.22607 16.1826C5.5223 15.8906 5.88411 15.7446 6.31152 15.7446C6.67969 15.7446 7.014 15.8652 7.31445 16.1064C7.61914 16.3477 7.85189 16.7222 8.0127 17.23C8.15658 16.7264 8.37874 16.3519 8.6792 16.1064C8.97965 15.8568 9.31608 15.7319 9.68848 15.7319C10.099 15.7319 10.4544 15.8758 10.7549 16.1636C11.0596 16.4513 11.2119 16.8026 11.2119 17.2173C11.2119 17.5812 11.1188 17.9642 10.9326 18.3662C10.7464 18.7682 10.4185 19.2591 9.94873 19.8389C9.35628 20.5964 8.92253 21.2015 8.64746 21.6543C8.37663 22.1029 8.16504 22.6001 8.0127 23.146Z" fill="#C50000"/>
<path d="M55.0127 72.146C54.9196 71.7821 54.7757 71.4076 54.5811 71.0225C54.3906 70.6374 53.923 69.9455 53.1782 68.9468L52.6069 68.166C52.2896 67.7428 52.0737 67.3958 51.9595 67.125C51.8452 66.8499 51.7881 66.5728 51.7881 66.2935C51.7881 65.8407 51.9341 65.4704 52.2261 65.1826C52.5223 64.8906 52.8841 64.7446 53.3115 64.7446C53.6797 64.7446 54.014 64.8652 54.3145 65.1064C54.6191 65.3477 54.8519 65.7222 55.0127 66.23C55.1566 65.7264 55.3787 65.3519 55.6792 65.1064C55.9797 64.8568 56.3161 64.7319 56.6885 64.7319C57.099 64.7319 57.4544 64.8758 57.7549 65.1636C58.0596 65.4513 58.2119 65.8026 58.2119 66.2173C58.2119 66.5812 58.1188 66.9642 57.9326 67.3662C57.7464 67.7682 57.4185 68.2591 56.9487 68.8389C56.3563 69.5964 55.9225 70.2015 55.6475 70.6543C55.3766 71.1029 55.165 71.6001 55.0127 72.146Z" fill="#C50000"/>
<defs>
<linearGradient id="paint0_linear" x1="31" y1="0" x2="31" y2="88" gradientUnits="userSpaceOnUse">
<stop stop-color="white"/>
<stop offset="1" stop-color="#EEEEEE"/>
</linearGradient>
</defs>
</svg>
