<svg width="62" height="88" viewBox="0 0 62 88" fill="none" xmlns="http://www.w3.org/2000/svg">
<rect width="62" height="88" fill="url(#paint0_linear)"/>
<path d="M6.07227 8.33105L4.9375 8.30371L5.48438 2.74609H11.4111C11.4157 2.79622 11.418 2.88281 11.418 3.00586C11.418 3.12891 11.3838 3.25195 11.3154 3.375C11.1742 3.61654 10.9759 3.80111 10.7207 3.92871C10.4655 4.05176 10.11 4.11328 9.6543 4.11328H6.39355L6.02441 7.23047C6.4209 6.77474 6.95182 6.4694 7.61719 6.31445C7.83594 6.25977 8.06152 6.23242 8.29395 6.23242C9.31478 6.23242 10.0941 6.55371 10.6318 7.19629C11.1696 7.83887 11.4385 8.625 11.4385 9.55469C11.4385 10.6803 11.0807 11.5599 10.3652 12.1934C9.6543 12.8223 8.82031 13.1367 7.86328 13.1367C6.91081 13.1367 6.13607 12.9134 5.53906 12.4668C4.94661 12.0202 4.65039 11.5394 4.65039 11.0244C4.65039 10.5049 4.84635 10.1517 5.23828 9.96484C5.35677 9.9056 5.48438 9.87598 5.62109 9.87598C5.89909 9.87598 6.12467 9.96712 6.29785 10.1494C6.47559 10.3317 6.56445 10.571 6.56445 10.8672C6.56445 11.1634 6.42773 11.4027 6.1543 11.585C6.40039 12.0908 6.90169 12.3438 7.6582 12.3438C8.22331 12.3438 8.7041 12.1182 9.10059 11.667C9.49707 11.2113 9.69531 10.5983 9.69531 9.82812C9.69531 9.05794 9.53353 8.44954 9.20996 8.00293C8.89095 7.55176 8.40104 7.32617 7.74023 7.32617C7.08398 7.32617 6.52799 7.66113 6.07227 8.33105Z" fill="black"/>
<path d="M52.0723 80.3311L50.9375 80.3037L51.4844 74.7461H57.4111C57.4157 74.7962 57.418 74.8828 57.418 75.0059C57.418 75.1289 57.3838 75.252 57.3154 75.375C57.1742 75.6165 56.9759 75.8011 56.7207 75.9287C56.4655 76.0518 56.11 76.1133 55.6543 76.1133H52.3936L52.0244 79.2305C52.4209 78.7747 52.9518 78.4694 53.6172 78.3145C53.8359 78.2598 54.0615 78.2324 54.2939 78.2324C55.3148 78.2324 56.0941 78.5537 56.6318 79.1963C57.1696 79.8389 57.4385 80.625 57.4385 81.5547C57.4385 82.6803 57.0807 83.5599 56.3652 84.1934C55.6543 84.8223 54.8203 85.1367 53.8633 85.1367C52.9108 85.1367 52.1361 84.9134 51.5391 84.4668C50.9466 84.0202 50.6504 83.5394 50.6504 83.0244C50.6504 82.5049 50.8464 82.1517 51.2383 81.9648C51.3568 81.9056 51.4844 81.876 51.6211 81.876C51.8991 81.876 52.1247 81.9671 52.2979 82.1494C52.4756 82.3317 52.5645 82.571 52.5645 82.8672C52.5645 83.1634 52.4277 83.4027 52.1543 83.585C52.4004 84.0908 52.9017 84.3438 53.6582 84.3438C54.2233 84.3438 54.7041 84.1182 55.1006 83.667C55.4971 83.2113 55.6953 82.5983 55.6953 81.8281C55.6953 81.0579 55.5335 80.4495 55.21 80.0029C54.891 79.5518 54.401 79.3262 53.7402 79.3262C53.084 79.3262 52.528 79.6611 52.0723 80.3311Z" fill="black"/>
<path d="M38.418 56H23.6172L23.7578 55.3848C25.3398 55.0684 26.4766 54.752 27.168 54.4355C27.8711 54.1191 28.498 53.6094 29.0488 52.9062C29.6113 52.2031 30.0449 51.418 30.3496 50.5508C30.666 49.6719 30.8242 48.7871 30.8242 47.8965L30.7891 47.0703C30.1211 48.4766 29.2656 49.5254 28.2227 50.2168C27.1797 50.9082 26.1367 51.2539 25.0938 51.2539C24.1914 51.2539 23.3594 51.0312 22.5977 50.5859C21.8477 50.1406 21.2676 49.5488 20.8574 48.8105C20.4473 48.0723 20.2422 47.252 20.2422 46.3496C20.2422 45.002 20.6699 43.8652 21.5254 42.9395C22.3809 42.0137 23.3535 41.5449 24.4434 41.5332C25.1699 41.5332 26.1191 41.832 27.291 42.4297C26.8457 41.668 26.5234 41.0527 26.3242 40.584C26.1953 40.1504 26.1309 39.7109 26.1309 39.2656C26.1309 37.8477 26.6055 36.6992 27.5547 35.8203C28.5039 34.9414 29.6406 34.502 30.9648 34.502C32.3242 34.502 33.4727 34.9707 34.4102 35.9082C35.3477 36.8457 35.8164 37.9414 35.8164 39.1953C35.8164 40.2031 35.4121 41.2812 34.6035 42.4297C35.5879 41.9609 36.1738 41.709 36.3613 41.6738C36.6191 41.5801 36.9766 41.5332 37.4336 41.5332C38.6641 41.5332 39.6777 41.9902 40.4746 42.9043C41.3301 43.7949 41.7578 44.9199 41.7578 46.2793C41.7578 47.6387 41.3008 48.8047 40.3867 49.7773C39.4727 50.7383 38.3359 51.2188 36.9766 51.2188C36.3203 51.2188 35.6465 51.0781 34.9551 50.7969C34.2637 50.5039 33.6367 50.1172 33.0742 49.6367C32.5234 49.1562 31.8906 48.3008 31.1758 47.0703C31.2344 48.5469 31.4043 49.7363 31.6855 50.6387C31.9785 51.5293 32.4414 52.3262 33.0742 53.0293C33.7188 53.7324 34.4102 54.2422 35.1484 54.5586C35.8984 54.8633 36.9414 55.1387 38.2773 55.3848L38.418 56Z" fill="black"/>
<path d="M10.6787 23H5.33398L5.38477 22.7778C5.95605 22.6636 6.36654 22.5493 6.61621 22.4351C6.87012 22.3208 7.09652 22.1367 7.29541 21.8828C7.49854 21.6289 7.65511 21.3454 7.76514 21.0322C7.87939 20.7148 7.93652 20.3953 7.93652 20.0737L7.92383 19.7754C7.68262 20.2832 7.3737 20.6619 6.99707 20.9116C6.62044 21.1613 6.24382 21.2861 5.86719 21.2861C5.54134 21.2861 5.24089 21.2057 4.96582 21.0449C4.69499 20.8841 4.48551 20.6704 4.3374 20.4038C4.18929 20.1372 4.11523 19.841 4.11523 19.5151C4.11523 19.0285 4.26969 18.618 4.57861 18.2837C4.88753 17.9494 5.23877 17.7801 5.63232 17.7759C5.89469 17.7759 6.23747 17.8838 6.66064 18.0996C6.49984 17.8245 6.38346 17.6024 6.31152 17.4331C6.26497 17.2765 6.2417 17.1178 6.2417 16.957C6.2417 16.445 6.41309 16.0303 6.75586 15.7129C7.09863 15.3955 7.50911 15.2368 7.9873 15.2368C8.47819 15.2368 8.8929 15.4061 9.23145 15.7446C9.56999 16.0832 9.73926 16.4788 9.73926 16.9316C9.73926 17.2956 9.59326 17.6849 9.30127 18.0996C9.65674 17.9303 9.86833 17.8394 9.93604 17.8267C10.0291 17.7928 10.1582 17.7759 10.3232 17.7759C10.7676 17.7759 11.1336 17.9409 11.4214 18.271C11.7303 18.5926 11.8848 18.9989 11.8848 19.4897C11.8848 19.9806 11.7197 20.4017 11.3896 20.7529C11.0596 21.0999 10.6491 21.2734 10.1582 21.2734C9.92122 21.2734 9.6779 21.2227 9.42822 21.1211C9.17855 21.0153 8.95215 20.8757 8.74902 20.7021C8.55013 20.5286 8.32161 20.2197 8.06348 19.7754C8.08464 20.3086 8.146 20.7381 8.24756 21.064C8.35335 21.3856 8.52051 21.6733 8.74902 21.9272C8.98177 22.1812 9.23145 22.3652 9.49805 22.4795C9.76888 22.5895 10.1455 22.689 10.6279 22.7778L10.6787 23Z" fill="black"/>
<path d="M57.6787 72H52.334L52.3848 71.7778C52.9561 71.6636 53.3665 71.5493 53.6162 71.4351C53.8701 71.3208 54.0965 71.1367 54.2954 70.8828C54.4985 70.6289 54.6551 70.3454 54.7651 70.0322C54.8794 69.7148 54.9365 69.3953 54.9365 69.0737L54.9238 68.7754C54.6826 69.2832 54.3737 69.6619 53.9971 69.9116C53.6204 70.1613 53.2438 70.2861 52.8672 70.2861C52.5413 70.2861 52.2409 70.2057 51.9658 70.0449C51.695 69.8841 51.4855 69.6704 51.3374 69.4038C51.1893 69.1372 51.1152 68.841 51.1152 68.5151C51.1152 68.0285 51.2697 67.618 51.5786 67.2837C51.8875 66.9494 52.2388 66.7801 52.6323 66.7759C52.8947 66.7759 53.2375 66.8838 53.6606 67.0996C53.4998 66.8245 53.3835 66.6024 53.3115 66.4331C53.265 66.2765 53.2417 66.1178 53.2417 65.957C53.2417 65.445 53.4131 65.0303 53.7559 64.7129C54.0986 64.3955 54.5091 64.2368 54.9873 64.2368C55.4782 64.2368 55.8929 64.4061 56.2314 64.7446C56.57 65.0832 56.7393 65.4788 56.7393 65.9316C56.7393 66.2956 56.5933 66.6849 56.3013 67.0996C56.6567 66.9303 56.8683 66.8394 56.936 66.8267C57.0291 66.7928 57.1582 66.7759 57.3232 66.7759C57.7676 66.7759 58.1336 66.9409 58.4214 67.271C58.7303 67.5926 58.8848 67.9989 58.8848 68.4897C58.8848 68.9806 58.7197 69.4017 58.3896 69.7529C58.0596 70.0999 57.6491 70.2734 57.1582 70.2734C56.9212 70.2734 56.6779 70.2227 56.4282 70.1211C56.1785 70.0153 55.9521 69.8757 55.749 69.7021C55.5501 69.5286 55.3216 69.2197 55.0635 68.7754C55.0846 69.3086 55.146 69.7381 55.2476 70.064C55.3534 70.3856 55.5205 70.6733 55.749 70.9272C55.9818 71.1812 56.2314 71.3652 56.498 71.4795C56.7689 71.5895 57.1455 71.689 57.6279 71.7778L57.6787 72Z" fill="black"/>
<defs>
<linearGradient id="paint0_linear" x1="31" y1="0" x2="31" y2="88" gradientUnits="userSpaceOnUse">
<stop stop-color="white"/>
<stop offset="1" stop-color="#EEEEEE"/>
</linearGradient>
</defs>
</svg>
