<svg width="62" height="88" viewBox="0 0 62 88" fill="none" xmlns="http://www.w3.org/2000/svg">
<rect width="62" height="88" fill="url(#paint0_linear)"/>
<path d="M6.07227 8.33105L4.9375 8.30371L5.48438 2.74609H11.4111C11.4157 2.79622 11.418 2.88281 11.418 3.00586C11.418 3.12891 11.3838 3.25195 11.3154 3.375C11.1742 3.61654 10.9759 3.80111 10.7207 3.92871C10.4655 4.05176 10.11 4.11328 9.6543 4.11328H6.39355L6.02441 7.23047C6.4209 6.77474 6.95182 6.4694 7.61719 6.31445C7.83594 6.25977 8.06152 6.23242 8.29395 6.23242C9.31478 6.23242 10.0941 6.55371 10.6318 7.19629C11.1696 7.83887 11.4385 8.625 11.4385 9.55469C11.4385 10.6803 11.0807 11.5599 10.3652 12.1934C9.6543 12.8223 8.82031 13.1367 7.86328 13.1367C6.91081 13.1367 6.13607 12.9134 5.53906 12.4668C4.94661 12.0202 4.65039 11.5394 4.65039 11.0244C4.65039 10.5049 4.84635 10.1517 5.23828 9.96484C5.35677 9.9056 5.48438 9.87598 5.62109 9.87598C5.89909 9.87598 6.12467 9.96712 6.29785 10.1494C6.47559 10.3317 6.56445 10.571 6.56445 10.8672C6.56445 11.1634 6.42773 11.4027 6.1543 11.585C6.40039 12.0908 6.90169 12.3438 7.6582 12.3438C8.22331 12.3438 8.7041 12.1182 9.10059 11.667C9.49707 11.2113 9.69531 10.5983 9.69531 9.82812C9.69531 9.05794 9.53353 8.44954 9.20996 8.00293C8.89095 7.55176 8.40104 7.32617 7.74023 7.32617C7.08398 7.32617 6.52799 7.66113 6.07227 8.33105Z" fill="black"/>
<path d="M52.0723 80.3311L50.9375 80.3037L51.4844 74.7461H57.4111C57.4157 74.7962 57.418 74.8828 57.418 75.0059C57.418 75.1289 57.3838 75.252 57.3154 75.375C57.1742 75.6165 56.9759 75.8011 56.7207 75.9287C56.4655 76.0518 56.11 76.1133 55.6543 76.1133H52.3936L52.0244 79.2305C52.4209 78.7747 52.9518 78.4694 53.6172 78.3145C53.8359 78.2598 54.0615 78.2324 54.2939 78.2324C55.3148 78.2324 56.0941 78.5537 56.6318 79.1963C57.1696 79.8389 57.4385 80.625 57.4385 81.5547C57.4385 82.6803 57.0807 83.5599 56.3652 84.1934C55.6543 84.8223 54.8203 85.1367 53.8633 85.1367C52.9108 85.1367 52.1361 84.9134 51.5391 84.4668C50.9466 84.0202 50.6504 83.5394 50.6504 83.0244C50.6504 82.5049 50.8464 82.1517 51.2383 81.9648C51.3568 81.9056 51.4844 81.876 51.6211 81.876C51.8991 81.876 52.1247 81.9671 52.2979 82.1494C52.4756 82.3317 52.5645 82.571 52.5645 82.8672C52.5645 83.1634 52.4277 83.4027 52.1543 83.585C52.4004 84.0908 52.9017 84.3438 53.6582 84.3438C54.2233 84.3438 54.7041 84.1182 55.1006 83.667C55.4971 83.2113 55.6953 82.5983 55.6953 81.8281C55.6953 81.0579 55.5335 80.4495 55.21 80.0029C54.891 79.5518 54.401 79.3262 53.7402 79.3262C53.084 79.3262 52.528 79.6611 52.0723 80.3311Z" fill="black"/>
<path d="M31 34.3613C31.293 35.4863 31.7207 36.5469 32.2832 37.543C32.8457 38.5273 34.0117 39.834 35.7812 41.4629C37.4336 42.9395 38.4648 44.0645 38.875 44.8379C39.2852 45.6113 39.502 46.4141 39.5254 47.2461C39.5254 48.3711 39.1445 49.3086 38.3828 50.0586C37.6211 50.8086 36.7305 51.1836 35.7109 51.1836C33.8711 51.1836 32.3711 50.0645 31.2109 47.8262C31.2461 49.6895 31.4922 51.1074 31.9492 52.0801C32.418 53.0527 33.127 53.8145 34.0762 54.3652C35.0371 54.916 36.291 55.2441 37.8379 55.3496L37.9785 56H24.0566L24.1621 55.3496C25.6152 55.3496 26.8457 55.0684 27.8535 54.5059C28.8613 53.9316 29.6172 53.1406 30.1211 52.1328C30.6367 51.125 30.8945 49.7715 30.8945 48.0723V47.8262C29.8398 50.0645 28.3164 51.1836 26.3242 51.1836C25.2812 51.1836 24.3789 50.8086 23.6172 50.0586C22.8555 49.3086 22.4746 48.3945 22.4746 47.3164C22.4746 46.2734 22.7324 45.3535 23.248 44.5566C23.7754 43.7598 24.6191 42.8809 25.7793 41.9199C27.4082 40.5254 28.6094 39.2832 29.3828 38.1934C30.1562 37.1035 30.6953 35.8262 31 34.3613Z" fill="black"/>
<path d="M8 15.186C8.10579 15.5923 8.26025 15.9753 8.46338 16.335C8.6665 16.6904 9.08757 17.1623 9.72656 17.7505C10.3232 18.2837 10.6956 18.6899 10.8438 18.9692C10.9919 19.2485 11.0701 19.5384 11.0786 19.8389C11.0786 20.2451 10.9411 20.5837 10.666 20.8545C10.391 21.1253 10.0693 21.2607 9.70117 21.2607C9.03678 21.2607 8.49512 20.8566 8.07617 20.0483C8.08887 20.7212 8.17773 21.2332 8.34277 21.5845C8.51204 21.9357 8.76807 22.2108 9.11084 22.4097C9.45785 22.6086 9.91064 22.7271 10.4692 22.7651L10.52 23H5.49268L5.53076 22.7651C6.0555 22.7651 6.49984 22.6636 6.86377 22.4604C7.2277 22.2531 7.50065 21.9674 7.68262 21.6035C7.86882 21.2396 7.96191 20.7508 7.96191 20.1372V20.0483C7.58105 20.8566 7.03092 21.2607 6.31152 21.2607C5.9349 21.2607 5.60905 21.1253 5.33398 20.8545C5.05892 20.5837 4.92139 20.2536 4.92139 19.8643C4.92139 19.4876 5.01449 19.1554 5.20068 18.8677C5.39111 18.5799 5.6958 18.2625 6.11475 17.9155C6.70296 17.4119 7.13672 16.9634 7.41602 16.5698C7.69531 16.1763 7.88997 15.715 8 15.186Z" fill="black"/>
<path d="M55 64.186C55.1058 64.5923 55.2603 64.9753 55.4634 65.335C55.6665 65.6904 56.0876 66.1623 56.7266 66.7505C57.3232 67.2837 57.6956 67.6899 57.8438 67.9692C57.9919 68.2485 58.0701 68.5384 58.0786 68.8389C58.0786 69.2451 57.9411 69.5837 57.666 69.8545C57.391 70.1253 57.0693 70.2607 56.7012 70.2607C56.0368 70.2607 55.4951 69.8566 55.0762 69.0483C55.0889 69.7212 55.1777 70.2332 55.3428 70.5845C55.512 70.9357 55.7681 71.2108 56.1108 71.4097C56.4578 71.6086 56.9106 71.7271 57.4692 71.7651L57.52 72H52.4927L52.5308 71.7651C53.0555 71.7651 53.4998 71.6636 53.8638 71.4604C54.2277 71.2531 54.5007 70.9674 54.6826 70.6035C54.8688 70.2396 54.9619 69.7508 54.9619 69.1372V69.0483C54.5811 69.8566 54.0309 70.2607 53.3115 70.2607C52.9349 70.2607 52.609 70.1253 52.334 69.8545C52.0589 69.5837 51.9214 69.2536 51.9214 68.8643C51.9214 68.4876 52.0145 68.1554 52.2007 67.8677C52.3911 67.5799 52.6958 67.2625 53.1147 66.9155C53.703 66.4119 54.1367 65.9634 54.416 65.5698C54.6953 65.1763 54.89 64.715 55 64.186Z" fill="black"/>
<defs>
<linearGradient id="paint0_linear" x1="31" y1="0" x2="31" y2="88" gradientUnits="userSpaceOnUse">
<stop stop-color="white"/>
<stop offset="1" stop-color="#EEEEEE"/>
</linearGradient>
</defs>
</svg>
