<svg width="62" height="88" viewBox="0 0 62 88" fill="none" xmlns="http://www.w3.org/2000/svg">
<rect width="62" height="88" fill="url(#paint0_linear)"/>
<path d="M6.07227 8.33105L4.9375 8.30371L5.48438 2.74609H11.4111C11.4157 2.79622 11.418 2.88281 11.418 3.00586C11.418 3.12891 11.3838 3.25195 11.3154 3.375C11.1742 3.61654 10.9759 3.80111 10.7207 3.92871C10.4655 4.05176 10.11 4.11328 9.6543 4.11328H6.39355L6.02441 7.23047C6.4209 6.77474 6.95182 6.4694 7.61719 6.31445C7.83594 6.25977 8.06152 6.23242 8.29395 6.23242C9.31478 6.23242 10.0941 6.55371 10.6318 7.19629C11.1696 7.83887 11.4385 8.625 11.4385 9.55469C11.4385 10.6803 11.0807 11.5599 10.3652 12.1934C9.6543 12.8223 8.82031 13.1367 7.86328 13.1367C6.91081 13.1367 6.13607 12.9134 5.53906 12.4668C4.94661 12.0202 4.65039 11.5394 4.65039 11.0244C4.65039 10.5049 4.84635 10.1517 5.23828 9.96484C5.35677 9.9056 5.48438 9.87598 5.62109 9.87598C5.89909 9.87598 6.12467 9.96712 6.29785 10.1494C6.47559 10.3317 6.56445 10.571 6.56445 10.8672C6.56445 11.1634 6.42773 11.4027 6.1543 11.585C6.40039 12.0908 6.90169 12.3438 7.6582 12.3438C8.22331 12.3438 8.7041 12.1182 9.10059 11.667C9.49707 11.2113 9.69531 10.5983 9.69531 9.82812C9.69531 9.05794 9.53353 8.44954 9.20996 8.00293C8.89095 7.55176 8.40104 7.32617 7.74023 7.32617C7.08398 7.32617 6.52799 7.66113 6.07227 8.33105Z" fill="#C50000"/>
<path d="M52.0723 80.3311L50.9375 80.3037L51.4844 74.7461H57.4111C57.4157 74.7962 57.418 74.8828 57.418 75.0059C57.418 75.1289 57.3838 75.252 57.3154 75.375C57.1742 75.6165 56.9759 75.8011 56.7207 75.9287C56.4655 76.0518 56.11 76.1133 55.6543 76.1133H52.3936L52.0244 79.2305C52.4209 78.7747 52.9518 78.4694 53.6172 78.3145C53.8359 78.2598 54.0615 78.2324 54.2939 78.2324C55.3148 78.2324 56.0941 78.5537 56.6318 79.1963C57.1696 79.8389 57.4385 80.625 57.4385 81.5547C57.4385 82.6803 57.0807 83.5599 56.3652 84.1934C55.6543 84.8223 54.8203 85.1367 53.8633 85.1367C52.9108 85.1367 52.1361 84.9134 51.5391 84.4668C50.9466 84.0202 50.6504 83.5394 50.6504 83.0244C50.6504 82.5049 50.8464 82.1517 51.2383 81.9648C51.3568 81.9056 51.4844 81.876 51.6211 81.876C51.8991 81.876 52.1247 81.9671 52.2979 82.1494C52.4756 82.3317 52.5645 82.571 52.5645 82.8672C52.5645 83.1634 52.4277 83.4027 52.1543 83.585C52.4004 84.0908 52.9017 84.3438 53.6582 84.3438C54.2233 84.3438 54.7041 84.1182 55.1006 83.667C55.4971 83.2113 55.6953 82.5983 55.6953 81.8281C55.6953 81.0579 55.5335 80.4495 55.21 80.0029C54.891 79.5518 54.401 79.3262 53.7402 79.3262C53.084 79.3262 52.528 79.6611 52.0723 80.3311Z" fill="#C50000"/>
<path d="M30.9297 34.502C31.7734 35.9668 32.9688 37.7598 34.5156 39.8809C36.0742 41.9902 37.5684 43.8477 38.998 45.4531C38.2012 46.2734 36.9062 47.8789 35.1133 50.2695C33.3203 52.6484 31.9375 54.7051 30.9648 56.4395C30.5312 55.6074 29.7695 54.4297 28.6797 52.9062C27.6016 51.3711 26.6289 50.0469 25.7617 48.9336C24.8945 47.8086 23.9629 46.6484 22.9668 45.4531C24.3262 43.8477 25.7617 42.0371 27.2734 40.0215C28.7969 37.9941 30.0156 36.1543 30.9297 34.502Z" fill="#C50000"/>
<path d="M7.97461 15.2368C8.2793 15.7658 8.71094 16.4132 9.26953 17.1792C9.83236 17.9409 10.3719 18.6117 10.8882 19.1914C10.6004 19.4876 10.1328 20.0674 9.48535 20.9307C8.83789 21.7897 8.33854 22.5324 7.9873 23.1587C7.83073 22.8582 7.55566 22.4329 7.16211 21.8828C6.77279 21.3285 6.42155 20.8503 6.1084 20.4482C5.79525 20.042 5.45882 19.623 5.09912 19.1914C5.59001 18.6117 6.1084 17.9578 6.6543 17.23C7.20443 16.4979 7.64453 15.8335 7.97461 15.2368Z" fill="#C50000"/>
<path d="M54.9746 64.2368C55.2793 64.7658 55.7109 65.4132 56.2695 66.1792C56.8324 66.9409 57.3719 67.6117 57.8882 68.1914C57.6004 68.4876 57.1328 69.0674 56.4854 69.9307C55.8379 70.7897 55.3385 71.5324 54.9873 72.1587C54.8307 71.8582 54.5557 71.4329 54.1621 70.8828C53.7728 70.3285 53.4215 69.8503 53.1084 69.4482C52.7952 69.042 52.4588 68.623 52.0991 68.1914C52.59 67.6117 53.1084 66.9578 53.6543 66.23C54.2044 65.4979 54.6445 64.8335 54.9746 64.2368Z" fill="#C50000"/>
<defs>
<linearGradient id="paint0_linear" x1="31" y1="0" x2="31" y2="88" gradientUnits="userSpaceOnUse">
<stop stop-color="white"/>
<stop offset="1" stop-color="#EEEEEE"/>
</linearGradient>
</defs>
</svg>
