<svg width="62" height="88" viewBox="0 0 62 88" fill="none" xmlns="http://www.w3.org/2000/svg">
<rect width="62" height="88" fill="url(#paint0_linear)"/>
<path d="M6.25684 7.81836C6.82194 7.02539 7.6377 6.62891 8.7041 6.62891C9.0459 6.62891 9.40137 6.7041 9.77051 6.85449C10.1442 7.00488 10.4723 7.21452 10.7549 7.4834C11.361 8.06673 11.6641 8.81413 11.6641 9.72559C11.6641 10.637 11.3587 11.4346 10.748 12.1182C10.1419 12.7972 9.34668 13.1367 8.3623 13.1367C7.06348 13.1367 6.08594 12.6217 5.42969 11.5918C4.8737 10.7214 4.5957 9.6276 4.5957 8.31055C4.5957 6.51953 4.97396 5.12272 5.73047 4.12012C6.48698 3.11296 7.43717 2.60938 8.58105 2.60938C9.39225 2.60938 10.0508 2.8099 10.5566 3.21094C11.0625 3.60742 11.3154 4.06771 11.3154 4.5918C11.3154 5.11133 11.1195 5.46224 10.7275 5.64453C10.6045 5.70378 10.4746 5.7334 10.3379 5.7334C10.0645 5.7334 9.83887 5.64225 9.66113 5.45996C9.48796 5.27767 9.40137 5.05892 9.40137 4.80371C9.40137 4.41634 9.57454 4.13835 9.9209 3.96973C9.72949 3.63704 9.35124 3.4707 8.78613 3.4707C8.06608 3.4707 7.45768 3.78516 6.96094 4.41406C6.46875 5.04297 6.22266 5.87923 6.22266 6.92285C6.22266 7.13249 6.23405 7.43099 6.25684 7.81836ZM6.48242 9.75293C6.48242 10.0947 6.54622 10.4502 6.67383 10.8193C6.80143 11.1885 6.94043 11.4733 7.09082 11.6738C7.40072 12.0794 7.78353 12.2822 8.23926 12.2822C8.71777 12.2822 9.13021 12.0589 9.47656 11.6123C9.82292 11.1611 9.99609 10.571 9.99609 9.8418C9.99609 9.11263 9.83659 8.54297 9.51758 8.13281C9.19857 7.7181 8.7793 7.51074 8.25977 7.51074C7.74479 7.51074 7.31868 7.71582 6.98145 8.12598C6.64876 8.53158 6.48242 9.07389 6.48242 9.75293Z" fill="#C50000"/>
<path d="M52.2568 79.8184C52.8219 79.0254 53.6377 78.6289 54.7041 78.6289C55.0459 78.6289 55.4014 78.7041 55.7705 78.8545C56.1442 79.0049 56.4723 79.2145 56.7549 79.4834C57.361 80.0667 57.6641 80.8141 57.6641 81.7256C57.6641 82.637 57.3587 83.4346 56.748 84.1182C56.1419 84.7972 55.3467 85.1367 54.3623 85.1367C53.0635 85.1367 52.0859 84.6217 51.4297 83.5918C50.8737 82.7214 50.5957 81.6276 50.5957 80.3105C50.5957 78.5195 50.974 77.1227 51.7305 76.1201C52.487 75.113 53.4372 74.6094 54.5811 74.6094C55.3923 74.6094 56.0508 74.8099 56.5566 75.2109C57.0625 75.6074 57.3154 76.0677 57.3154 76.5918C57.3154 77.1113 57.1195 77.4622 56.7275 77.6445C56.6045 77.7038 56.4746 77.7334 56.3379 77.7334C56.0645 77.7334 55.8389 77.6423 55.6611 77.46C55.488 77.2777 55.4014 77.0589 55.4014 76.8037C55.4014 76.4163 55.5745 76.1383 55.9209 75.9697C55.7295 75.637 55.3512 75.4707 54.7861 75.4707C54.0661 75.4707 53.4577 75.7852 52.9609 76.4141C52.4688 77.043 52.2227 77.8792 52.2227 78.9229C52.2227 79.1325 52.234 79.431 52.2568 79.8184ZM52.4824 81.7529C52.4824 82.0947 52.5462 82.4502 52.6738 82.8193C52.8014 83.1885 52.9404 83.4733 53.0908 83.6738C53.4007 84.0794 53.7835 84.2822 54.2393 84.2822C54.7178 84.2822 55.1302 84.0589 55.4766 83.6123C55.8229 83.1611 55.9961 82.571 55.9961 81.8418C55.9961 81.1126 55.8366 80.543 55.5176 80.1328C55.1986 79.7181 54.7793 79.5107 54.2598 79.5107C53.7448 79.5107 53.3187 79.7158 52.9814 80.126C52.6488 80.5316 52.4824 81.0739 52.4824 81.7529Z" fill="#C50000"/>
<path d="M31.0352 56.4043C30.7773 55.3965 30.3789 54.3594 29.8398 53.293C29.3125 52.2266 28.0176 50.3105 25.9551 47.5449L24.373 45.3828C23.4941 44.2109 22.8965 43.25 22.5801 42.5C22.2637 41.7383 22.1055 40.9707 22.1055 40.1973C22.1055 38.9434 22.5098 37.918 23.3184 37.1211C24.1387 36.3125 25.1406 35.9082 26.3242 35.9082C27.3438 35.9082 28.2695 36.2422 29.1016 36.9102C29.9453 37.5781 30.5898 38.6152 31.0352 40.0215C31.4336 38.627 32.0488 37.5898 32.8809 36.9102C33.7129 36.2188 34.6445 35.873 35.6758 35.873C36.8125 35.873 37.7969 36.2715 38.6289 37.0684C39.4727 37.8652 39.8945 38.8379 39.8945 39.9863C39.8945 40.9941 39.6367 42.0547 39.1211 43.168C38.6055 44.2812 37.6973 45.6406 36.3965 47.2461C34.7559 49.3438 33.5547 51.0195 32.793 52.2734C32.043 53.5156 31.457 54.8926 31.0352 56.4043Z" fill="#C50000"/>
<path d="M8.0127 23.146C7.9196 22.7821 7.77572 22.4076 7.58105 22.0225C7.39062 21.6374 6.92301 20.9455 6.17822 19.9468L5.60693 19.166C5.28955 18.7428 5.07373 18.3958 4.95947 18.125C4.84521 17.8499 4.78809 17.5728 4.78809 17.2935C4.78809 16.8407 4.93408 16.4704 5.22607 16.1826C5.5223 15.8906 5.88411 15.7446 6.31152 15.7446C6.67969 15.7446 7.014 15.8652 7.31445 16.1064C7.61914 16.3477 7.85189 16.7222 8.0127 17.23C8.15658 16.7264 8.37874 16.3519 8.6792 16.1064C8.97965 15.8568 9.31608 15.7319 9.68848 15.7319C10.099 15.7319 10.4544 15.8758 10.7549 16.1636C11.0596 16.4513 11.2119 16.8026 11.2119 17.2173C11.2119 17.5812 11.1188 17.9642 10.9326 18.3662C10.7464 18.7682 10.4185 19.2591 9.94873 19.8389C9.35628 20.5964 8.92253 21.2015 8.64746 21.6543C8.37663 22.1029 8.16504 22.6001 8.0127 23.146Z" fill="#C50000"/>
<path d="M55.0127 72.146C54.9196 71.7821 54.7757 71.4076 54.5811 71.0225C54.3906 70.6374 53.923 69.9455 53.1782 68.9468L52.6069 68.166C52.2896 67.7428 52.0737 67.3958 51.9595 67.125C51.8452 66.8499 51.7881 66.5728 51.7881 66.2935C51.7881 65.8407 51.9341 65.4704 52.2261 65.1826C52.5223 64.8906 52.8841 64.7446 53.3115 64.7446C53.6797 64.7446 54.014 64.8652 54.3145 65.1064C54.6191 65.3477 54.8519 65.7222 55.0127 66.23C55.1566 65.7264 55.3787 65.3519 55.6792 65.1064C55.9797 64.8568 56.3161 64.7319 56.6885 64.7319C57.099 64.7319 57.4544 64.8758 57.7549 65.1636C58.0596 65.4513 58.2119 65.8026 58.2119 66.2173C58.2119 66.5812 58.1188 66.9642 57.9326 67.3662C57.7464 67.7682 57.4185 68.2591 56.9487 68.8389C56.3563 69.5964 55.9225 70.2015 55.6475 70.6543C55.3766 71.1029 55.165 71.6001 55.0127 72.146Z" fill="#C50000"/>
<defs>
<linearGradient id="paint0_linear" x1="31" y1="0" x2="31" y2="88" gradientUnits="userSpaceOnUse">
<stop stop-color="white"/>
<stop offset="1" stop-color="#EEEEEE"/>
</linearGradient>
</defs>
</svg>
