<svg width="62" height="88" viewBox="0 0 62 88" fill="none" xmlns="http://www.w3.org/2000/svg">
<rect width="62" height="88" fill="url(#paint0_linear)"/>
<path d="M6.25684 7.81836C6.82194 7.02539 7.6377 6.62891 8.7041 6.62891C9.0459 6.62891 9.40137 6.7041 9.77051 6.85449C10.1442 7.00488 10.4723 7.21452 10.7549 7.4834C11.361 8.06673 11.6641 8.81413 11.6641 9.72559C11.6641 10.637 11.3587 11.4346 10.748 12.1182C10.1419 12.7972 9.34668 13.1367 8.3623 13.1367C7.06348 13.1367 6.08594 12.6217 5.42969 11.5918C4.8737 10.7214 4.5957 9.6276 4.5957 8.31055C4.5957 6.51953 4.97396 5.12272 5.73047 4.12012C6.48698 3.11296 7.43717 2.60938 8.58105 2.60938C9.39225 2.60938 10.0508 2.8099 10.5566 3.21094C11.0625 3.60742 11.3154 4.06771 11.3154 4.5918C11.3154 5.11133 11.1195 5.46224 10.7275 5.64453C10.6045 5.70378 10.4746 5.7334 10.3379 5.7334C10.0645 5.7334 9.83887 5.64225 9.66113 5.45996C9.48796 5.27767 9.40137 5.05892 9.40137 4.80371C9.40137 4.41634 9.57454 4.13835 9.9209 3.96973C9.72949 3.63704 9.35124 3.4707 8.78613 3.4707C8.06608 3.4707 7.45768 3.78516 6.96094 4.41406C6.46875 5.04297 6.22266 5.87923 6.22266 6.92285C6.22266 7.13249 6.23405 7.43099 6.25684 7.81836ZM6.48242 9.75293C6.48242 10.0947 6.54622 10.4502 6.67383 10.8193C6.80143 11.1885 6.94043 11.4733 7.09082 11.6738C7.40072 12.0794 7.78353 12.2822 8.23926 12.2822C8.71777 12.2822 9.13021 12.0589 9.47656 11.6123C9.82292 11.1611 9.99609 10.571 9.99609 9.8418C9.99609 9.11263 9.83659 8.54297 9.51758 8.13281C9.19857 7.7181 8.7793 7.51074 8.25977 7.51074C7.74479 7.51074 7.31868 7.71582 6.98145 8.12598C6.64876 8.53158 6.48242 9.07389 6.48242 9.75293Z" fill="black"/>
<path d="M52.2568 79.8184C52.8219 79.0254 53.6377 78.6289 54.7041 78.6289C55.0459 78.6289 55.4014 78.7041 55.7705 78.8545C56.1442 79.0049 56.4723 79.2145 56.7549 79.4834C57.361 80.0667 57.6641 80.8141 57.6641 81.7256C57.6641 82.637 57.3587 83.4346 56.748 84.1182C56.1419 84.7972 55.3467 85.1367 54.3623 85.1367C53.0635 85.1367 52.0859 84.6217 51.4297 83.5918C50.8737 82.7214 50.5957 81.6276 50.5957 80.3105C50.5957 78.5195 50.974 77.1227 51.7305 76.1201C52.487 75.113 53.4372 74.6094 54.5811 74.6094C55.3923 74.6094 56.0508 74.8099 56.5566 75.2109C57.0625 75.6074 57.3154 76.0677 57.3154 76.5918C57.3154 77.1113 57.1195 77.4622 56.7275 77.6445C56.6045 77.7038 56.4746 77.7334 56.3379 77.7334C56.0645 77.7334 55.8389 77.6423 55.6611 77.46C55.488 77.2777 55.4014 77.0589 55.4014 76.8037C55.4014 76.4163 55.5745 76.1383 55.9209 75.9697C55.7295 75.637 55.3512 75.4707 54.7861 75.4707C54.0661 75.4707 53.4577 75.7852 52.9609 76.4141C52.4688 77.043 52.2227 77.8792 52.2227 78.9229C52.2227 79.1325 52.234 79.431 52.2568 79.8184ZM52.4824 81.7529C52.4824 82.0947 52.5462 82.4502 52.6738 82.8193C52.8014 83.1885 52.9404 83.4733 53.0908 83.6738C53.4007 84.0794 53.7835 84.2822 54.2393 84.2822C54.7178 84.2822 55.1302 84.0589 55.4766 83.6123C55.8229 83.1611 55.9961 82.571 55.9961 81.8418C55.9961 81.1126 55.8366 80.543 55.5176 80.1328C55.1986 79.7181 54.7793 79.5107 54.2598 79.5107C53.7448 79.5107 53.3187 79.7158 52.9814 80.126C52.6488 80.5316 52.4824 81.0739 52.4824 81.7529Z" fill="black"/>
<path d="M31 34.3613C31.293 35.4863 31.7207 36.5469 32.2832 37.543C32.8457 38.5273 34.0117 39.834 35.7812 41.4629C37.4336 42.9395 38.4648 44.0645 38.875 44.8379C39.2852 45.6113 39.502 46.4141 39.5254 47.2461C39.5254 48.3711 39.1445 49.3086 38.3828 50.0586C37.6211 50.8086 36.7305 51.1836 35.7109 51.1836C33.8711 51.1836 32.3711 50.0645 31.2109 47.8262C31.2461 49.6895 31.4922 51.1074 31.9492 52.0801C32.418 53.0527 33.127 53.8145 34.0762 54.3652C35.0371 54.916 36.291 55.2441 37.8379 55.3496L37.9785 56H24.0566L24.1621 55.3496C25.6152 55.3496 26.8457 55.0684 27.8535 54.5059C28.8613 53.9316 29.6172 53.1406 30.1211 52.1328C30.6367 51.125 30.8945 49.7715 30.8945 48.0723V47.8262C29.8398 50.0645 28.3164 51.1836 26.3242 51.1836C25.2812 51.1836 24.3789 50.8086 23.6172 50.0586C22.8555 49.3086 22.4746 48.3945 22.4746 47.3164C22.4746 46.2734 22.7324 45.3535 23.248 44.5566C23.7754 43.7598 24.6191 42.8809 25.7793 41.9199C27.4082 40.5254 28.6094 39.2832 29.3828 38.1934C30.1562 37.1035 30.6953 35.8262 31 34.3613Z" fill="black"/>
<path d="M8 15.186C8.10579 15.5923 8.26025 15.9753 8.46338 16.335C8.6665 16.6904 9.08757 17.1623 9.72656 17.7505C10.3232 18.2837 10.6956 18.6899 10.8438 18.9692C10.9919 19.2485 11.0701 19.5384 11.0786 19.8389C11.0786 20.2451 10.9411 20.5837 10.666 20.8545C10.391 21.1253 10.0693 21.2607 9.70117 21.2607C9.03678 21.2607 8.49512 20.8566 8.07617 20.0483C8.08887 20.7212 8.17773 21.2332 8.34277 21.5845C8.51204 21.9357 8.76807 22.2108 9.11084 22.4097C9.45785 22.6086 9.91064 22.7271 10.4692 22.7651L10.52 23H5.49268L5.53076 22.7651C6.0555 22.7651 6.49984 22.6636 6.86377 22.4604C7.2277 22.2531 7.50065 21.9674 7.68262 21.6035C7.86882 21.2396 7.96191 20.7508 7.96191 20.1372V20.0483C7.58105 20.8566 7.03092 21.2607 6.31152 21.2607C5.9349 21.2607 5.60905 21.1253 5.33398 20.8545C5.05892 20.5837 4.92139 20.2536 4.92139 19.8643C4.92139 19.4876 5.01449 19.1554 5.20068 18.8677C5.39111 18.5799 5.6958 18.2625 6.11475 17.9155C6.70296 17.4119 7.13672 16.9634 7.41602 16.5698C7.69531 16.1763 7.88997 15.715 8 15.186Z" fill="black"/>
<path d="M55 64.186C55.1058 64.5923 55.2603 64.9753 55.4634 65.335C55.6665 65.6904 56.0876 66.1623 56.7266 66.7505C57.3232 67.2837 57.6956 67.6899 57.8438 67.9692C57.9919 68.2485 58.0701 68.5384 58.0786 68.8389C58.0786 69.2451 57.9411 69.5837 57.666 69.8545C57.391 70.1253 57.0693 70.2607 56.7012 70.2607C56.0368 70.2607 55.4951 69.8566 55.0762 69.0483C55.0889 69.7212 55.1777 70.2332 55.3428 70.5845C55.512 70.9357 55.7681 71.2108 56.1108 71.4097C56.4578 71.6086 56.9106 71.7271 57.4692 71.7651L57.52 72H52.4927L52.5308 71.7651C53.0555 71.7651 53.4998 71.6636 53.8638 71.4604C54.2277 71.2531 54.5007 70.9674 54.6826 70.6035C54.8688 70.2396 54.9619 69.7508 54.9619 69.1372V69.0483C54.5811 69.8566 54.0309 70.2607 53.3115 70.2607C52.9349 70.2607 52.609 70.1253 52.334 69.8545C52.0589 69.5837 51.9214 69.2536 51.9214 68.8643C51.9214 68.4876 52.0145 68.1554 52.2007 67.8677C52.3911 67.5799 52.6958 67.2625 53.1147 66.9155C53.703 66.4119 54.1367 65.9634 54.416 65.5698C54.6953 65.1763 54.89 64.715 55 64.186Z" fill="black"/>
<defs>
<linearGradient id="paint0_linear" x1="31" y1="0" x2="31" y2="88" gradientUnits="userSpaceOnUse">
<stop stop-color="white"/>
<stop offset="1" stop-color="#EEEEEE"/>
</linearGradient>
</defs>
</svg>
