<svg width="62" height="88" viewBox="0 0 62 88" fill="none" xmlns="http://www.w3.org/2000/svg">
<rect width="62" height="88" fill="url(#paint0_linear)"/>
<path d="M6.25684 7.81836C6.82194 7.02539 7.6377 6.62891 8.7041 6.62891C9.0459 6.62891 9.40137 6.7041 9.77051 6.85449C10.1442 7.00488 10.4723 7.21452 10.7549 7.4834C11.361 8.06673 11.6641 8.81413 11.6641 9.72559C11.6641 10.637 11.3587 11.4346 10.748 12.1182C10.1419 12.7972 9.34668 13.1367 8.3623 13.1367C7.06348 13.1367 6.08594 12.6217 5.42969 11.5918C4.8737 10.7214 4.5957 9.6276 4.5957 8.31055C4.5957 6.51953 4.97396 5.12272 5.73047 4.12012C6.48698 3.11296 7.43717 2.60938 8.58105 2.60938C9.39225 2.60938 10.0508 2.8099 10.5566 3.21094C11.0625 3.60742 11.3154 4.06771 11.3154 4.5918C11.3154 5.11133 11.1195 5.46224 10.7275 5.64453C10.6045 5.70378 10.4746 5.7334 10.3379 5.7334C10.0645 5.7334 9.83887 5.64225 9.66113 5.45996C9.48796 5.27767 9.40137 5.05892 9.40137 4.80371C9.40137 4.41634 9.57454 4.13835 9.9209 3.96973C9.72949 3.63704 9.35124 3.4707 8.78613 3.4707C8.06608 3.4707 7.45768 3.78516 6.96094 4.41406C6.46875 5.04297 6.22266 5.87923 6.22266 6.92285C6.22266 7.13249 6.23405 7.43099 6.25684 7.81836ZM6.48242 9.75293C6.48242 10.0947 6.54622 10.4502 6.67383 10.8193C6.80143 11.1885 6.94043 11.4733 7.09082 11.6738C7.40072 12.0794 7.78353 12.2822 8.23926 12.2822C8.71777 12.2822 9.13021 12.0589 9.47656 11.6123C9.82292 11.1611 9.99609 10.571 9.99609 9.8418C9.99609 9.11263 9.83659 8.54297 9.51758 8.13281C9.19857 7.7181 8.7793 7.51074 8.25977 7.51074C7.74479 7.51074 7.31868 7.71582 6.98145 8.12598C6.64876 8.53158 6.48242 9.07389 6.48242 9.75293Z" fill="black"/>
<path d="M52.2568 79.8184C52.8219 79.0254 53.6377 78.6289 54.7041 78.6289C55.0459 78.6289 55.4014 78.7041 55.7705 78.8545C56.1442 79.0049 56.4723 79.2145 56.7549 79.4834C57.361 80.0667 57.6641 80.8141 57.6641 81.7256C57.6641 82.637 57.3587 83.4346 56.748 84.1182C56.1419 84.7972 55.3467 85.1367 54.3623 85.1367C53.0635 85.1367 52.0859 84.6217 51.4297 83.5918C50.8737 82.7214 50.5957 81.6276 50.5957 80.3105C50.5957 78.5195 50.974 77.1227 51.7305 76.1201C52.487 75.113 53.4372 74.6094 54.5811 74.6094C55.3923 74.6094 56.0508 74.8099 56.5566 75.2109C57.0625 75.6074 57.3154 76.0677 57.3154 76.5918C57.3154 77.1113 57.1195 77.4622 56.7275 77.6445C56.6045 77.7038 56.4746 77.7334 56.3379 77.7334C56.0645 77.7334 55.8389 77.6423 55.6611 77.46C55.488 77.2777 55.4014 77.0589 55.4014 76.8037C55.4014 76.4163 55.5745 76.1383 55.9209 75.9697C55.7295 75.637 55.3512 75.4707 54.7861 75.4707C54.0661 75.4707 53.4577 75.7852 52.9609 76.4141C52.4688 77.043 52.2227 77.8792 52.2227 78.9229C52.2227 79.1325 52.234 79.431 52.2568 79.8184ZM52.4824 81.7529C52.4824 82.0947 52.5462 82.4502 52.6738 82.8193C52.8014 83.1885 52.9404 83.4733 53.0908 83.6738C53.4007 84.0794 53.7835 84.2822 54.2393 84.2822C54.7178 84.2822 55.1302 84.0589 55.4766 83.6123C55.8229 83.1611 55.9961 82.571 55.9961 81.8418C55.9961 81.1126 55.8366 80.543 55.5176 80.1328C55.1986 79.7181 54.7793 79.5107 54.2598 79.5107C53.7448 79.5107 53.3187 79.7158 52.9814 80.126C52.6488 80.5316 52.4824 81.0739 52.4824 81.7529Z" fill="black"/>
<path d="M38.418 56H23.6172L23.7578 55.3848C25.3398 55.0684 26.4766 54.752 27.168 54.4355C27.8711 54.1191 28.498 53.6094 29.0488 52.9062C29.6113 52.2031 30.0449 51.418 30.3496 50.5508C30.666 49.6719 30.8242 48.7871 30.8242 47.8965L30.7891 47.0703C30.1211 48.4766 29.2656 49.5254 28.2227 50.2168C27.1797 50.9082 26.1367 51.2539 25.0938 51.2539C24.1914 51.2539 23.3594 51.0312 22.5977 50.5859C21.8477 50.1406 21.2676 49.5488 20.8574 48.8105C20.4473 48.0723 20.2422 47.252 20.2422 46.3496C20.2422 45.002 20.6699 43.8652 21.5254 42.9395C22.3809 42.0137 23.3535 41.5449 24.4434 41.5332C25.1699 41.5332 26.1191 41.832 27.291 42.4297C26.8457 41.668 26.5234 41.0527 26.3242 40.584C26.1953 40.1504 26.1309 39.7109 26.1309 39.2656C26.1309 37.8477 26.6055 36.6992 27.5547 35.8203C28.5039 34.9414 29.6406 34.502 30.9648 34.502C32.3242 34.502 33.4727 34.9707 34.4102 35.9082C35.3477 36.8457 35.8164 37.9414 35.8164 39.1953C35.8164 40.2031 35.4121 41.2812 34.6035 42.4297C35.5879 41.9609 36.1738 41.709 36.3613 41.6738C36.6191 41.5801 36.9766 41.5332 37.4336 41.5332C38.6641 41.5332 39.6777 41.9902 40.4746 42.9043C41.3301 43.7949 41.7578 44.9199 41.7578 46.2793C41.7578 47.6387 41.3008 48.8047 40.3867 49.7773C39.4727 50.7383 38.3359 51.2188 36.9766 51.2188C36.3203 51.2188 35.6465 51.0781 34.9551 50.7969C34.2637 50.5039 33.6367 50.1172 33.0742 49.6367C32.5234 49.1562 31.8906 48.3008 31.1758 47.0703C31.2344 48.5469 31.4043 49.7363 31.6855 50.6387C31.9785 51.5293 32.4414 52.3262 33.0742 53.0293C33.7188 53.7324 34.4102 54.2422 35.1484 54.5586C35.8984 54.8633 36.9414 55.1387 38.2773 55.3848L38.418 56Z" fill="black"/>
<path d="M10.6787 23H5.33398L5.38477 22.7778C5.95605 22.6636 6.36654 22.5493 6.61621 22.4351C6.87012 22.3208 7.09652 22.1367 7.29541 21.8828C7.49854 21.6289 7.65511 21.3454 7.76514 21.0322C7.87939 20.7148 7.93652 20.3953 7.93652 20.0737L7.92383 19.7754C7.68262 20.2832 7.3737 20.6619 6.99707 20.9116C6.62044 21.1613 6.24382 21.2861 5.86719 21.2861C5.54134 21.2861 5.24089 21.2057 4.96582 21.0449C4.69499 20.8841 4.48551 20.6704 4.3374 20.4038C4.18929 20.1372 4.11523 19.841 4.11523 19.5151C4.11523 19.0285 4.26969 18.618 4.57861 18.2837C4.88753 17.9494 5.23877 17.7801 5.63232 17.7759C5.89469 17.7759 6.23747 17.8838 6.66064 18.0996C6.49984 17.8245 6.38346 17.6024 6.31152 17.4331C6.26497 17.2765 6.2417 17.1178 6.2417 16.957C6.2417 16.445 6.41309 16.0303 6.75586 15.7129C7.09863 15.3955 7.50911 15.2368 7.9873 15.2368C8.47819 15.2368 8.8929 15.4061 9.23145 15.7446C9.56999 16.0832 9.73926 16.4788 9.73926 16.9316C9.73926 17.2956 9.59326 17.6849 9.30127 18.0996C9.65674 17.9303 9.86833 17.8394 9.93604 17.8267C10.0291 17.7928 10.1582 17.7759 10.3232 17.7759C10.7676 17.7759 11.1336 17.9409 11.4214 18.271C11.7303 18.5926 11.8848 18.9989 11.8848 19.4897C11.8848 19.9806 11.7197 20.4017 11.3896 20.7529C11.0596 21.0999 10.6491 21.2734 10.1582 21.2734C9.92122 21.2734 9.6779 21.2227 9.42822 21.1211C9.17855 21.0153 8.95215 20.8757 8.74902 20.7021C8.55013 20.5286 8.32161 20.2197 8.06348 19.7754C8.08464 20.3086 8.146 20.7381 8.24756 21.064C8.35335 21.3856 8.52051 21.6733 8.74902 21.9272C8.98177 22.1812 9.23145 22.3652 9.49805 22.4795C9.76888 22.5895 10.1455 22.689 10.6279 22.7778L10.6787 23Z" fill="black"/>
<path d="M57.6787 72H52.334L52.3848 71.7778C52.9561 71.6636 53.3665 71.5493 53.6162 71.4351C53.8701 71.3208 54.0965 71.1367 54.2954 70.8828C54.4985 70.6289 54.6551 70.3454 54.7651 70.0322C54.8794 69.7148 54.9365 69.3953 54.9365 69.0737L54.9238 68.7754C54.6826 69.2832 54.3737 69.6619 53.9971 69.9116C53.6204 70.1613 53.2438 70.2861 52.8672 70.2861C52.5413 70.2861 52.2409 70.2057 51.9658 70.0449C51.695 69.8841 51.4855 69.6704 51.3374 69.4038C51.1893 69.1372 51.1152 68.841 51.1152 68.5151C51.1152 68.0285 51.2697 67.618 51.5786 67.2837C51.8875 66.9494 52.2388 66.7801 52.6323 66.7759C52.8947 66.7759 53.2375 66.8838 53.6606 67.0996C53.4998 66.8245 53.3835 66.6024 53.3115 66.4331C53.265 66.2765 53.2417 66.1178 53.2417 65.957C53.2417 65.445 53.4131 65.0303 53.7559 64.7129C54.0986 64.3955 54.5091 64.2368 54.9873 64.2368C55.4782 64.2368 55.8929 64.4061 56.2314 64.7446C56.57 65.0832 56.7393 65.4788 56.7393 65.9316C56.7393 66.2956 56.5933 66.6849 56.3013 67.0996C56.6567 66.9303 56.8683 66.8394 56.936 66.8267C57.0291 66.7928 57.1582 66.7759 57.3232 66.7759C57.7676 66.7759 58.1336 66.9409 58.4214 67.271C58.7303 67.5926 58.8848 67.9989 58.8848 68.4897C58.8848 68.9806 58.7197 69.4017 58.3896 69.7529C58.0596 70.0999 57.6491 70.2734 57.1582 70.2734C56.9212 70.2734 56.6779 70.2227 56.4282 70.1211C56.1785 70.0153 55.9521 69.8757 55.749 69.7021C55.5501 69.5286 55.3216 69.2197 55.0635 68.7754C55.0846 69.3086 55.146 69.7381 55.2476 70.064C55.3534 70.3856 55.5205 70.6733 55.749 70.9272C55.9818 71.1812 56.2314 71.3652 56.498 71.4795C56.7689 71.5895 57.1455 71.689 57.6279 71.7778L57.6787 72Z" fill="black"/>
<defs>
<linearGradient id="paint0_linear" x1="31" y1="0" x2="31" y2="88" gradientUnits="userSpaceOnUse">
<stop stop-color="white"/>
<stop offset="1" stop-color="#EEEEEE"/>
</linearGradient>
</defs>
</svg>
