<svg width="62" height="88" viewBox="0 0 62 88" fill="none" xmlns="http://www.w3.org/2000/svg">
<rect width="62" height="88" fill="url(#paint0_linear)"/>
<path d="M6.25684 7.81836C6.82194 7.02539 7.6377 6.62891 8.7041 6.62891C9.0459 6.62891 9.40137 6.7041 9.77051 6.85449C10.1442 7.00488 10.4723 7.21452 10.7549 7.4834C11.361 8.06673 11.6641 8.81413 11.6641 9.72559C11.6641 10.637 11.3587 11.4346 10.748 12.1182C10.1419 12.7972 9.34668 13.1367 8.3623 13.1367C7.06348 13.1367 6.08594 12.6217 5.42969 11.5918C4.8737 10.7214 4.5957 9.6276 4.5957 8.31055C4.5957 6.51953 4.97396 5.12272 5.73047 4.12012C6.48698 3.11296 7.43717 2.60938 8.58105 2.60938C9.39225 2.60938 10.0508 2.8099 10.5566 3.21094C11.0625 3.60742 11.3154 4.06771 11.3154 4.5918C11.3154 5.11133 11.1195 5.46224 10.7275 5.64453C10.6045 5.70378 10.4746 5.7334 10.3379 5.7334C10.0645 5.7334 9.83887 5.64225 9.66113 5.45996C9.48796 5.27767 9.40137 5.05892 9.40137 4.80371C9.40137 4.41634 9.57454 4.13835 9.9209 3.96973C9.72949 3.63704 9.35124 3.4707 8.78613 3.4707C8.06608 3.4707 7.45768 3.78516 6.96094 4.41406C6.46875 5.04297 6.22266 5.87923 6.22266 6.92285C6.22266 7.13249 6.23405 7.43099 6.25684 7.81836ZM6.48242 9.75293C6.48242 10.0947 6.54622 10.4502 6.67383 10.8193C6.80143 11.1885 6.94043 11.4733 7.09082 11.6738C7.40072 12.0794 7.78353 12.2822 8.23926 12.2822C8.71777 12.2822 9.13021 12.0589 9.47656 11.6123C9.82292 11.1611 9.99609 10.571 9.99609 9.8418C9.99609 9.11263 9.83659 8.54297 9.51758 8.13281C9.19857 7.7181 8.7793 7.51074 8.25977 7.51074C7.74479 7.51074 7.31868 7.71582 6.98145 8.12598C6.64876 8.53158 6.48242 9.07389 6.48242 9.75293Z" fill="#C50000"/>
<path d="M52.2568 79.8184C52.8219 79.0254 53.6377 78.6289 54.7041 78.6289C55.0459 78.6289 55.4014 78.7041 55.7705 78.8545C56.1442 79.0049 56.4723 79.2145 56.7549 79.4834C57.361 80.0667 57.6641 80.8141 57.6641 81.7256C57.6641 82.637 57.3587 83.4346 56.748 84.1182C56.1419 84.7972 55.3467 85.1367 54.3623 85.1367C53.0635 85.1367 52.0859 84.6217 51.4297 83.5918C50.8737 82.7214 50.5957 81.6276 50.5957 80.3105C50.5957 78.5195 50.974 77.1227 51.7305 76.1201C52.487 75.113 53.4372 74.6094 54.5811 74.6094C55.3923 74.6094 56.0508 74.8099 56.5566 75.2109C57.0625 75.6074 57.3154 76.0677 57.3154 76.5918C57.3154 77.1113 57.1195 77.4622 56.7275 77.6445C56.6045 77.7038 56.4746 77.7334 56.3379 77.7334C56.0645 77.7334 55.8389 77.6423 55.6611 77.46C55.488 77.2777 55.4014 77.0589 55.4014 76.8037C55.4014 76.4163 55.5745 76.1383 55.9209 75.9697C55.7295 75.637 55.3512 75.4707 54.7861 75.4707C54.0661 75.4707 53.4577 75.7852 52.9609 76.4141C52.4688 77.043 52.2227 77.8792 52.2227 78.9229C52.2227 79.1325 52.234 79.431 52.2568 79.8184ZM52.4824 81.7529C52.4824 82.0947 52.5462 82.4502 52.6738 82.8193C52.8014 83.1885 52.9404 83.4733 53.0908 83.6738C53.4007 84.0794 53.7835 84.2822 54.2393 84.2822C54.7178 84.2822 55.1302 84.0589 55.4766 83.6123C55.8229 83.1611 55.9961 82.571 55.9961 81.8418C55.9961 81.1126 55.8366 80.543 55.5176 80.1328C55.1986 79.7181 54.7793 79.5107 54.2598 79.5107C53.7448 79.5107 53.3187 79.7158 52.9814 80.126C52.6488 80.5316 52.4824 81.0739 52.4824 81.7529Z" fill="#C50000"/>
<path d="M30.9297 34.502C31.7734 35.9668 32.9688 37.7598 34.5156 39.8809C36.0742 41.9902 37.5684 43.8477 38.998 45.4531C38.2012 46.2734 36.9062 47.8789 35.1133 50.2695C33.3203 52.6484 31.9375 54.7051 30.9648 56.4395C30.5312 55.6074 29.7695 54.4297 28.6797 52.9062C27.6016 51.3711 26.6289 50.0469 25.7617 48.9336C24.8945 47.8086 23.9629 46.6484 22.9668 45.4531C24.3262 43.8477 25.7617 42.0371 27.2734 40.0215C28.7969 37.9941 30.0156 36.1543 30.9297 34.502Z" fill="#C50000"/>
<path d="M7.97461 15.2368C8.2793 15.7658 8.71094 16.4132 9.26953 17.1792C9.83236 17.9409 10.3719 18.6117 10.8882 19.1914C10.6004 19.4876 10.1328 20.0674 9.48535 20.9307C8.83789 21.7897 8.33854 22.5324 7.9873 23.1587C7.83073 22.8582 7.55566 22.4329 7.16211 21.8828C6.77279 21.3285 6.42155 20.8503 6.1084 20.4482C5.79525 20.042 5.45882 19.623 5.09912 19.1914C5.59001 18.6117 6.1084 17.9578 6.6543 17.23C7.20443 16.4979 7.64453 15.8335 7.97461 15.2368Z" fill="#C50000"/>
<path d="M54.9746 64.2368C55.2793 64.7658 55.7109 65.4132 56.2695 66.1792C56.8324 66.9409 57.3719 67.6117 57.8882 68.1914C57.6004 68.4876 57.1328 69.0674 56.4854 69.9307C55.8379 70.7897 55.3385 71.5324 54.9873 72.1587C54.8307 71.8582 54.5557 71.4329 54.1621 70.8828C53.7728 70.3285 53.4215 69.8503 53.1084 69.4482C52.7952 69.042 52.4588 68.623 52.0991 68.1914C52.59 67.6117 53.1084 66.9578 53.6543 66.23C54.2044 65.4979 54.6445 64.8335 54.9746 64.2368Z" fill="#C50000"/>
<defs>
<linearGradient id="paint0_linear" x1="31" y1="0" x2="31" y2="88" gradientUnits="userSpaceOnUse">
<stop stop-color="white"/>
<stop offset="1" stop-color="#EEEEEE"/>
</linearGradient>
</defs>
</svg>
