<svg width="62" height="88" viewBox="0 0 62 88" fill="none" xmlns="http://www.w3.org/2000/svg">
<rect width="62" height="88" fill="url(#paint0_linear)"/>
<path d="M7.09766 12.877C7.01562 12.7767 6.94727 12.6423 6.89258 12.4736C6.84245 12.305 6.81738 12.0566 6.81738 11.7285C6.81738 11.3958 6.86523 11.0153 6.96094 10.5869C7.05664 10.1585 7.18652 9.72559 7.35059 9.28809C7.51465 8.84603 7.70605 8.40397 7.9248 7.96191C8.14355 7.51986 8.3737 7.08236 8.61523 6.64941C8.85677 6.21191 9.10286 5.78125 9.35352 5.35742C9.60872 4.92904 9.85254 4.51432 10.085 4.11328H7.33691C6.51204 4.11328 5.99707 4.3457 5.79199 4.81055C5.72363 4.96549 5.67122 5.14779 5.63477 5.35742L5.56641 5.78809L4.69824 5.80176L5.16992 2.74609H11.0967L11.4795 3.62793C10.1579 5.51009 9.29655 7.37174 8.89551 9.21289C8.736 9.94661 8.62207 10.6211 8.55371 11.2363C8.48991 11.847 8.42839 12.2617 8.36914 12.4805C8.3099 12.6947 8.22559 12.8587 8.11621 12.9727C8.00684 13.082 7.87695 13.1367 7.72656 13.1367C7.58073 13.1367 7.45996 13.1162 7.36426 13.0752C7.26855 13.0387 7.17969 12.9727 7.09766 12.877Z" fill="#C50000"/>
<path d="M53.0977 84.877C53.0156 84.7767 52.9473 84.6423 52.8926 84.4736C52.8424 84.305 52.8174 84.0566 52.8174 83.7285C52.8174 83.3958 52.8652 83.0153 52.9609 82.5869C53.0566 82.1585 53.1865 81.7256 53.3506 81.2881C53.5146 80.846 53.7061 80.404 53.9248 79.9619C54.1436 79.5199 54.3737 79.0824 54.6152 78.6494C54.8568 78.2119 55.1029 77.7812 55.3535 77.3574C55.6087 76.929 55.8525 76.5143 56.085 76.1133H53.3369C52.512 76.1133 51.9971 76.3457 51.792 76.8105C51.7236 76.9655 51.6712 77.1478 51.6348 77.3574L51.5664 77.7881L50.6982 77.8018L51.1699 74.7461H57.0967L57.4795 75.6279C56.1579 77.5101 55.2965 79.3717 54.8955 81.2129C54.736 81.9466 54.6221 82.6211 54.5537 83.2363C54.4899 83.847 54.4284 84.2617 54.3691 84.4805C54.3099 84.6947 54.2256 84.8587 54.1162 84.9727C54.0068 85.082 53.877 85.1367 53.7266 85.1367C53.5807 85.1367 53.46 85.1162 53.3643 85.0752C53.2686 85.0387 53.1797 84.9727 53.0977 84.877Z" fill="#C50000"/>
<path d="M30.9297 34.502C31.7734 35.9668 32.9688 37.7598 34.5156 39.8809C36.0742 41.9902 37.5684 43.8477 38.998 45.4531C38.2012 46.2734 36.9062 47.8789 35.1133 50.2695C33.3203 52.6484 31.9375 54.7051 30.9648 56.4395C30.5312 55.6074 29.7695 54.4297 28.6797 52.9062C27.6016 51.3711 26.6289 50.0469 25.7617 48.9336C24.8945 47.8086 23.9629 46.6484 22.9668 45.4531C24.3262 43.8477 25.7617 42.0371 27.2734 40.0215C28.7969 37.9941 30.0156 36.1543 30.9297 34.502Z" fill="#C50000"/>
<path d="M7.97461 15.2368C8.2793 15.7658 8.71094 16.4132 9.26953 17.1792C9.83236 17.9409 10.3719 18.6117 10.8882 19.1914C10.6004 19.4876 10.1328 20.0674 9.48535 20.9307C8.83789 21.7897 8.33854 22.5324 7.9873 23.1587C7.83073 22.8582 7.55566 22.4329 7.16211 21.8828C6.77279 21.3285 6.42155 20.8503 6.1084 20.4482C5.79525 20.042 5.45882 19.623 5.09912 19.1914C5.59001 18.6117 6.1084 17.9578 6.6543 17.23C7.20443 16.4979 7.64453 15.8335 7.97461 15.2368Z" fill="#C50000"/>
<path d="M54.9746 64.2368C55.2793 64.7658 55.7109 65.4132 56.2695 66.1792C56.8324 66.9409 57.3719 67.6117 57.8882 68.1914C57.6004 68.4876 57.1328 69.0674 56.4854 69.9307C55.8379 70.7897 55.3385 71.5324 54.9873 72.1587C54.8307 71.8582 54.5557 71.4329 54.1621 70.8828C53.7728 70.3285 53.4215 69.8503 53.1084 69.4482C52.7952 69.042 52.4588 68.623 52.0991 68.1914C52.59 67.6117 53.1084 66.9578 53.6543 66.23C54.2044 65.4979 54.6445 64.8335 54.9746 64.2368Z" fill="#C50000"/>
<defs>
<linearGradient id="paint0_linear" x1="31" y1="0" x2="31" y2="88" gradientUnits="userSpaceOnUse">
<stop stop-color="white"/>
<stop offset="1" stop-color="#EEEEEE"/>
</linearGradient>
</defs>
</svg>
