<svg width="62" height="88" viewBox="0 0 62 88" fill="none" xmlns="http://www.w3.org/2000/svg">
<rect width="62" height="88" fill="url(#paint0_linear)"/>
<path d="M7.09766 12.877C7.01562 12.7767 6.94727 12.6423 6.89258 12.4736C6.84245 12.305 6.81738 12.0566 6.81738 11.7285C6.81738 11.3958 6.86523 11.0153 6.96094 10.5869C7.05664 10.1585 7.18652 9.72559 7.35059 9.28809C7.51465 8.84603 7.70605 8.40397 7.9248 7.96191C8.14355 7.51986 8.3737 7.08236 8.61523 6.64941C8.85677 6.21191 9.10286 5.78125 9.35352 5.35742C9.60872 4.92904 9.85254 4.51432 10.085 4.11328H7.33691C6.51204 4.11328 5.99707 4.3457 5.79199 4.81055C5.72363 4.96549 5.67122 5.14779 5.63477 5.35742L5.56641 5.78809L4.69824 5.80176L5.16992 2.74609H11.0967L11.4795 3.62793C10.1579 5.51009 9.29655 7.37174 8.89551 9.21289C8.736 9.94661 8.62207 10.6211 8.55371 11.2363C8.48991 11.847 8.42839 12.2617 8.36914 12.4805C8.3099 12.6947 8.22559 12.8587 8.11621 12.9727C8.00684 13.082 7.87695 13.1367 7.72656 13.1367C7.58073 13.1367 7.45996 13.1162 7.36426 13.0752C7.26855 13.0387 7.17969 12.9727 7.09766 12.877Z" fill="black"/>
<path d="M53.0977 84.877C53.0156 84.7767 52.9473 84.6423 52.8926 84.4736C52.8424 84.305 52.8174 84.0566 52.8174 83.7285C52.8174 83.3958 52.8652 83.0153 52.9609 82.5869C53.0566 82.1585 53.1865 81.7256 53.3506 81.2881C53.5146 80.846 53.7061 80.404 53.9248 79.9619C54.1436 79.5199 54.3737 79.0824 54.6152 78.6494C54.8568 78.2119 55.1029 77.7812 55.3535 77.3574C55.6087 76.929 55.8525 76.5143 56.085 76.1133H53.3369C52.512 76.1133 51.9971 76.3457 51.792 76.8105C51.7236 76.9655 51.6712 77.1478 51.6348 77.3574L51.5664 77.7881L50.6982 77.8018L51.1699 74.7461H57.0967L57.4795 75.6279C56.1579 77.5101 55.2965 79.3717 54.8955 81.2129C54.736 81.9466 54.6221 82.6211 54.5537 83.2363C54.4899 83.847 54.4284 84.2617 54.3691 84.4805C54.3099 84.6947 54.2256 84.8587 54.1162 84.9727C54.0068 85.082 53.877 85.1367 53.7266 85.1367C53.5807 85.1367 53.46 85.1162 53.3643 85.0752C53.2686 85.0387 53.1797 84.9727 53.0977 84.877Z" fill="black"/>
<path d="M31 34.3613C31.293 35.4863 31.7207 36.5469 32.2832 37.543C32.8457 38.5273 34.0117 39.834 35.7812 41.4629C37.4336 42.9395 38.4648 44.0645 38.875 44.8379C39.2852 45.6113 39.502 46.4141 39.5254 47.2461C39.5254 48.3711 39.1445 49.3086 38.3828 50.0586C37.6211 50.8086 36.7305 51.1836 35.7109 51.1836C33.8711 51.1836 32.3711 50.0645 31.2109 47.8262C31.2461 49.6895 31.4922 51.1074 31.9492 52.0801C32.418 53.0527 33.127 53.8145 34.0762 54.3652C35.0371 54.916 36.291 55.2441 37.8379 55.3496L37.9785 56H24.0566L24.1621 55.3496C25.6152 55.3496 26.8457 55.0684 27.8535 54.5059C28.8613 53.9316 29.6172 53.1406 30.1211 52.1328C30.6367 51.125 30.8945 49.7715 30.8945 48.0723V47.8262C29.8398 50.0645 28.3164 51.1836 26.3242 51.1836C25.2812 51.1836 24.3789 50.8086 23.6172 50.0586C22.8555 49.3086 22.4746 48.3945 22.4746 47.3164C22.4746 46.2734 22.7324 45.3535 23.248 44.5566C23.7754 43.7598 24.6191 42.8809 25.7793 41.9199C27.4082 40.5254 28.6094 39.2832 29.3828 38.1934C30.1562 37.1035 30.6953 35.8262 31 34.3613Z" fill="black"/>
<path d="M8 15.186C8.10579 15.5923 8.26025 15.9753 8.46338 16.335C8.6665 16.6904 9.08757 17.1623 9.72656 17.7505C10.3232 18.2837 10.6956 18.6899 10.8438 18.9692C10.9919 19.2485 11.0701 19.5384 11.0786 19.8389C11.0786 20.2451 10.9411 20.5837 10.666 20.8545C10.391 21.1253 10.0693 21.2607 9.70117 21.2607C9.03678 21.2607 8.49512 20.8566 8.07617 20.0483C8.08887 20.7212 8.17773 21.2332 8.34277 21.5845C8.51204 21.9357 8.76807 22.2108 9.11084 22.4097C9.45785 22.6086 9.91064 22.7271 10.4692 22.7651L10.52 23H5.49268L5.53076 22.7651C6.0555 22.7651 6.49984 22.6636 6.86377 22.4604C7.2277 22.2531 7.50065 21.9674 7.68262 21.6035C7.86882 21.2396 7.96191 20.7508 7.96191 20.1372V20.0483C7.58105 20.8566 7.03092 21.2607 6.31152 21.2607C5.9349 21.2607 5.60905 21.1253 5.33398 20.8545C5.05892 20.5837 4.92139 20.2536 4.92139 19.8643C4.92139 19.4876 5.01449 19.1554 5.20068 18.8677C5.39111 18.5799 5.6958 18.2625 6.11475 17.9155C6.70296 17.4119 7.13672 16.9634 7.41602 16.5698C7.69531 16.1763 7.88997 15.715 8 15.186Z" fill="black"/>
<path d="M55 64.186C55.1058 64.5923 55.2603 64.9753 55.4634 65.335C55.6665 65.6904 56.0876 66.1623 56.7266 66.7505C57.3232 67.2837 57.6956 67.6899 57.8438 67.9692C57.9919 68.2485 58.0701 68.5384 58.0786 68.8389C58.0786 69.2451 57.9411 69.5837 57.666 69.8545C57.391 70.1253 57.0693 70.2607 56.7012 70.2607C56.0368 70.2607 55.4951 69.8566 55.0762 69.0483C55.0889 69.7212 55.1777 70.2332 55.3428 70.5845C55.512 70.9357 55.7681 71.2108 56.1108 71.4097C56.4578 71.6086 56.9106 71.7271 57.4692 71.7651L57.52 72H52.4927L52.5308 71.7651C53.0555 71.7651 53.4998 71.6636 53.8638 71.4604C54.2277 71.2531 54.5007 70.9674 54.6826 70.6035C54.8688 70.2396 54.9619 69.7508 54.9619 69.1372V69.0483C54.5811 69.8566 54.0309 70.2607 53.3115 70.2607C52.9349 70.2607 52.609 70.1253 52.334 69.8545C52.0589 69.5837 51.9214 69.2536 51.9214 68.8643C51.9214 68.4876 52.0145 68.1554 52.2007 67.8677C52.3911 67.5799 52.6958 67.2625 53.1147 66.9155C53.703 66.4119 54.1367 65.9634 54.416 65.5698C54.6953 65.1763 54.89 64.715 55 64.186Z" fill="black"/>
<defs>
<linearGradient id="paint0_linear" x1="31" y1="0" x2="31" y2="88" gradientUnits="userSpaceOnUse">
<stop stop-color="white"/>
<stop offset="1" stop-color="#EEEEEE"/>
</linearGradient>
</defs>
</svg>
