<svg width="62" height="88" viewBox="0 0 62 88" fill="none" xmlns="http://www.w3.org/2000/svg">
<rect width="62" height="88" fill="url(#paint0_linear)"/>
<path d="M7.09766 12.877C7.01562 12.7767 6.94727 12.6423 6.89258 12.4736C6.84245 12.305 6.81738 12.0566 6.81738 11.7285C6.81738 11.3958 6.86523 11.0153 6.96094 10.5869C7.05664 10.1585 7.18652 9.72559 7.35059 9.28809C7.51465 8.84603 7.70605 8.40397 7.9248 7.96191C8.14355 7.51986 8.3737 7.08236 8.61523 6.64941C8.85677 6.21191 9.10286 5.78125 9.35352 5.35742C9.60872 4.92904 9.85254 4.51432 10.085 4.11328H7.33691C6.51204 4.11328 5.99707 4.3457 5.79199 4.81055C5.72363 4.96549 5.67122 5.14779 5.63477 5.35742L5.56641 5.78809L4.69824 5.80176L5.16992 2.74609H11.0967L11.4795 3.62793C10.1579 5.51009 9.29655 7.37174 8.89551 9.21289C8.736 9.94661 8.62207 10.6211 8.55371 11.2363C8.48991 11.847 8.42839 12.2617 8.36914 12.4805C8.3099 12.6947 8.22559 12.8587 8.11621 12.9727C8.00684 13.082 7.87695 13.1367 7.72656 13.1367C7.58073 13.1367 7.45996 13.1162 7.36426 13.0752C7.26855 13.0387 7.17969 12.9727 7.09766 12.877Z" fill="#C50000"/>
<path d="M53.0977 84.877C53.0156 84.7767 52.9473 84.6423 52.8926 84.4736C52.8424 84.305 52.8174 84.0566 52.8174 83.7285C52.8174 83.3958 52.8652 83.0153 52.9609 82.5869C53.0566 82.1585 53.1865 81.7256 53.3506 81.2881C53.5146 80.846 53.7061 80.404 53.9248 79.9619C54.1436 79.5199 54.3737 79.0824 54.6152 78.6494C54.8568 78.2119 55.1029 77.7812 55.3535 77.3574C55.6087 76.929 55.8525 76.5143 56.085 76.1133H53.3369C52.512 76.1133 51.9971 76.3457 51.792 76.8105C51.7236 76.9655 51.6712 77.1478 51.6348 77.3574L51.5664 77.7881L50.6982 77.8018L51.1699 74.7461H57.0967L57.4795 75.6279C56.1579 77.5101 55.2965 79.3717 54.8955 81.2129C54.736 81.9466 54.6221 82.6211 54.5537 83.2363C54.4899 83.847 54.4284 84.2617 54.3691 84.4805C54.3099 84.6947 54.2256 84.8587 54.1162 84.9727C54.0068 85.082 53.877 85.1367 53.7266 85.1367C53.5807 85.1367 53.46 85.1162 53.3643 85.0752C53.2686 85.0387 53.1797 84.9727 53.0977 84.877Z" fill="#C50000"/>
<path d="M31.0352 56.4043C30.7773 55.3965 30.3789 54.3594 29.8398 53.293C29.3125 52.2266 28.0176 50.3105 25.9551 47.5449L24.373 45.3828C23.4941 44.2109 22.8965 43.25 22.5801 42.5C22.2637 41.7383 22.1055 40.9707 22.1055 40.1973C22.1055 38.9434 22.5098 37.918 23.3184 37.1211C24.1387 36.3125 25.1406 35.9082 26.3242 35.9082C27.3438 35.9082 28.2695 36.2422 29.1016 36.9102C29.9453 37.5781 30.5898 38.6152 31.0352 40.0215C31.4336 38.627 32.0488 37.5898 32.8809 36.9102C33.7129 36.2188 34.6445 35.873 35.6758 35.873C36.8125 35.873 37.7969 36.2715 38.6289 37.0684C39.4727 37.8652 39.8945 38.8379 39.8945 39.9863C39.8945 40.9941 39.6367 42.0547 39.1211 43.168C38.6055 44.2812 37.6973 45.6406 36.3965 47.2461C34.7559 49.3438 33.5547 51.0195 32.793 52.2734C32.043 53.5156 31.457 54.8926 31.0352 56.4043Z" fill="#C50000"/>
<path d="M8.0127 23.146C7.9196 22.7821 7.77572 22.4076 7.58105 22.0225C7.39062 21.6374 6.92301 20.9455 6.17822 19.9468L5.60693 19.166C5.28955 18.7428 5.07373 18.3958 4.95947 18.125C4.84521 17.8499 4.78809 17.5728 4.78809 17.2935C4.78809 16.8407 4.93408 16.4704 5.22607 16.1826C5.5223 15.8906 5.88411 15.7446 6.31152 15.7446C6.67969 15.7446 7.014 15.8652 7.31445 16.1064C7.61914 16.3477 7.85189 16.7222 8.0127 17.23C8.15658 16.7264 8.37874 16.3519 8.6792 16.1064C8.97965 15.8568 9.31608 15.7319 9.68848 15.7319C10.099 15.7319 10.4544 15.8758 10.7549 16.1636C11.0596 16.4513 11.2119 16.8026 11.2119 17.2173C11.2119 17.5812 11.1188 17.9642 10.9326 18.3662C10.7464 18.7682 10.4185 19.2591 9.94873 19.8389C9.35628 20.5964 8.92253 21.2015 8.64746 21.6543C8.37663 22.1029 8.16504 22.6001 8.0127 23.146Z" fill="#C50000"/>
<path d="M55.0127 72.146C54.9196 71.7821 54.7757 71.4076 54.5811 71.0225C54.3906 70.6374 53.923 69.9455 53.1782 68.9468L52.6069 68.166C52.2896 67.7428 52.0737 67.3958 51.9595 67.125C51.8452 66.8499 51.7881 66.5728 51.7881 66.2935C51.7881 65.8407 51.9341 65.4704 52.2261 65.1826C52.5223 64.8906 52.8841 64.7446 53.3115 64.7446C53.6797 64.7446 54.014 64.8652 54.3145 65.1064C54.6191 65.3477 54.8519 65.7222 55.0127 66.23C55.1566 65.7264 55.3787 65.3519 55.6792 65.1064C55.9797 64.8568 56.3161 64.7319 56.6885 64.7319C57.099 64.7319 57.4544 64.8758 57.7549 65.1636C58.0596 65.4513 58.2119 65.8026 58.2119 66.2173C58.2119 66.5812 58.1188 66.9642 57.9326 67.3662C57.7464 67.7682 57.4185 68.2591 56.9487 68.8389C56.3563 69.5964 55.9225 70.2015 55.6475 70.6543C55.3766 71.1029 55.165 71.6001 55.0127 72.146Z" fill="#C50000"/>
<defs>
<linearGradient id="paint0_linear" x1="31" y1="0" x2="31" y2="88" gradientUnits="userSpaceOnUse">
<stop stop-color="white"/>
<stop offset="1" stop-color="#EEEEEE"/>
</linearGradient>
</defs>
</svg>
