<svg width="62" height="88" viewBox="0 0 62 88" fill="none" xmlns="http://www.w3.org/2000/svg">
<rect width="62" height="88" fill="url(#paint0_linear)"/>
<path d="M6.52344 7.57227C5.55273 6.88411 5.06738 6.12077 5.06738 5.28223C5.06738 4.43913 5.36589 3.78288 5.96289 3.31348C6.56445 2.84408 7.27311 2.60938 8.08887 2.60938C8.90918 2.60938 9.59733 2.83724 10.1533 3.29297C10.7139 3.74414 10.9941 4.36393 10.9941 5.15234C10.9941 5.6263 10.8551 6.09115 10.5771 6.54688C10.3037 6.99805 9.93913 7.33529 9.4834 7.55859C10.1123 7.92773 10.5475 8.25814 10.7891 8.5498C11.0352 8.84147 11.2129 9.12402 11.3223 9.39746C11.4316 9.66634 11.4863 9.97852 11.4863 10.334C11.4863 11.0951 11.1696 11.7536 10.5361 12.3096C9.90723 12.861 9.06185 13.1367 8 13.1367C6.94271 13.1367 6.10417 12.8906 5.48438 12.3984C4.86914 11.9062 4.56152 11.193 4.56152 10.2588C4.56152 9.32454 4.96484 8.57031 5.77148 7.99609C6.00846 7.82747 6.25911 7.6862 6.52344 7.57227ZM8.73828 7.1416C9.39453 6.79069 9.72266 6.12988 9.72266 5.15918C9.72266 4.33887 9.41732 3.79427 8.80664 3.52539C8.61068 3.4388 8.39876 3.39551 8.1709 3.39551C7.71517 3.39551 7.34147 3.52767 7.0498 3.79199C6.7627 4.05632 6.61914 4.36393 6.61914 4.71484C6.61914 5.06576 6.67839 5.35059 6.79688 5.56934C6.91536 5.78809 7.0931 6.00911 7.33008 6.23242C7.57161 6.45573 8.04102 6.75879 8.73828 7.1416ZM7.26172 8.05078C6.40951 8.38802 5.9834 9.16504 5.9834 10.3818C5.9834 10.8923 6.15885 11.3366 6.50977 11.7148C6.86523 12.0931 7.3278 12.2822 7.89746 12.2822C8.47168 12.2822 8.93424 12.1387 9.28516 11.8516C9.64062 11.5645 9.81836 11.1657 9.81836 10.6553C9.81836 9.95345 9.27376 9.27214 8.18457 8.61133C7.87923 8.42904 7.57161 8.24219 7.26172 8.05078Z" fill="black"/>
<path d="M52.5234 79.5723C51.5527 78.8841 51.0674 78.1208 51.0674 77.2822C51.0674 76.4391 51.3659 75.7829 51.9629 75.3135C52.5645 74.8441 53.2731 74.6094 54.0889 74.6094C54.9092 74.6094 55.5973 74.8372 56.1533 75.293C56.7139 75.7441 56.9941 76.3639 56.9941 77.1523C56.9941 77.6263 56.8551 78.0911 56.5771 78.5469C56.3037 78.998 55.9391 79.3353 55.4834 79.5586C56.1123 79.9277 56.5475 80.2581 56.7891 80.5498C57.0352 80.8415 57.2129 81.124 57.3223 81.3975C57.4316 81.6663 57.4863 81.9785 57.4863 82.334C57.4863 83.0951 57.1696 83.7536 56.5361 84.3096C55.9072 84.861 55.0618 85.1367 54 85.1367C52.9427 85.1367 52.1042 84.8906 51.4844 84.3984C50.8691 83.9062 50.5615 83.193 50.5615 82.2588C50.5615 81.3245 50.9648 80.5703 51.7715 79.9961C52.0085 79.8275 52.2591 79.6862 52.5234 79.5723ZM54.7383 79.1416C55.3945 78.7907 55.7227 78.1299 55.7227 77.1592C55.7227 76.3389 55.4173 75.7943 54.8066 75.5254C54.6107 75.4388 54.3988 75.3955 54.1709 75.3955C53.7152 75.3955 53.3415 75.5277 53.0498 75.792C52.7627 76.0563 52.6191 76.3639 52.6191 76.7148C52.6191 77.0658 52.6784 77.3506 52.7969 77.5693C52.9154 77.7881 53.0931 78.0091 53.3301 78.2324C53.5716 78.4557 54.041 78.7588 54.7383 79.1416ZM53.2617 80.0508C52.4095 80.388 51.9834 81.165 51.9834 82.3818C51.9834 82.8923 52.1589 83.3366 52.5098 83.7148C52.8652 84.0931 53.3278 84.2822 53.8975 84.2822C54.4717 84.2822 54.9342 84.1387 55.2852 83.8516C55.6406 83.5645 55.8184 83.1657 55.8184 82.6553C55.8184 81.9535 55.2738 81.2721 54.1846 80.6113C53.8792 80.429 53.5716 80.2422 53.2617 80.0508Z" fill="black"/>
<path d="M31 34.3613C31.293 35.4863 31.7207 36.5469 32.2832 37.543C32.8457 38.5273 34.0117 39.834 35.7812 41.4629C37.4336 42.9395 38.4648 44.0645 38.875 44.8379C39.2852 45.6113 39.502 46.4141 39.5254 47.2461C39.5254 48.3711 39.1445 49.3086 38.3828 50.0586C37.6211 50.8086 36.7305 51.1836 35.7109 51.1836C33.8711 51.1836 32.3711 50.0645 31.2109 47.8262C31.2461 49.6895 31.4922 51.1074 31.9492 52.0801C32.418 53.0527 33.127 53.8145 34.0762 54.3652C35.0371 54.916 36.291 55.2441 37.8379 55.3496L37.9785 56H24.0566L24.1621 55.3496C25.6152 55.3496 26.8457 55.0684 27.8535 54.5059C28.8613 53.9316 29.6172 53.1406 30.1211 52.1328C30.6367 51.125 30.8945 49.7715 30.8945 48.0723V47.8262C29.8398 50.0645 28.3164 51.1836 26.3242 51.1836C25.2812 51.1836 24.3789 50.8086 23.6172 50.0586C22.8555 49.3086 22.4746 48.3945 22.4746 47.3164C22.4746 46.2734 22.7324 45.3535 23.248 44.5566C23.7754 43.7598 24.6191 42.8809 25.7793 41.9199C27.4082 40.5254 28.6094 39.2832 29.3828 38.1934C30.1562 37.1035 30.6953 35.8262 31 34.3613Z" fill="black"/>
<path d="M8 15.186C8.10579 15.5923 8.26025 15.9753 8.46338 16.335C8.6665 16.6904 9.08757 17.1623 9.72656 17.7505C10.3232 18.2837 10.6956 18.6899 10.8438 18.9692C10.9919 19.2485 11.0701 19.5384 11.0786 19.8389C11.0786 20.2451 10.9411 20.5837 10.666 20.8545C10.391 21.1253 10.0693 21.2607 9.70117 21.2607C9.03678 21.2607 8.49512 20.8566 8.07617 20.0483C8.08887 20.7212 8.17773 21.2332 8.34277 21.5845C8.51204 21.9357 8.76807 22.2108 9.11084 22.4097C9.45785 22.6086 9.91064 22.7271 10.4692 22.7651L10.52 23H5.49268L5.53076 22.7651C6.0555 22.7651 6.49984 22.6636 6.86377 22.4604C7.2277 22.2531 7.50065 21.9674 7.68262 21.6035C7.86882 21.2396 7.96191 20.7508 7.96191 20.1372V20.0483C7.58105 20.8566 7.03092 21.2607 6.31152 21.2607C5.9349 21.2607 5.60905 21.1253 5.33398 20.8545C5.05892 20.5837 4.92139 20.2536 4.92139 19.8643C4.92139 19.4876 5.01449 19.1554 5.20068 18.8677C5.39111 18.5799 5.6958 18.2625 6.11475 17.9155C6.70296 17.4119 7.13672 16.9634 7.41602 16.5698C7.69531 16.1763 7.88997 15.715 8 15.186Z" fill="black"/>
<path d="M55 64.186C55.1058 64.5923 55.2603 64.9753 55.4634 65.335C55.6665 65.6904 56.0876 66.1623 56.7266 66.7505C57.3232 67.2837 57.6956 67.6899 57.8438 67.9692C57.9919 68.2485 58.0701 68.5384 58.0786 68.8389C58.0786 69.2451 57.9411 69.5837 57.666 69.8545C57.391 70.1253 57.0693 70.2607 56.7012 70.2607C56.0368 70.2607 55.4951 69.8566 55.0762 69.0483C55.0889 69.7212 55.1777 70.2332 55.3428 70.5845C55.512 70.9357 55.7681 71.2108 56.1108 71.4097C56.4578 71.6086 56.9106 71.7271 57.4692 71.7651L57.52 72H52.4927L52.5308 71.7651C53.0555 71.7651 53.4998 71.6636 53.8638 71.4604C54.2277 71.2531 54.5007 70.9674 54.6826 70.6035C54.8688 70.2396 54.9619 69.7508 54.9619 69.1372V69.0483C54.5811 69.8566 54.0309 70.2607 53.3115 70.2607C52.9349 70.2607 52.609 70.1253 52.334 69.8545C52.0589 69.5837 51.9214 69.2536 51.9214 68.8643C51.9214 68.4876 52.0145 68.1554 52.2007 67.8677C52.3911 67.5799 52.6958 67.2625 53.1147 66.9155C53.703 66.4119 54.1367 65.9634 54.416 65.5698C54.6953 65.1763 54.89 64.715 55 64.186Z" fill="black"/>
<defs>
<linearGradient id="paint0_linear" x1="31" y1="0" x2="31" y2="88" gradientUnits="userSpaceOnUse">
<stop stop-color="white"/>
<stop offset="1" stop-color="#EEEEEE"/>
</linearGradient>
</defs>
</svg>
