<svg width="62" height="88" viewBox="0 0 62 88" fill="none" xmlns="http://www.w3.org/2000/svg">
<rect width="62" height="88" fill="url(#paint0_linear)"/>
<path d="M6.52344 7.57227C5.55273 6.88411 5.06738 6.12077 5.06738 5.28223C5.06738 4.43913 5.36589 3.78288 5.96289 3.31348C6.56445 2.84408 7.27311 2.60938 8.08887 2.60938C8.90918 2.60938 9.59733 2.83724 10.1533 3.29297C10.7139 3.74414 10.9941 4.36393 10.9941 5.15234C10.9941 5.6263 10.8551 6.09115 10.5771 6.54688C10.3037 6.99805 9.93913 7.33529 9.4834 7.55859C10.1123 7.92773 10.5475 8.25814 10.7891 8.5498C11.0352 8.84147 11.2129 9.12402 11.3223 9.39746C11.4316 9.66634 11.4863 9.97852 11.4863 10.334C11.4863 11.0951 11.1696 11.7536 10.5361 12.3096C9.90723 12.861 9.06185 13.1367 8 13.1367C6.94271 13.1367 6.10417 12.8906 5.48438 12.3984C4.86914 11.9062 4.56152 11.193 4.56152 10.2588C4.56152 9.32454 4.96484 8.57031 5.77148 7.99609C6.00846 7.82747 6.25911 7.6862 6.52344 7.57227ZM8.73828 7.1416C9.39453 6.79069 9.72266 6.12988 9.72266 5.15918C9.72266 4.33887 9.41732 3.79427 8.80664 3.52539C8.61068 3.4388 8.39876 3.39551 8.1709 3.39551C7.71517 3.39551 7.34147 3.52767 7.0498 3.79199C6.7627 4.05632 6.61914 4.36393 6.61914 4.71484C6.61914 5.06576 6.67839 5.35059 6.79688 5.56934C6.91536 5.78809 7.0931 6.00911 7.33008 6.23242C7.57161 6.45573 8.04102 6.75879 8.73828 7.1416ZM7.26172 8.05078C6.40951 8.38802 5.9834 9.16504 5.9834 10.3818C5.9834 10.8923 6.15885 11.3366 6.50977 11.7148C6.86523 12.0931 7.3278 12.2822 7.89746 12.2822C8.47168 12.2822 8.93424 12.1387 9.28516 11.8516C9.64062 11.5645 9.81836 11.1657 9.81836 10.6553C9.81836 9.95345 9.27376 9.27214 8.18457 8.61133C7.87923 8.42904 7.57161 8.24219 7.26172 8.05078Z" fill="#C50000"/>
<path d="M52.5234 79.5723C51.5527 78.8841 51.0674 78.1208 51.0674 77.2822C51.0674 76.4391 51.3659 75.7829 51.9629 75.3135C52.5645 74.8441 53.2731 74.6094 54.0889 74.6094C54.9092 74.6094 55.5973 74.8372 56.1533 75.293C56.7139 75.7441 56.9941 76.3639 56.9941 77.1523C56.9941 77.6263 56.8551 78.0911 56.5771 78.5469C56.3037 78.998 55.9391 79.3353 55.4834 79.5586C56.1123 79.9277 56.5475 80.2581 56.7891 80.5498C57.0352 80.8415 57.2129 81.124 57.3223 81.3975C57.4316 81.6663 57.4863 81.9785 57.4863 82.334C57.4863 83.0951 57.1696 83.7536 56.5361 84.3096C55.9072 84.861 55.0618 85.1367 54 85.1367C52.9427 85.1367 52.1042 84.8906 51.4844 84.3984C50.8691 83.9062 50.5615 83.193 50.5615 82.2588C50.5615 81.3245 50.9648 80.5703 51.7715 79.9961C52.0085 79.8275 52.2591 79.6862 52.5234 79.5723ZM54.7383 79.1416C55.3945 78.7907 55.7227 78.1299 55.7227 77.1592C55.7227 76.3389 55.4173 75.7943 54.8066 75.5254C54.6107 75.4388 54.3988 75.3955 54.1709 75.3955C53.7152 75.3955 53.3415 75.5277 53.0498 75.792C52.7627 76.0563 52.6191 76.3639 52.6191 76.7148C52.6191 77.0658 52.6784 77.3506 52.7969 77.5693C52.9154 77.7881 53.0931 78.0091 53.3301 78.2324C53.5716 78.4557 54.041 78.7588 54.7383 79.1416ZM53.2617 80.0508C52.4095 80.388 51.9834 81.165 51.9834 82.3818C51.9834 82.8923 52.1589 83.3366 52.5098 83.7148C52.8652 84.0931 53.3278 84.2822 53.8975 84.2822C54.4717 84.2822 54.9342 84.1387 55.2852 83.8516C55.6406 83.5645 55.8184 83.1657 55.8184 82.6553C55.8184 81.9535 55.2738 81.2721 54.1846 80.6113C53.8792 80.429 53.5716 80.2422 53.2617 80.0508Z" fill="#C50000"/>
<path d="M30.9297 34.502C31.7734 35.9668 32.9688 37.7598 34.5156 39.8809C36.0742 41.9902 37.5684 43.8477 38.998 45.4531C38.2012 46.2734 36.9062 47.8789 35.1133 50.2695C33.3203 52.6484 31.9375 54.7051 30.9648 56.4395C30.5312 55.6074 29.7695 54.4297 28.6797 52.9062C27.6016 51.3711 26.6289 50.0469 25.7617 48.9336C24.8945 47.8086 23.9629 46.6484 22.9668 45.4531C24.3262 43.8477 25.7617 42.0371 27.2734 40.0215C28.7969 37.9941 30.0156 36.1543 30.9297 34.502Z" fill="#C50000"/>
<path d="M7.97461 15.2368C8.2793 15.7658 8.71094 16.4132 9.26953 17.1792C9.83236 17.9409 10.3719 18.6117 10.8882 19.1914C10.6004 19.4876 10.1328 20.0674 9.48535 20.9307C8.83789 21.7897 8.33854 22.5324 7.9873 23.1587C7.83073 22.8582 7.55566 22.4329 7.16211 21.8828C6.77279 21.3285 6.42155 20.8503 6.1084 20.4482C5.79525 20.042 5.45882 19.623 5.09912 19.1914C5.59001 18.6117 6.1084 17.9578 6.6543 17.23C7.20443 16.4979 7.64453 15.8335 7.97461 15.2368Z" fill="#C50000"/>
<path d="M54.9746 64.2368C55.2793 64.7658 55.7109 65.4132 56.2695 66.1792C56.8324 66.9409 57.3719 67.6117 57.8882 68.1914C57.6004 68.4876 57.1328 69.0674 56.4854 69.9307C55.8379 70.7897 55.3385 71.5324 54.9873 72.1587C54.8307 71.8582 54.5557 71.4329 54.1621 70.8828C53.7728 70.3285 53.4215 69.8503 53.1084 69.4482C52.7952 69.042 52.4588 68.623 52.0991 68.1914C52.59 67.6117 53.1084 66.9578 53.6543 66.23C54.2044 65.4979 54.6445 64.8335 54.9746 64.2368Z" fill="#C50000"/>
<defs>
<linearGradient id="paint0_linear" x1="31" y1="0" x2="31" y2="88" gradientUnits="userSpaceOnUse">
<stop stop-color="white"/>
<stop offset="1" stop-color="#EEEEEE"/>
</linearGradient>
</defs>
</svg>
