<svg width="62" height="88" viewBox="0 0 62 88" fill="none" xmlns="http://www.w3.org/2000/svg">
<rect width="62" height="88" fill="url(#paint0_linear)"/>
<path d="M6.52344 7.57227C5.55273 6.88411 5.06738 6.12077 5.06738 5.28223C5.06738 4.43913 5.36589 3.78288 5.96289 3.31348C6.56445 2.84408 7.27311 2.60938 8.08887 2.60938C8.90918 2.60938 9.59733 2.83724 10.1533 3.29297C10.7139 3.74414 10.9941 4.36393 10.9941 5.15234C10.9941 5.6263 10.8551 6.09115 10.5771 6.54688C10.3037 6.99805 9.93913 7.33529 9.4834 7.55859C10.1123 7.92773 10.5475 8.25814 10.7891 8.5498C11.0352 8.84147 11.2129 9.12402 11.3223 9.39746C11.4316 9.66634 11.4863 9.97852 11.4863 10.334C11.4863 11.0951 11.1696 11.7536 10.5361 12.3096C9.90723 12.861 9.06185 13.1367 8 13.1367C6.94271 13.1367 6.10417 12.8906 5.48438 12.3984C4.86914 11.9062 4.56152 11.193 4.56152 10.2588C4.56152 9.32454 4.96484 8.57031 5.77148 7.99609C6.00846 7.82747 6.25911 7.6862 6.52344 7.57227ZM8.73828 7.1416C9.39453 6.79069 9.72266 6.12988 9.72266 5.15918C9.72266 4.33887 9.41732 3.79427 8.80664 3.52539C8.61068 3.4388 8.39876 3.39551 8.1709 3.39551C7.71517 3.39551 7.34147 3.52767 7.0498 3.79199C6.7627 4.05632 6.61914 4.36393 6.61914 4.71484C6.61914 5.06576 6.67839 5.35059 6.79688 5.56934C6.91536 5.78809 7.0931 6.00911 7.33008 6.23242C7.57161 6.45573 8.04102 6.75879 8.73828 7.1416ZM7.26172 8.05078C6.40951 8.38802 5.9834 9.16504 5.9834 10.3818C5.9834 10.8923 6.15885 11.3366 6.50977 11.7148C6.86523 12.0931 7.3278 12.2822 7.89746 12.2822C8.47168 12.2822 8.93424 12.1387 9.28516 11.8516C9.64062 11.5645 9.81836 11.1657 9.81836 10.6553C9.81836 9.95345 9.27376 9.27214 8.18457 8.61133C7.87923 8.42904 7.57161 8.24219 7.26172 8.05078Z" fill="#C50000"/>
<path d="M52.5234 79.5723C51.5527 78.8841 51.0674 78.1208 51.0674 77.2822C51.0674 76.4391 51.3659 75.7829 51.9629 75.3135C52.5645 74.8441 53.2731 74.6094 54.0889 74.6094C54.9092 74.6094 55.5973 74.8372 56.1533 75.293C56.7139 75.7441 56.9941 76.3639 56.9941 77.1523C56.9941 77.6263 56.8551 78.0911 56.5771 78.5469C56.3037 78.998 55.9391 79.3353 55.4834 79.5586C56.1123 79.9277 56.5475 80.2581 56.7891 80.5498C57.0352 80.8415 57.2129 81.124 57.3223 81.3975C57.4316 81.6663 57.4863 81.9785 57.4863 82.334C57.4863 83.0951 57.1696 83.7536 56.5361 84.3096C55.9072 84.861 55.0618 85.1367 54 85.1367C52.9427 85.1367 52.1042 84.8906 51.4844 84.3984C50.8691 83.9062 50.5615 83.193 50.5615 82.2588C50.5615 81.3245 50.9648 80.5703 51.7715 79.9961C52.0085 79.8275 52.2591 79.6862 52.5234 79.5723ZM54.7383 79.1416C55.3945 78.7907 55.7227 78.1299 55.7227 77.1592C55.7227 76.3389 55.4173 75.7943 54.8066 75.5254C54.6107 75.4388 54.3988 75.3955 54.1709 75.3955C53.7152 75.3955 53.3415 75.5277 53.0498 75.792C52.7627 76.0563 52.6191 76.3639 52.6191 76.7148C52.6191 77.0658 52.6784 77.3506 52.7969 77.5693C52.9154 77.7881 53.0931 78.0091 53.3301 78.2324C53.5716 78.4557 54.041 78.7588 54.7383 79.1416ZM53.2617 80.0508C52.4095 80.388 51.9834 81.165 51.9834 82.3818C51.9834 82.8923 52.1589 83.3366 52.5098 83.7148C52.8652 84.0931 53.3278 84.2822 53.8975 84.2822C54.4717 84.2822 54.9342 84.1387 55.2852 83.8516C55.6406 83.5645 55.8184 83.1657 55.8184 82.6553C55.8184 81.9535 55.2738 81.2721 54.1846 80.6113C53.8792 80.429 53.5716 80.2422 53.2617 80.0508Z" fill="#C50000"/>
<path d="M31.0352 56.4043C30.7773 55.3965 30.3789 54.3594 29.8398 53.293C29.3125 52.2266 28.0176 50.3105 25.9551 47.5449L24.373 45.3828C23.4941 44.2109 22.8965 43.25 22.5801 42.5C22.2637 41.7383 22.1055 40.9707 22.1055 40.1973C22.1055 38.9434 22.5098 37.918 23.3184 37.1211C24.1387 36.3125 25.1406 35.9082 26.3242 35.9082C27.3438 35.9082 28.2695 36.2422 29.1016 36.9102C29.9453 37.5781 30.5898 38.6152 31.0352 40.0215C31.4336 38.627 32.0488 37.5898 32.8809 36.9102C33.7129 36.2188 34.6445 35.873 35.6758 35.873C36.8125 35.873 37.7969 36.2715 38.6289 37.0684C39.4727 37.8652 39.8945 38.8379 39.8945 39.9863C39.8945 40.9941 39.6367 42.0547 39.1211 43.168C38.6055 44.2812 37.6973 45.6406 36.3965 47.2461C34.7559 49.3438 33.5547 51.0195 32.793 52.2734C32.043 53.5156 31.457 54.8926 31.0352 56.4043Z" fill="#C50000"/>
<path d="M8.0127 23.146C7.9196 22.7821 7.77572 22.4076 7.58105 22.0225C7.39062 21.6374 6.92301 20.9455 6.17822 19.9468L5.60693 19.166C5.28955 18.7428 5.07373 18.3958 4.95947 18.125C4.84521 17.8499 4.78809 17.5728 4.78809 17.2935C4.78809 16.8407 4.93408 16.4704 5.22607 16.1826C5.5223 15.8906 5.88411 15.7446 6.31152 15.7446C6.67969 15.7446 7.014 15.8652 7.31445 16.1064C7.61914 16.3477 7.85189 16.7222 8.0127 17.23C8.15658 16.7264 8.37874 16.3519 8.6792 16.1064C8.97965 15.8568 9.31608 15.7319 9.68848 15.7319C10.099 15.7319 10.4544 15.8758 10.7549 16.1636C11.0596 16.4513 11.2119 16.8026 11.2119 17.2173C11.2119 17.5812 11.1188 17.9642 10.9326 18.3662C10.7464 18.7682 10.4185 19.2591 9.94873 19.8389C9.35628 20.5964 8.92253 21.2015 8.64746 21.6543C8.37663 22.1029 8.16504 22.6001 8.0127 23.146Z" fill="#C50000"/>
<path d="M55.0127 72.146C54.9196 71.7821 54.7757 71.4076 54.5811 71.0225C54.3906 70.6374 53.923 69.9455 53.1782 68.9468L52.6069 68.166C52.2896 67.7428 52.0737 67.3958 51.9595 67.125C51.8452 66.8499 51.7881 66.5728 51.7881 66.2935C51.7881 65.8407 51.9341 65.4704 52.2261 65.1826C52.5223 64.8906 52.8841 64.7446 53.3115 64.7446C53.6797 64.7446 54.014 64.8652 54.3145 65.1064C54.6191 65.3477 54.8519 65.7222 55.0127 66.23C55.1566 65.7264 55.3787 65.3519 55.6792 65.1064C55.9797 64.8568 56.3161 64.7319 56.6885 64.7319C57.099 64.7319 57.4544 64.8758 57.7549 65.1636C58.0596 65.4513 58.2119 65.8026 58.2119 66.2173C58.2119 66.5812 58.1188 66.9642 57.9326 67.3662C57.7464 67.7682 57.4185 68.2591 56.9487 68.8389C56.3563 69.5964 55.9225 70.2015 55.6475 70.6543C55.3766 71.1029 55.165 71.6001 55.0127 72.146Z" fill="#C50000"/>
<defs>
<linearGradient id="paint0_linear" x1="31" y1="0" x2="31" y2="88" gradientUnits="userSpaceOnUse">
<stop stop-color="white"/>
<stop offset="1" stop-color="#EEEEEE"/>
</linearGradient>
</defs>
</svg>
