<svg width="62" height="88" viewBox="0 0 62 88" fill="none" xmlns="http://www.w3.org/2000/svg">
<rect width="62" height="88" fill="url(#paint0_linear)"/>
<path d="M6.52344 7.57227C5.55273 6.88411 5.06738 6.12077 5.06738 5.28223C5.06738 4.43913 5.36589 3.78288 5.96289 3.31348C6.56445 2.84408 7.27311 2.60938 8.08887 2.60938C8.90918 2.60938 9.59733 2.83724 10.1533 3.29297C10.7139 3.74414 10.9941 4.36393 10.9941 5.15234C10.9941 5.6263 10.8551 6.09115 10.5771 6.54688C10.3037 6.99805 9.93913 7.33529 9.4834 7.55859C10.1123 7.92773 10.5475 8.25814 10.7891 8.5498C11.0352 8.84147 11.2129 9.12402 11.3223 9.39746C11.4316 9.66634 11.4863 9.97852 11.4863 10.334C11.4863 11.0951 11.1696 11.7536 10.5361 12.3096C9.90723 12.861 9.06185 13.1367 8 13.1367C6.94271 13.1367 6.10417 12.8906 5.48438 12.3984C4.86914 11.9062 4.56152 11.193 4.56152 10.2588C4.56152 9.32454 4.96484 8.57031 5.77148 7.99609C6.00846 7.82747 6.25911 7.6862 6.52344 7.57227ZM8.73828 7.1416C9.39453 6.79069 9.72266 6.12988 9.72266 5.15918C9.72266 4.33887 9.41732 3.79427 8.80664 3.52539C8.61068 3.4388 8.39876 3.39551 8.1709 3.39551C7.71517 3.39551 7.34147 3.52767 7.0498 3.79199C6.7627 4.05632 6.61914 4.36393 6.61914 4.71484C6.61914 5.06576 6.67839 5.35059 6.79688 5.56934C6.91536 5.78809 7.0931 6.00911 7.33008 6.23242C7.57161 6.45573 8.04102 6.75879 8.73828 7.1416ZM7.26172 8.05078C6.40951 8.38802 5.9834 9.16504 5.9834 10.3818C5.9834 10.8923 6.15885 11.3366 6.50977 11.7148C6.86523 12.0931 7.3278 12.2822 7.89746 12.2822C8.47168 12.2822 8.93424 12.1387 9.28516 11.8516C9.64062 11.5645 9.81836 11.1657 9.81836 10.6553C9.81836 9.95345 9.27376 9.27214 8.18457 8.61133C7.87923 8.42904 7.57161 8.24219 7.26172 8.05078Z" fill="black"/>
<path d="M52.5234 79.5723C51.5527 78.8841 51.0674 78.1208 51.0674 77.2822C51.0674 76.4391 51.3659 75.7829 51.9629 75.3135C52.5645 74.8441 53.2731 74.6094 54.0889 74.6094C54.9092 74.6094 55.5973 74.8372 56.1533 75.293C56.7139 75.7441 56.9941 76.3639 56.9941 77.1523C56.9941 77.6263 56.8551 78.0911 56.5771 78.5469C56.3037 78.998 55.9391 79.3353 55.4834 79.5586C56.1123 79.9277 56.5475 80.2581 56.7891 80.5498C57.0352 80.8415 57.2129 81.124 57.3223 81.3975C57.4316 81.6663 57.4863 81.9785 57.4863 82.334C57.4863 83.0951 57.1696 83.7536 56.5361 84.3096C55.9072 84.861 55.0618 85.1367 54 85.1367C52.9427 85.1367 52.1042 84.8906 51.4844 84.3984C50.8691 83.9062 50.5615 83.193 50.5615 82.2588C50.5615 81.3245 50.9648 80.5703 51.7715 79.9961C52.0085 79.8275 52.2591 79.6862 52.5234 79.5723ZM54.7383 79.1416C55.3945 78.7907 55.7227 78.1299 55.7227 77.1592C55.7227 76.3389 55.4173 75.7943 54.8066 75.5254C54.6107 75.4388 54.3988 75.3955 54.1709 75.3955C53.7152 75.3955 53.3415 75.5277 53.0498 75.792C52.7627 76.0563 52.6191 76.3639 52.6191 76.7148C52.6191 77.0658 52.6784 77.3506 52.7969 77.5693C52.9154 77.7881 53.0931 78.0091 53.3301 78.2324C53.5716 78.4557 54.041 78.7588 54.7383 79.1416ZM53.2617 80.0508C52.4095 80.388 51.9834 81.165 51.9834 82.3818C51.9834 82.8923 52.1589 83.3366 52.5098 83.7148C52.8652 84.0931 53.3278 84.2822 53.8975 84.2822C54.4717 84.2822 54.9342 84.1387 55.2852 83.8516C55.6406 83.5645 55.8184 83.1657 55.8184 82.6553C55.8184 81.9535 55.2738 81.2721 54.1846 80.6113C53.8792 80.429 53.5716 80.2422 53.2617 80.0508Z" fill="black"/>
<path d="M38.418 56H23.6172L23.7578 55.3848C25.3398 55.0684 26.4766 54.752 27.168 54.4355C27.8711 54.1191 28.498 53.6094 29.0488 52.9062C29.6113 52.2031 30.0449 51.418 30.3496 50.5508C30.666 49.6719 30.8242 48.7871 30.8242 47.8965L30.7891 47.0703C30.1211 48.4766 29.2656 49.5254 28.2227 50.2168C27.1797 50.9082 26.1367 51.2539 25.0938 51.2539C24.1914 51.2539 23.3594 51.0312 22.5977 50.5859C21.8477 50.1406 21.2676 49.5488 20.8574 48.8105C20.4473 48.0723 20.2422 47.252 20.2422 46.3496C20.2422 45.002 20.6699 43.8652 21.5254 42.9395C22.3809 42.0137 23.3535 41.5449 24.4434 41.5332C25.1699 41.5332 26.1191 41.832 27.291 42.4297C26.8457 41.668 26.5234 41.0527 26.3242 40.584C26.1953 40.1504 26.1309 39.7109 26.1309 39.2656C26.1309 37.8477 26.6055 36.6992 27.5547 35.8203C28.5039 34.9414 29.6406 34.502 30.9648 34.502C32.3242 34.502 33.4727 34.9707 34.4102 35.9082C35.3477 36.8457 35.8164 37.9414 35.8164 39.1953C35.8164 40.2031 35.4121 41.2812 34.6035 42.4297C35.5879 41.9609 36.1738 41.709 36.3613 41.6738C36.6191 41.5801 36.9766 41.5332 37.4336 41.5332C38.6641 41.5332 39.6777 41.9902 40.4746 42.9043C41.3301 43.7949 41.7578 44.9199 41.7578 46.2793C41.7578 47.6387 41.3008 48.8047 40.3867 49.7773C39.4727 50.7383 38.3359 51.2188 36.9766 51.2188C36.3203 51.2188 35.6465 51.0781 34.9551 50.7969C34.2637 50.5039 33.6367 50.1172 33.0742 49.6367C32.5234 49.1562 31.8906 48.3008 31.1758 47.0703C31.2344 48.5469 31.4043 49.7363 31.6855 50.6387C31.9785 51.5293 32.4414 52.3262 33.0742 53.0293C33.7188 53.7324 34.4102 54.2422 35.1484 54.5586C35.8984 54.8633 36.9414 55.1387 38.2773 55.3848L38.418 56Z" fill="black"/>
<path d="M10.6787 23H5.33398L5.38477 22.7778C5.95605 22.6636 6.36654 22.5493 6.61621 22.4351C6.87012 22.3208 7.09652 22.1367 7.29541 21.8828C7.49854 21.6289 7.65511 21.3454 7.76514 21.0322C7.87939 20.7148 7.93652 20.3953 7.93652 20.0737L7.92383 19.7754C7.68262 20.2832 7.3737 20.6619 6.99707 20.9116C6.62044 21.1613 6.24382 21.2861 5.86719 21.2861C5.54134 21.2861 5.24089 21.2057 4.96582 21.0449C4.69499 20.8841 4.48551 20.6704 4.3374 20.4038C4.18929 20.1372 4.11523 19.841 4.11523 19.5151C4.11523 19.0285 4.26969 18.618 4.57861 18.2837C4.88753 17.9494 5.23877 17.7801 5.63232 17.7759C5.89469 17.7759 6.23747 17.8838 6.66064 18.0996C6.49984 17.8245 6.38346 17.6024 6.31152 17.4331C6.26497 17.2765 6.2417 17.1178 6.2417 16.957C6.2417 16.445 6.41309 16.0303 6.75586 15.7129C7.09863 15.3955 7.50911 15.2368 7.9873 15.2368C8.47819 15.2368 8.8929 15.4061 9.23145 15.7446C9.56999 16.0832 9.73926 16.4788 9.73926 16.9316C9.73926 17.2956 9.59326 17.6849 9.30127 18.0996C9.65674 17.9303 9.86833 17.8394 9.93604 17.8267C10.0291 17.7928 10.1582 17.7759 10.3232 17.7759C10.7676 17.7759 11.1336 17.9409 11.4214 18.271C11.7303 18.5926 11.8848 18.9989 11.8848 19.4897C11.8848 19.9806 11.7197 20.4017 11.3896 20.7529C11.0596 21.0999 10.6491 21.2734 10.1582 21.2734C9.92122 21.2734 9.6779 21.2227 9.42822 21.1211C9.17855 21.0153 8.95215 20.8757 8.74902 20.7021C8.55013 20.5286 8.32161 20.2197 8.06348 19.7754C8.08464 20.3086 8.146 20.7381 8.24756 21.064C8.35335 21.3856 8.52051 21.6733 8.74902 21.9272C8.98177 22.1812 9.23145 22.3652 9.49805 22.4795C9.76888 22.5895 10.1455 22.689 10.6279 22.7778L10.6787 23Z" fill="black"/>
<path d="M57.6787 72H52.334L52.3848 71.7778C52.9561 71.6636 53.3665 71.5493 53.6162 71.4351C53.8701 71.3208 54.0965 71.1367 54.2954 70.8828C54.4985 70.6289 54.6551 70.3454 54.7651 70.0322C54.8794 69.7148 54.9365 69.3953 54.9365 69.0737L54.9238 68.7754C54.6826 69.2832 54.3737 69.6619 53.9971 69.9116C53.6204 70.1613 53.2438 70.2861 52.8672 70.2861C52.5413 70.2861 52.2409 70.2057 51.9658 70.0449C51.695 69.8841 51.4855 69.6704 51.3374 69.4038C51.1893 69.1372 51.1152 68.841 51.1152 68.5151C51.1152 68.0285 51.2697 67.618 51.5786 67.2837C51.8875 66.9494 52.2388 66.7801 52.6323 66.7759C52.8947 66.7759 53.2375 66.8838 53.6606 67.0996C53.4998 66.8245 53.3835 66.6024 53.3115 66.4331C53.265 66.2765 53.2417 66.1178 53.2417 65.957C53.2417 65.445 53.4131 65.0303 53.7559 64.7129C54.0986 64.3955 54.5091 64.2368 54.9873 64.2368C55.4782 64.2368 55.8929 64.4061 56.2314 64.7446C56.57 65.0832 56.7393 65.4788 56.7393 65.9316C56.7393 66.2956 56.5933 66.6849 56.3013 67.0996C56.6567 66.9303 56.8683 66.8394 56.936 66.8267C57.0291 66.7928 57.1582 66.7759 57.3232 66.7759C57.7676 66.7759 58.1336 66.9409 58.4214 67.271C58.7303 67.5926 58.8848 67.9989 58.8848 68.4897C58.8848 68.9806 58.7197 69.4017 58.3896 69.7529C58.0596 70.0999 57.6491 70.2734 57.1582 70.2734C56.9212 70.2734 56.6779 70.2227 56.4282 70.1211C56.1785 70.0153 55.9521 69.8757 55.749 69.7021C55.5501 69.5286 55.3216 69.2197 55.0635 68.7754C55.0846 69.3086 55.146 69.7381 55.2476 70.064C55.3534 70.3856 55.5205 70.6733 55.749 70.9272C55.9818 71.1812 56.2314 71.3652 56.498 71.4795C56.7689 71.5895 57.1455 71.689 57.6279 71.7778L57.6787 72Z" fill="black"/>
<defs>
<linearGradient id="paint0_linear" x1="31" y1="0" x2="31" y2="88" gradientUnits="userSpaceOnUse">
<stop stop-color="white"/>
<stop offset="1" stop-color="#EEEEEE"/>
</linearGradient>
</defs>
</svg>
