<svg width="62" height="88" viewBox="0 0 62 88" fill="none" xmlns="http://www.w3.org/2000/svg">
<rect width="62" height="88" fill="url(#paint0_linear)"/>
<path d="M9.83887 7.93457C9.25098 8.72298 8.4694 9.11719 7.49414 9.11719C6.6556 9.11719 5.93555 8.83008 5.33398 8.25586C4.73242 7.67708 4.43164 6.93197 4.43164 6.02051C4.43164 5.10905 4.7347 4.3138 5.34082 3.63477C5.9515 2.95117 6.74902 2.60938 7.7334 2.60938C9.03223 2.60938 10.0098 3.12435 10.666 4.1543C11.222 5.02474 11.5 6.11849 11.5 7.43555C11.5 9.22656 11.1217 10.6257 10.3652 11.6328C9.60872 12.6354 8.65853 13.1367 7.51465 13.1367C6.70801 13.1367 6.04948 12.9476 5.53906 12.5693C5.0332 12.1865 4.78027 11.749 4.78027 11.2568C4.78027 10.7646 4.97624 10.4251 5.36816 10.2383C5.48665 10.179 5.61426 10.1494 5.75098 10.1494C6.02897 10.1494 6.25456 10.2406 6.42773 10.4229C6.60547 10.6051 6.69434 10.8239 6.69434 11.0791C6.69434 11.4574 6.53483 11.7308 6.21582 11.8994C6.43001 12.1501 6.7627 12.2754 7.21387 12.2754C8.05241 12.2754 8.7041 11.9655 9.16895 11.3457C9.63835 10.7259 9.87305 9.88509 9.87305 8.82324C9.87305 8.60905 9.86165 8.31283 9.83887 7.93457ZM7.81543 8.23535C8.32585 8.23535 8.74967 8.0166 9.08691 7.5791C9.42415 7.1416 9.59277 6.55599 9.59277 5.82227C9.59277 5.08854 9.4196 4.51204 9.07324 4.09277C8.73145 3.6735 8.32357 3.46387 7.84961 3.46387C7.37565 3.46387 6.96549 3.68945 6.61914 4.14062C6.27279 4.58724 6.09961 5.17513 6.09961 5.9043C6.09961 6.63346 6.25911 7.2054 6.57812 7.62012C6.89714 8.03027 7.30957 8.23535 7.81543 8.23535Z" fill="black"/>
<path d="M55.8389 79.9346C55.251 80.723 54.4694 81.1172 53.4941 81.1172C52.6556 81.1172 51.9355 80.8301 51.334 80.2559C50.7324 79.6771 50.4316 78.932 50.4316 78.0205C50.4316 77.109 50.7347 76.3138 51.3408 75.6348C51.9515 74.9512 52.749 74.6094 53.7334 74.6094C55.0322 74.6094 56.0098 75.1243 56.666 76.1543C57.222 77.0247 57.5 78.1185 57.5 79.4355C57.5 81.2266 57.1217 82.6257 56.3652 83.6328C55.6087 84.6354 54.6585 85.1367 53.5146 85.1367C52.708 85.1367 52.0495 84.9476 51.5391 84.5693C51.0332 84.1865 50.7803 83.749 50.7803 83.2568C50.7803 82.7646 50.9762 82.4251 51.3682 82.2383C51.4867 82.179 51.6143 82.1494 51.751 82.1494C52.029 82.1494 52.2546 82.2406 52.4277 82.4229C52.6055 82.6051 52.6943 82.8239 52.6943 83.0791C52.6943 83.4574 52.5348 83.7308 52.2158 83.8994C52.43 84.1501 52.7627 84.2754 53.2139 84.2754C54.0524 84.2754 54.7041 83.9655 55.1689 83.3457C55.6383 82.7259 55.873 81.8851 55.873 80.8232C55.873 80.609 55.8617 80.3128 55.8389 79.9346ZM53.8154 80.2354C54.3258 80.2354 54.7497 80.0166 55.0869 79.5791C55.4242 79.1416 55.5928 78.556 55.5928 77.8223C55.5928 77.0885 55.4196 76.512 55.0732 76.0928C54.7314 75.6735 54.3236 75.4639 53.8496 75.4639C53.3757 75.4639 52.9655 75.6895 52.6191 76.1406C52.2728 76.5872 52.0996 77.1751 52.0996 77.9043C52.0996 78.6335 52.2591 79.2054 52.5781 79.6201C52.8971 80.0303 53.3096 80.2354 53.8154 80.2354Z" fill="black"/>
<path d="M31 34.3613C31.293 35.4863 31.7207 36.5469 32.2832 37.543C32.8457 38.5273 34.0117 39.834 35.7812 41.4629C37.4336 42.9395 38.4648 44.0645 38.875 44.8379C39.2852 45.6113 39.502 46.4141 39.5254 47.2461C39.5254 48.3711 39.1445 49.3086 38.3828 50.0586C37.6211 50.8086 36.7305 51.1836 35.7109 51.1836C33.8711 51.1836 32.3711 50.0645 31.2109 47.8262C31.2461 49.6895 31.4922 51.1074 31.9492 52.0801C32.418 53.0527 33.127 53.8145 34.0762 54.3652C35.0371 54.916 36.291 55.2441 37.8379 55.3496L37.9785 56H24.0566L24.1621 55.3496C25.6152 55.3496 26.8457 55.0684 27.8535 54.5059C28.8613 53.9316 29.6172 53.1406 30.1211 52.1328C30.6367 51.125 30.8945 49.7715 30.8945 48.0723V47.8262C29.8398 50.0645 28.3164 51.1836 26.3242 51.1836C25.2812 51.1836 24.3789 50.8086 23.6172 50.0586C22.8555 49.3086 22.4746 48.3945 22.4746 47.3164C22.4746 46.2734 22.7324 45.3535 23.248 44.5566C23.7754 43.7598 24.6191 42.8809 25.7793 41.9199C27.4082 40.5254 28.6094 39.2832 29.3828 38.1934C30.1562 37.1035 30.6953 35.8262 31 34.3613Z" fill="black"/>
<path d="M8 15.186C8.10579 15.5923 8.26025 15.9753 8.46338 16.335C8.6665 16.6904 9.08757 17.1623 9.72656 17.7505C10.3232 18.2837 10.6956 18.6899 10.8438 18.9692C10.9919 19.2485 11.0701 19.5384 11.0786 19.8389C11.0786 20.2451 10.9411 20.5837 10.666 20.8545C10.391 21.1253 10.0693 21.2607 9.70117 21.2607C9.03678 21.2607 8.49512 20.8566 8.07617 20.0483C8.08887 20.7212 8.17773 21.2332 8.34277 21.5845C8.51204 21.9357 8.76807 22.2108 9.11084 22.4097C9.45785 22.6086 9.91064 22.7271 10.4692 22.7651L10.52 23H5.49268L5.53076 22.7651C6.0555 22.7651 6.49984 22.6636 6.86377 22.4604C7.2277 22.2531 7.50065 21.9674 7.68262 21.6035C7.86882 21.2396 7.96191 20.7508 7.96191 20.1372V20.0483C7.58105 20.8566 7.03092 21.2607 6.31152 21.2607C5.9349 21.2607 5.60905 21.1253 5.33398 20.8545C5.05892 20.5837 4.92139 20.2536 4.92139 19.8643C4.92139 19.4876 5.01449 19.1554 5.20068 18.8677C5.39111 18.5799 5.6958 18.2625 6.11475 17.9155C6.70296 17.4119 7.13672 16.9634 7.41602 16.5698C7.69531 16.1763 7.88997 15.715 8 15.186Z" fill="black"/>
<path d="M55 64.186C55.1058 64.5923 55.2603 64.9753 55.4634 65.335C55.6665 65.6904 56.0876 66.1623 56.7266 66.7505C57.3232 67.2837 57.6956 67.6899 57.8438 67.9692C57.9919 68.2485 58.0701 68.5384 58.0786 68.8389C58.0786 69.2451 57.9411 69.5837 57.666 69.8545C57.391 70.1253 57.0693 70.2607 56.7012 70.2607C56.0368 70.2607 55.4951 69.8566 55.0762 69.0483C55.0889 69.7212 55.1777 70.2332 55.3428 70.5845C55.512 70.9357 55.7681 71.2108 56.1108 71.4097C56.4578 71.6086 56.9106 71.7271 57.4692 71.7651L57.52 72H52.4927L52.5308 71.7651C53.0555 71.7651 53.4998 71.6636 53.8638 71.4604C54.2277 71.2531 54.5007 70.9674 54.6826 70.6035C54.8688 70.2396 54.9619 69.7508 54.9619 69.1372V69.0483C54.5811 69.8566 54.0309 70.2607 53.3115 70.2607C52.9349 70.2607 52.609 70.1253 52.334 69.8545C52.0589 69.5837 51.9214 69.2536 51.9214 68.8643C51.9214 68.4876 52.0145 68.1554 52.2007 67.8677C52.3911 67.5799 52.6958 67.2625 53.1147 66.9155C53.703 66.4119 54.1367 65.9634 54.416 65.5698C54.6953 65.1763 54.89 64.715 55 64.186Z" fill="black"/>
<defs>
<linearGradient id="paint0_linear" x1="31" y1="0" x2="31" y2="88" gradientUnits="userSpaceOnUse">
<stop stop-color="white"/>
<stop offset="1" stop-color="#EEEEEE"/>
</linearGradient>
</defs>
</svg>
