<svg width="62" height="88" viewBox="0 0 62 88" fill="none" xmlns="http://www.w3.org/2000/svg">
<rect width="62" height="88" fill="url(#paint0_linear)"/>
<path d="M9.83887 7.93457C9.25098 8.72298 8.4694 9.11719 7.49414 9.11719C6.6556 9.11719 5.93555 8.83008 5.33398 8.25586C4.73242 7.67708 4.43164 6.93197 4.43164 6.02051C4.43164 5.10905 4.7347 4.3138 5.34082 3.63477C5.9515 2.95117 6.74902 2.60938 7.7334 2.60938C9.03223 2.60938 10.0098 3.12435 10.666 4.1543C11.222 5.02474 11.5 6.11849 11.5 7.43555C11.5 9.22656 11.1217 10.6257 10.3652 11.6328C9.60872 12.6354 8.65853 13.1367 7.51465 13.1367C6.70801 13.1367 6.04948 12.9476 5.53906 12.5693C5.0332 12.1865 4.78027 11.749 4.78027 11.2568C4.78027 10.7646 4.97624 10.4251 5.36816 10.2383C5.48665 10.179 5.61426 10.1494 5.75098 10.1494C6.02897 10.1494 6.25456 10.2406 6.42773 10.4229C6.60547 10.6051 6.69434 10.8239 6.69434 11.0791C6.69434 11.4574 6.53483 11.7308 6.21582 11.8994C6.43001 12.1501 6.7627 12.2754 7.21387 12.2754C8.05241 12.2754 8.7041 11.9655 9.16895 11.3457C9.63835 10.7259 9.87305 9.88509 9.87305 8.82324C9.87305 8.60905 9.86165 8.31283 9.83887 7.93457ZM7.81543 8.23535C8.32585 8.23535 8.74967 8.0166 9.08691 7.5791C9.42415 7.1416 9.59277 6.55599 9.59277 5.82227C9.59277 5.08854 9.4196 4.51204 9.07324 4.09277C8.73145 3.6735 8.32357 3.46387 7.84961 3.46387C7.37565 3.46387 6.96549 3.68945 6.61914 4.14062C6.27279 4.58724 6.09961 5.17513 6.09961 5.9043C6.09961 6.63346 6.25911 7.2054 6.57812 7.62012C6.89714 8.03027 7.30957 8.23535 7.81543 8.23535Z" fill="#C50000"/>
<path d="M55.8389 79.9346C55.251 80.723 54.4694 81.1172 53.4941 81.1172C52.6556 81.1172 51.9355 80.8301 51.334 80.2559C50.7324 79.6771 50.4316 78.932 50.4316 78.0205C50.4316 77.109 50.7347 76.3138 51.3408 75.6348C51.9515 74.9512 52.749 74.6094 53.7334 74.6094C55.0322 74.6094 56.0098 75.1243 56.666 76.1543C57.222 77.0247 57.5 78.1185 57.5 79.4355C57.5 81.2266 57.1217 82.6257 56.3652 83.6328C55.6087 84.6354 54.6585 85.1367 53.5146 85.1367C52.708 85.1367 52.0495 84.9476 51.5391 84.5693C51.0332 84.1865 50.7803 83.749 50.7803 83.2568C50.7803 82.7646 50.9762 82.4251 51.3682 82.2383C51.4867 82.179 51.6143 82.1494 51.751 82.1494C52.029 82.1494 52.2546 82.2406 52.4277 82.4229C52.6055 82.6051 52.6943 82.8239 52.6943 83.0791C52.6943 83.4574 52.5348 83.7308 52.2158 83.8994C52.43 84.1501 52.7627 84.2754 53.2139 84.2754C54.0524 84.2754 54.7041 83.9655 55.1689 83.3457C55.6383 82.7259 55.873 81.8851 55.873 80.8232C55.873 80.609 55.8617 80.3128 55.8389 79.9346ZM53.8154 80.2354C54.3258 80.2354 54.7497 80.0166 55.0869 79.5791C55.4242 79.1416 55.5928 78.556 55.5928 77.8223C55.5928 77.0885 55.4196 76.512 55.0732 76.0928C54.7314 75.6735 54.3236 75.4639 53.8496 75.4639C53.3757 75.4639 52.9655 75.6895 52.6191 76.1406C52.2728 76.5872 52.0996 77.1751 52.0996 77.9043C52.0996 78.6335 52.2591 79.2054 52.5781 79.6201C52.8971 80.0303 53.3096 80.2354 53.8154 80.2354Z" fill="#C50000"/>
<path d="M31.0352 56.4043C30.7773 55.3965 30.3789 54.3594 29.8398 53.293C29.3125 52.2266 28.0176 50.3105 25.9551 47.5449L24.373 45.3828C23.4941 44.2109 22.8965 43.25 22.5801 42.5C22.2637 41.7383 22.1055 40.9707 22.1055 40.1973C22.1055 38.9434 22.5098 37.918 23.3184 37.1211C24.1387 36.3125 25.1406 35.9082 26.3242 35.9082C27.3438 35.9082 28.2695 36.2422 29.1016 36.9102C29.9453 37.5781 30.5898 38.6152 31.0352 40.0215C31.4336 38.627 32.0488 37.5898 32.8809 36.9102C33.7129 36.2188 34.6445 35.873 35.6758 35.873C36.8125 35.873 37.7969 36.2715 38.6289 37.0684C39.4727 37.8652 39.8945 38.8379 39.8945 39.9863C39.8945 40.9941 39.6367 42.0547 39.1211 43.168C38.6055 44.2812 37.6973 45.6406 36.3965 47.2461C34.7559 49.3438 33.5547 51.0195 32.793 52.2734C32.043 53.5156 31.457 54.8926 31.0352 56.4043Z" fill="#C50000"/>
<path d="M8.0127 23.146C7.9196 22.7821 7.77572 22.4076 7.58105 22.0225C7.39062 21.6374 6.92301 20.9455 6.17822 19.9468L5.60693 19.166C5.28955 18.7428 5.07373 18.3958 4.95947 18.125C4.84521 17.8499 4.78809 17.5728 4.78809 17.2935C4.78809 16.8407 4.93408 16.4704 5.22607 16.1826C5.5223 15.8906 5.88411 15.7446 6.31152 15.7446C6.67969 15.7446 7.014 15.8652 7.31445 16.1064C7.61914 16.3477 7.85189 16.7222 8.0127 17.23C8.15658 16.7264 8.37874 16.3519 8.6792 16.1064C8.97965 15.8568 9.31608 15.7319 9.68848 15.7319C10.099 15.7319 10.4544 15.8758 10.7549 16.1636C11.0596 16.4513 11.2119 16.8026 11.2119 17.2173C11.2119 17.5812 11.1188 17.9642 10.9326 18.3662C10.7464 18.7682 10.4185 19.2591 9.94873 19.8389C9.35628 20.5964 8.92253 21.2015 8.64746 21.6543C8.37663 22.1029 8.16504 22.6001 8.0127 23.146Z" fill="#C50000"/>
<path d="M55.0127 72.146C54.9196 71.7821 54.7757 71.4076 54.5811 71.0225C54.3906 70.6374 53.923 69.9455 53.1782 68.9468L52.6069 68.166C52.2896 67.7428 52.0737 67.3958 51.9595 67.125C51.8452 66.8499 51.7881 66.5728 51.7881 66.2935C51.7881 65.8407 51.9341 65.4704 52.2261 65.1826C52.5223 64.8906 52.8841 64.7446 53.3115 64.7446C53.6797 64.7446 54.014 64.8652 54.3145 65.1064C54.6191 65.3477 54.8519 65.7222 55.0127 66.23C55.1566 65.7264 55.3787 65.3519 55.6792 65.1064C55.9797 64.8568 56.3161 64.7319 56.6885 64.7319C57.099 64.7319 57.4544 64.8758 57.7549 65.1636C58.0596 65.4513 58.2119 65.8026 58.2119 66.2173C58.2119 66.5812 58.1188 66.9642 57.9326 67.3662C57.7464 67.7682 57.4185 68.2591 56.9487 68.8389C56.3563 69.5964 55.9225 70.2015 55.6475 70.6543C55.3766 71.1029 55.165 71.6001 55.0127 72.146Z" fill="#C50000"/>
<defs>
<linearGradient id="paint0_linear" x1="31" y1="0" x2="31" y2="88" gradientUnits="userSpaceOnUse">
<stop stop-color="white"/>
<stop offset="1" stop-color="#EEEEEE"/>
</linearGradient>
</defs>
</svg>
