<svg width="62" height="88" viewBox="0 0 62 88" fill="none" xmlns="http://www.w3.org/2000/svg">
<rect width="62" height="88" fill="url(#paint0_linear)"/>
<path d="M9.83887 7.93457C9.25098 8.72298 8.4694 9.11719 7.49414 9.11719C6.6556 9.11719 5.93555 8.83008 5.33398 8.25586C4.73242 7.67708 4.43164 6.93197 4.43164 6.02051C4.43164 5.10905 4.7347 4.3138 5.34082 3.63477C5.9515 2.95117 6.74902 2.60938 7.7334 2.60938C9.03223 2.60938 10.0098 3.12435 10.666 4.1543C11.222 5.02474 11.5 6.11849 11.5 7.43555C11.5 9.22656 11.1217 10.6257 10.3652 11.6328C9.60872 12.6354 8.65853 13.1367 7.51465 13.1367C6.70801 13.1367 6.04948 12.9476 5.53906 12.5693C5.0332 12.1865 4.78027 11.749 4.78027 11.2568C4.78027 10.7646 4.97624 10.4251 5.36816 10.2383C5.48665 10.179 5.61426 10.1494 5.75098 10.1494C6.02897 10.1494 6.25456 10.2406 6.42773 10.4229C6.60547 10.6051 6.69434 10.8239 6.69434 11.0791C6.69434 11.4574 6.53483 11.7308 6.21582 11.8994C6.43001 12.1501 6.7627 12.2754 7.21387 12.2754C8.05241 12.2754 8.7041 11.9655 9.16895 11.3457C9.63835 10.7259 9.87305 9.88509 9.87305 8.82324C9.87305 8.60905 9.86165 8.31283 9.83887 7.93457ZM7.81543 8.23535C8.32585 8.23535 8.74967 8.0166 9.08691 7.5791C9.42415 7.1416 9.59277 6.55599 9.59277 5.82227C9.59277 5.08854 9.4196 4.51204 9.07324 4.09277C8.73145 3.6735 8.32357 3.46387 7.84961 3.46387C7.37565 3.46387 6.96549 3.68945 6.61914 4.14062C6.27279 4.58724 6.09961 5.17513 6.09961 5.9043C6.09961 6.63346 6.25911 7.2054 6.57812 7.62012C6.89714 8.03027 7.30957 8.23535 7.81543 8.23535Z" fill="#C50000"/>
<path d="M55.8389 79.9346C55.251 80.723 54.4694 81.1172 53.4941 81.1172C52.6556 81.1172 51.9355 80.8301 51.334 80.2559C50.7324 79.6771 50.4316 78.932 50.4316 78.0205C50.4316 77.109 50.7347 76.3138 51.3408 75.6348C51.9515 74.9512 52.749 74.6094 53.7334 74.6094C55.0322 74.6094 56.0098 75.1243 56.666 76.1543C57.222 77.0247 57.5 78.1185 57.5 79.4355C57.5 81.2266 57.1217 82.6257 56.3652 83.6328C55.6087 84.6354 54.6585 85.1367 53.5146 85.1367C52.708 85.1367 52.0495 84.9476 51.5391 84.5693C51.0332 84.1865 50.7803 83.749 50.7803 83.2568C50.7803 82.7646 50.9762 82.4251 51.3682 82.2383C51.4867 82.179 51.6143 82.1494 51.751 82.1494C52.029 82.1494 52.2546 82.2406 52.4277 82.4229C52.6055 82.6051 52.6943 82.8239 52.6943 83.0791C52.6943 83.4574 52.5348 83.7308 52.2158 83.8994C52.43 84.1501 52.7627 84.2754 53.2139 84.2754C54.0524 84.2754 54.7041 83.9655 55.1689 83.3457C55.6383 82.7259 55.873 81.8851 55.873 80.8232C55.873 80.609 55.8617 80.3128 55.8389 79.9346ZM53.8154 80.2354C54.3258 80.2354 54.7497 80.0166 55.0869 79.5791C55.4242 79.1416 55.5928 78.556 55.5928 77.8223C55.5928 77.0885 55.4196 76.512 55.0732 76.0928C54.7314 75.6735 54.3236 75.4639 53.8496 75.4639C53.3757 75.4639 52.9655 75.6895 52.6191 76.1406C52.2728 76.5872 52.0996 77.1751 52.0996 77.9043C52.0996 78.6335 52.2591 79.2054 52.5781 79.6201C52.8971 80.0303 53.3096 80.2354 53.8154 80.2354Z" fill="#C50000"/>
<path d="M30.9297 34.502C31.7734 35.9668 32.9688 37.7598 34.5156 39.8809C36.0742 41.9902 37.5684 43.8477 38.998 45.4531C38.2012 46.2734 36.9062 47.8789 35.1133 50.2695C33.3203 52.6484 31.9375 54.7051 30.9648 56.4395C30.5312 55.6074 29.7695 54.4297 28.6797 52.9062C27.6016 51.3711 26.6289 50.0469 25.7617 48.9336C24.8945 47.8086 23.9629 46.6484 22.9668 45.4531C24.3262 43.8477 25.7617 42.0371 27.2734 40.0215C28.7969 37.9941 30.0156 36.1543 30.9297 34.502Z" fill="#C50000"/>
<path d="M7.97461 15.2368C8.2793 15.7658 8.71094 16.4132 9.26953 17.1792C9.83236 17.9409 10.3719 18.6117 10.8882 19.1914C10.6004 19.4876 10.1328 20.0674 9.48535 20.9307C8.83789 21.7897 8.33854 22.5324 7.9873 23.1587C7.83073 22.8582 7.55566 22.4329 7.16211 21.8828C6.77279 21.3285 6.42155 20.8503 6.1084 20.4482C5.79525 20.042 5.45882 19.623 5.09912 19.1914C5.59001 18.6117 6.1084 17.9578 6.6543 17.23C7.20443 16.4979 7.64453 15.8335 7.97461 15.2368Z" fill="#C50000"/>
<path d="M54.9746 64.2368C55.2793 64.7658 55.7109 65.4132 56.2695 66.1792C56.8324 66.9409 57.3719 67.6117 57.8882 68.1914C57.6004 68.4876 57.1328 69.0674 56.4854 69.9307C55.8379 70.7897 55.3385 71.5324 54.9873 72.1587C54.8307 71.8582 54.5557 71.4329 54.1621 70.8828C53.7728 70.3285 53.4215 69.8503 53.1084 69.4482C52.7952 69.042 52.4588 68.623 52.0991 68.1914C52.59 67.6117 53.1084 66.9578 53.6543 66.23C54.2044 65.4979 54.6445 64.8335 54.9746 64.2368Z" fill="#C50000"/>
<defs>
<linearGradient id="paint0_linear" x1="31" y1="0" x2="31" y2="88" gradientUnits="userSpaceOnUse">
<stop stop-color="white"/>
<stop offset="1" stop-color="#EEEEEE"/>
</linearGradient>
</defs>
</svg>
