<svg width="62" height="88" viewBox="0 0 62 88" fill="none" xmlns="http://www.w3.org/2000/svg">
<rect width="62" height="88" fill="url(#paint0_linear)"/>
<path d="M2.51758 12.248C2.89583 12.248 3.18066 12.1911 3.37207 12.0771C3.56803 11.9587 3.71842 11.7673 3.82324 11.5029L7.51465 2.74609H8.68359L12.0605 11.5029C12.1836 11.7946 12.3203 11.9928 12.4707 12.0977C12.6211 12.1979 12.915 12.248 13.3525 12.248V13H9.13477V12.248C9.73633 12.248 10.0918 12.207 10.2012 12.125C10.3151 12.043 10.3675 11.9541 10.3584 11.8584C10.3538 11.7627 10.3242 11.6442 10.2695 11.5029L9.6543 9.78711H5.68262L4.97852 11.5029C4.8737 11.7764 4.9056 11.9701 5.07422 12.084C5.24284 12.1934 5.63704 12.248 6.25684 12.248V13H2.51758V12.248ZM9.3877 9.03516L7.80176 4.60547L5.99023 9.03516H9.3877Z" fill="#C50000"/>
<path d="M48.5176 84.248C48.8958 84.248 49.1807 84.1911 49.3721 84.0771C49.568 83.9587 49.7184 83.7673 49.8232 83.5029L53.5146 74.7461H54.6836L58.0605 83.5029C58.1836 83.7946 58.3203 83.9928 58.4707 84.0977C58.6211 84.1979 58.915 84.248 59.3525 84.248V85H55.1348V84.248C55.7363 84.248 56.0918 84.207 56.2012 84.125C56.3151 84.043 56.3675 83.9541 56.3584 83.8584C56.3538 83.7627 56.3242 83.6442 56.2695 83.5029L55.6543 81.7871H51.6826L50.9785 83.5029C50.8737 83.7764 50.9056 83.9701 51.0742 84.084C51.2428 84.1934 51.637 84.248 52.2568 84.248V85H48.5176V84.248ZM55.3877 81.0352L53.8018 76.6055L51.9902 81.0352H55.3877Z" fill="#C50000"/>
<path d="M30.9297 34.502C31.7734 35.9668 32.9688 37.7598 34.5156 39.8809C36.0742 41.9902 37.5684 43.8477 38.998 45.4531C38.2012 46.2734 36.9062 47.8789 35.1133 50.2695C33.3203 52.6484 31.9375 54.7051 30.9648 56.4395C30.5312 55.6074 29.7695 54.4297 28.6797 52.9062C27.6016 51.3711 26.6289 50.0469 25.7617 48.9336C24.8945 47.8086 23.9629 46.6484 22.9668 45.4531C24.3262 43.8477 25.7617 42.0371 27.2734 40.0215C28.7969 37.9941 30.0156 36.1543 30.9297 34.502Z" fill="#C50000"/>
<path d="M7.97461 15.2368C8.2793 15.7658 8.71094 16.4132 9.26953 17.1792C9.83236 17.9409 10.3719 18.6117 10.8882 19.1914C10.6004 19.4876 10.1328 20.0674 9.48535 20.9307C8.83789 21.7897 8.33854 22.5324 7.9873 23.1587C7.83073 22.8582 7.55566 22.4329 7.16211 21.8828C6.77279 21.3285 6.42155 20.8503 6.1084 20.4482C5.79525 20.042 5.45882 19.623 5.09912 19.1914C5.59001 18.6117 6.1084 17.9578 6.6543 17.23C7.20443 16.4979 7.64453 15.8335 7.97461 15.2368Z" fill="#C50000"/>
<path d="M54.9746 64.2368C55.2793 64.7658 55.7109 65.4132 56.2695 66.1792C56.8324 66.9409 57.3719 67.6117 57.8882 68.1914C57.6004 68.4876 57.1328 69.0674 56.4854 69.9307C55.8379 70.7897 55.3385 71.5324 54.9873 72.1587C54.8307 71.8582 54.5557 71.4329 54.1621 70.8828C53.7728 70.3285 53.4215 69.8503 53.1084 69.4482C52.7952 69.042 52.4588 68.623 52.0991 68.1914C52.59 67.6117 53.1084 66.9578 53.6543 66.23C54.2044 65.4979 54.6445 64.8335 54.9746 64.2368Z" fill="#C50000"/>
<defs>
<linearGradient id="paint0_linear" x1="31" y1="0" x2="31" y2="88" gradientUnits="userSpaceOnUse">
<stop stop-color="white"/>
<stop offset="1" stop-color="#EEEEEE"/>
</linearGradient>
</defs>
</svg>
