<svg width="62" height="88" viewBox="0 0 62 88" fill="none" xmlns="http://www.w3.org/2000/svg">
<rect width="62" height="88" fill="url(#paint0_linear)"/>
<rect x="3" y="3" width="56" height="82" rx="4" fill="#004D85"/>
<path d="M24 80C13.7436 76.1212 11.2071 70.9929 8 64L8 80L24 80Z" fill="white" fill-opacity="0.7" stroke="#004D85" stroke-opacity="0.5"/>
<path d="M39 8C49.2564 11.8788 51.7929 17.0071 55 24L55 8L39 8Z" fill="white" fill-opacity="0.7" stroke="#004D85" stroke-opacity="0.5"/>
<path d="M55 64C51.1212 74.2564 45.9929 76.7929 39 80L55 80L55 64Z" fill="white" fill-opacity="0.7" stroke="#004D85" stroke-opacity="0.5"/>
<path d="M8 24C11.8788 13.7436 17.0071 11.2071 24 8H8V24Z" fill="white" fill-opacity="0.7" stroke="#004D85" stroke-opacity="0.5"/>
<path d="M42 44C42 50.0751 37.0751 55 31 55C24.9249 55 20 50.0751 20 44C20 37.9249 24.9249 33 31 33C37.0751 33 42 37.9249 42 44Z" fill="white"/>
<path d="M42 33C42 39.0751 37.0751 44 31 44C24.9249 44 20 39.0751 20 33C20 26.9249 24.9249 22 31 22C37.0751 22 42 26.9249 42 33Z" fill="white"/>
<path d="M51 38C51 44.0751 46.0751 49 40 49C33.9249 49 29 44.0751 29 38C29 31.9249 33.9249 27 40 27C46.0751 27 51 31.9249 51 38Z" fill="white"/>
<path d="M33 38C33 44.0751 28.0751 49 22 49C15.9249 49 11 44.0751 11 38C11 31.9249 15.9249 27 22 27C28.0751 27 33 31.9249 33 38Z" fill="white"/>
<path d="M33 49C33 55.0751 28.0751 60 22 60C15.9249 60 11 55.0751 11 49C11 42.9249 15.9249 38 22 38C28.0751 38 33 42.9249 33 49Z" fill="white"/>
<path d="M51 49C51 55.0751 46.0751 60 40 60C33.9249 60 29 55.0751 29 49C29 42.9249 33.9249 38 40 38C46.0751 38 51 42.9249 51 49Z" fill="white"/>
<path d="M42 55C42 61.0751 37.0751 66 31 66C24.9249 66 20 61.0751 20 55C20 48.9249 24.9249 44 31 44C37.0751 44 42 48.9249 42 55Z" fill="white"/>
<path d="M41.5 44C41.5 45.6059 41.1395 47.1276 40.495 48.4885C40.4902 48.4888 40.4855 48.489 40.4807 48.4892C39.0242 46.3723 36.8771 44.7676 34.3645 44C36.8818 43.231 39.0323 41.6216 40.489 39.4988C41.1372 40.863 41.5 42.3891 41.5 44ZM41.102 49.5C41.112 49.4817 41.1219 49.4634 41.1318 49.445C44.6005 49.1062 47.6174 47.2262 49.489 44.4988C50.1372 45.863 50.5 47.3891 50.5 49C50.5 54.2413 46.6597 58.5856 41.6395 59.3728C42.1941 58.0247 42.5 56.5481 42.5 55C42.5 53.0077 41.9934 51.1338 41.102 49.5ZM39.9459 49.4999C39.9459 49.4999 39.946 49.5 39.946 49.5C38.285 52.196 35.4394 54.0843 32.1348 54.4394C33.0058 52.8199 33.5 50.9677 33.5 49C33.5 48.4614 33.463 47.9315 33.3913 47.4126C35.2474 48.7182 37.507 49.4886 39.9459 49.4999ZM39.2244 48.4718C36.876 48.3003 34.7421 47.3565 33.0754 45.8933C32.9543 45.4604 32.8084 45.0379 32.6395 44.6272C35.2964 45.0438 37.6229 46.4568 39.2244 48.4718ZM39.9459 38.5001C38.2849 41.196 35.4394 43.0843 32.1348 43.4394C32.5293 42.7059 32.8465 41.9248 33.0754 41.1068C34.9113 39.495 37.3141 38.5134 39.9459 38.5001ZM39.265 37.5231C37.0869 37.6605 35.0734 38.4042 33.3913 39.5874C33.463 39.0685 33.5 38.5386 33.5 38C33.5 36.4519 33.1941 34.9753 32.6395 33.6272C35.3189 34.0474 37.6623 35.4808 39.265 37.5231ZM31.495 33.5115C32.1395 34.8724 32.5 36.3941 32.5 38C32.5 38.8843 32.3907 39.7431 32.1848 40.5635C31.7586 40.9585 31.3624 41.3854 31 41.8404C30.6376 41.3854 30.2414 40.9585 29.8152 40.5635C29.6093 39.7431 29.5 38.8843 29.5 38C29.5 36.3941 29.8605 34.8724 30.505 33.5115C30.6691 33.5038 30.8341 33.5 31 33.5C31.1659 33.5 31.3309 33.5038 31.495 33.5115ZM40.489 37.5012C38.6174 34.7738 35.6005 32.8938 32.1318 32.555C31.971 32.2564 31.7973 31.9656 31.6116 31.6836C33.5179 29.1559 36.5403 27.5173 39.9461 27.5001C40.9315 29.0996 41.5 30.9834 41.5 33C41.5 34.6109 41.1372 36.137 40.489 37.5012ZM39.265 26.5231C35.9206 26.7341 32.9642 28.3745 31 30.8404C29.0358 28.3745 26.0794 26.7341 22.735 26.5231C24.6573 24.0736 27.6449 22.5 31 22.5C34.3551 22.5 37.3427 24.0736 39.265 26.5231ZM42.5 33C42.5 31.0323 42.0058 29.1801 41.1348 27.5606C46.4001 28.1264 50.5 32.5844 50.5 38C50.5 39.6109 50.1372 41.137 49.489 42.5012C47.6916 39.8819 44.8378 38.0442 41.542 37.6025C42.1582 36.1932 42.5 34.6365 42.5 33ZM41.5 55C41.5 56.6059 41.1395 58.1276 40.495 59.4885C40.3309 59.4962 40.1659 59.5 40 59.5C36.6449 59.5 33.6573 57.9264 31.7351 55.4769C35.3699 55.2476 38.5464 53.3297 40.489 50.4988C41.1372 51.863 41.5 53.3891 41.5 55ZM31 56.1596C33.0966 58.7916 36.3235 60.4832 39.9461 60.4999C38.0977 63.5 34.7824 65.5 31 65.5C27.2176 65.5 23.9023 63.5 22.0539 60.4999C25.6765 60.4832 28.9034 58.7916 31 56.1596ZM28.5 49C28.5 50.9677 28.9942 52.8199 29.8652 54.4394C26.5606 54.0843 23.715 52.196 22.054 49.5C22.054 49.5 22.054 49.4999 22.0541 49.4999C24.493 49.4886 26.7526 48.7182 28.6087 47.4126C28.537 47.9315 28.5 48.4614 28.5 49ZM20.8682 49.445C20.8781 49.4634 20.888 49.4817 20.898 49.5C20.0066 51.1338 19.5 53.0077 19.5 55C19.5 56.5481 19.8059 58.0247 20.3605 59.3728C15.3403 58.5856 11.5 54.2413 11.5 49C11.5 47.3891 11.8628 45.863 12.511 44.4988C14.3826 47.2262 17.3995 49.1062 20.8682 49.445ZM20.3605 48.3728C17.2718 47.8885 14.6298 46.0577 13.054 43.5C14.715 40.804 17.5606 38.9157 20.8652 38.5606C19.9942 40.1801 19.5 42.0323 19.5 44C19.5 45.5481 19.8059 47.0247 20.3605 48.3728ZM21.505 48.4885C20.8605 47.1276 20.5 45.6059 20.5 44C20.5 42.3891 20.8628 40.863 21.511 39.4988C22.9677 41.6216 25.1182 43.231 27.6355 44C25.1229 44.7676 22.9758 46.3723 21.5193 48.4892C21.5145 48.489 21.5098 48.4888 21.505 48.4885ZM22.7756 48.4718C24.3771 46.4568 26.7036 45.0438 29.3605 44.6272C29.1916 45.0379 29.0457 45.4604 28.9246 45.8933C27.2579 47.3565 25.124 48.3003 22.7756 48.4718ZM29.8152 46.4365C30.2414 46.0415 30.6376 45.6146 31 45.1596C31.3624 45.6146 31.7586 46.0415 32.1848 46.4365C32.3907 47.2569 32.5 48.1157 32.5 49C32.5 50.9795 31.9522 52.8311 31 54.4114C30.0478 52.8311 29.5 50.9795 29.5 49C29.5 48.1157 29.6093 47.2569 29.8152 46.4365ZM28.9246 41.1068C29.1535 41.9248 29.4707 42.7059 29.8652 43.4394C26.5606 43.0843 23.7151 41.196 22.0541 38.5001C24.6859 38.5134 27.0887 39.495 28.9246 41.1068ZM28.6087 39.5874C26.9266 38.4042 24.9131 37.6605 22.735 37.5231C24.3377 35.4808 26.6811 34.0474 29.3605 33.6272C28.8059 34.9753 28.5 36.4519 28.5 38C28.5 38.5386 28.537 39.0685 28.6087 39.5874ZM30.3884 31.6836C30.2027 31.9656 30.029 32.2564 29.8682 32.555C26.3995 32.8938 23.3826 34.7738 21.511 37.5012C20.8628 36.137 20.5 34.6109 20.5 33C20.5 30.9834 21.0685 29.0996 22.0539 27.5001C25.4598 27.5173 28.4821 29.1559 30.3884 31.6836ZM19.5 33C19.5 34.6365 19.8418 36.1932 20.458 37.6025C17.1622 38.0442 14.3084 39.8819 12.511 42.5012C11.8628 41.137 11.5 39.6109 11.5 38C11.5 32.5844 15.5999 28.1264 20.8652 27.5606C19.9942 29.1801 19.5 31.0323 19.5 33ZM21.505 59.4885C20.8605 58.1276 20.5 56.6059 20.5 55C20.5 53.3891 20.8628 51.863 21.511 50.4988C23.4536 53.3297 26.6301 55.2476 30.2649 55.4769C28.3427 57.9264 25.3551 59.5 22 59.5C21.8341 59.5 21.6691 59.4962 21.505 59.4885ZM48.946 43.5C47.3702 46.0577 44.7282 47.8885 41.6395 48.3728C42.1941 47.0247 42.5 45.5481 42.5 44C42.5 42.0323 42.0058 40.1801 41.1348 38.5606C44.4394 38.9157 47.285 40.804 48.946 43.5Z" stroke="#004D85" stroke-opacity="0.81"/>
<defs>
<linearGradient id="paint0_linear" x1="31" y1="0" x2="31" y2="88" gradientUnits="userSpaceOnUse">
<stop stop-color="white"/>
<stop offset="1" stop-color="#EEEEEE"/>
</linearGradient>
</defs>
</svg>
