<svg width="62" height="88" viewBox="0 0 62 88" fill="none" xmlns="http://www.w3.org/2000/svg">
<rect width="62" height="88" fill="url(#paint0_linear)"/>
<path d="M7.2002 12.2686C8.46257 12.2686 9.09375 11.3389 9.09375 9.47949V4.24316C9.09375 3.94694 9.03223 3.76237 8.90918 3.68945C8.68587 3.56185 8.27572 3.49805 7.67871 3.49805V2.74609H11.7803V3.49805C11.3473 3.49805 11.0648 3.54134 10.9326 3.62793C10.8005 3.70996 10.7161 3.79883 10.6797 3.89453C10.6432 3.99023 10.625 4.10645 10.625 4.24316L10.6318 9.48633C10.6318 11.2865 10.0007 12.4258 8.73828 12.9043C8.32812 13.0592 7.87467 13.1367 7.37793 13.1367C6.43913 13.1367 5.6735 12.8952 5.08105 12.4121C4.49316 11.929 4.19922 11.3343 4.19922 10.6279C4.19922 10.2497 4.30632 9.94206 4.52051 9.70508C4.7347 9.46354 4.99902 9.34277 5.31348 9.34277C5.62793 9.34277 5.88314 9.44531 6.0791 9.65039C6.27507 9.85547 6.37305 10.0902 6.37305 10.3545C6.37305 10.6143 6.30924 10.8353 6.18164 11.0176C6.05404 11.1999 5.88997 11.332 5.68945 11.4141C5.79883 11.6784 5.99251 11.888 6.27051 12.043C6.55306 12.1934 6.86296 12.2686 7.2002 12.2686Z" fill="#C50000"/>
<path d="M53.2002 84.2686C54.4626 84.2686 55.0938 83.3389 55.0938 81.4795V76.2432C55.0938 75.9469 55.0322 75.7624 54.9092 75.6895C54.6859 75.5618 54.2757 75.498 53.6787 75.498V74.7461H57.7803V75.498C57.3473 75.498 57.0648 75.5413 56.9326 75.6279C56.8005 75.71 56.7161 75.7988 56.6797 75.8945C56.6432 75.9902 56.625 76.1064 56.625 76.2432L56.6318 81.4863C56.6318 83.2865 56.0007 84.4258 54.7383 84.9043C54.3281 85.0592 53.8747 85.1367 53.3779 85.1367C52.4391 85.1367 51.6735 84.8952 51.0811 84.4121C50.4932 83.929 50.1992 83.3343 50.1992 82.6279C50.1992 82.2497 50.3063 81.9421 50.5205 81.7051C50.7347 81.4635 50.999 81.3428 51.3135 81.3428C51.6279 81.3428 51.8831 81.4453 52.0791 81.6504C52.2751 81.8555 52.373 82.0902 52.373 82.3545C52.373 82.6143 52.3092 82.8353 52.1816 83.0176C52.054 83.1999 51.89 83.332 51.6895 83.4141C51.7988 83.6784 51.9925 83.888 52.2705 84.043C52.5531 84.1934 52.863 84.2686 53.2002 84.2686Z" fill="#C50000"/>
<path d="M30.9297 34.502C31.7734 35.9668 32.9688 37.7598 34.5156 39.8809C36.0742 41.9902 37.5684 43.8477 38.998 45.4531C38.2012 46.2734 36.9062 47.8789 35.1133 50.2695C33.3203 52.6484 31.9375 54.7051 30.9648 56.4395C30.5312 55.6074 29.7695 54.4297 28.6797 52.9062C27.6016 51.3711 26.6289 50.0469 25.7617 48.9336C24.8945 47.8086 23.9629 46.6484 22.9668 45.4531C24.3262 43.8477 25.7617 42.0371 27.2734 40.0215C28.7969 37.9941 30.0156 36.1543 30.9297 34.502Z" fill="#C50000"/>
<path d="M7.97461 15.2368C8.2793 15.7658 8.71094 16.4132 9.26953 17.1792C9.83236 17.9409 10.3719 18.6117 10.8882 19.1914C10.6004 19.4876 10.1328 20.0674 9.48535 20.9307C8.83789 21.7897 8.33854 22.5324 7.9873 23.1587C7.83073 22.8582 7.55566 22.4329 7.16211 21.8828C6.77279 21.3285 6.42155 20.8503 6.1084 20.4482C5.79525 20.042 5.45882 19.623 5.09912 19.1914C5.59001 18.6117 6.1084 17.9578 6.6543 17.23C7.20443 16.4979 7.64453 15.8335 7.97461 15.2368Z" fill="#C50000"/>
<path d="M54.9746 64.2368C55.2793 64.7658 55.7109 65.4132 56.2695 66.1792C56.8324 66.9409 57.3719 67.6117 57.8882 68.1914C57.6004 68.4876 57.1328 69.0674 56.4854 69.9307C55.8379 70.7897 55.3385 71.5324 54.9873 72.1587C54.8307 71.8582 54.5557 71.4329 54.1621 70.8828C53.7728 70.3285 53.4215 69.8503 53.1084 69.4482C52.7952 69.042 52.4588 68.623 52.0991 68.1914C52.59 67.6117 53.1084 66.9578 53.6543 66.23C54.2044 65.4979 54.6445 64.8335 54.9746 64.2368Z" fill="#C50000"/>
<defs>
<linearGradient id="paint0_linear" x1="31" y1="0" x2="31" y2="88" gradientUnits="userSpaceOnUse">
<stop stop-color="white"/>
<stop offset="1" stop-color="#EEEEEE"/>
</linearGradient>
</defs>
</svg>
