<svg width="62" height="88" viewBox="0 0 62 88" fill="none" xmlns="http://www.w3.org/2000/svg">
<rect width="62" height="88" fill="url(#paint0_linear)"/>
<path d="M7.2002 12.2686C8.46257 12.2686 9.09375 11.3389 9.09375 9.47949V4.24316C9.09375 3.94694 9.03223 3.76237 8.90918 3.68945C8.68587 3.56185 8.27572 3.49805 7.67871 3.49805V2.74609H11.7803V3.49805C11.3473 3.49805 11.0648 3.54134 10.9326 3.62793C10.8005 3.70996 10.7161 3.79883 10.6797 3.89453C10.6432 3.99023 10.625 4.10645 10.625 4.24316L10.6318 9.48633C10.6318 11.2865 10.0007 12.4258 8.73828 12.9043C8.32812 13.0592 7.87467 13.1367 7.37793 13.1367C6.43913 13.1367 5.6735 12.8952 5.08105 12.4121C4.49316 11.929 4.19922 11.3343 4.19922 10.6279C4.19922 10.2497 4.30632 9.94206 4.52051 9.70508C4.7347 9.46354 4.99902 9.34277 5.31348 9.34277C5.62793 9.34277 5.88314 9.44531 6.0791 9.65039C6.27507 9.85547 6.37305 10.0902 6.37305 10.3545C6.37305 10.6143 6.30924 10.8353 6.18164 11.0176C6.05404 11.1999 5.88997 11.332 5.68945 11.4141C5.79883 11.6784 5.99251 11.888 6.27051 12.043C6.55306 12.1934 6.86296 12.2686 7.2002 12.2686Z" fill="black"/>
<path d="M53.2002 84.2686C54.4626 84.2686 55.0938 83.3389 55.0938 81.4795V76.2432C55.0938 75.9469 55.0322 75.7624 54.9092 75.6895C54.6859 75.5618 54.2757 75.498 53.6787 75.498V74.7461H57.7803V75.498C57.3473 75.498 57.0648 75.5413 56.9326 75.6279C56.8005 75.71 56.7161 75.7988 56.6797 75.8945C56.6432 75.9902 56.625 76.1064 56.625 76.2432L56.6318 81.4863C56.6318 83.2865 56.0007 84.4258 54.7383 84.9043C54.3281 85.0592 53.8747 85.1367 53.3779 85.1367C52.4391 85.1367 51.6735 84.8952 51.0811 84.4121C50.4932 83.929 50.1992 83.3343 50.1992 82.6279C50.1992 82.2497 50.3063 81.9421 50.5205 81.7051C50.7347 81.4635 50.999 81.3428 51.3135 81.3428C51.6279 81.3428 51.8831 81.4453 52.0791 81.6504C52.2751 81.8555 52.373 82.0902 52.373 82.3545C52.373 82.6143 52.3092 82.8353 52.1816 83.0176C52.054 83.1999 51.89 83.332 51.6895 83.4141C51.7988 83.6784 51.9925 83.888 52.2705 84.043C52.5531 84.1934 52.863 84.2686 53.2002 84.2686Z" fill="black"/>
<path d="M31 34.3613C31.293 35.4863 31.7207 36.5469 32.2832 37.543C32.8457 38.5273 34.0117 39.834 35.7812 41.4629C37.4336 42.9395 38.4648 44.0645 38.875 44.8379C39.2852 45.6113 39.502 46.4141 39.5254 47.2461C39.5254 48.3711 39.1445 49.3086 38.3828 50.0586C37.6211 50.8086 36.7305 51.1836 35.7109 51.1836C33.8711 51.1836 32.3711 50.0645 31.2109 47.8262C31.2461 49.6895 31.4922 51.1074 31.9492 52.0801C32.418 53.0527 33.127 53.8145 34.0762 54.3652C35.0371 54.916 36.291 55.2441 37.8379 55.3496L37.9785 56H24.0566L24.1621 55.3496C25.6152 55.3496 26.8457 55.0684 27.8535 54.5059C28.8613 53.9316 29.6172 53.1406 30.1211 52.1328C30.6367 51.125 30.8945 49.7715 30.8945 48.0723V47.8262C29.8398 50.0645 28.3164 51.1836 26.3242 51.1836C25.2812 51.1836 24.3789 50.8086 23.6172 50.0586C22.8555 49.3086 22.4746 48.3945 22.4746 47.3164C22.4746 46.2734 22.7324 45.3535 23.248 44.5566C23.7754 43.7598 24.6191 42.8809 25.7793 41.9199C27.4082 40.5254 28.6094 39.2832 29.3828 38.1934C30.1562 37.1035 30.6953 35.8262 31 34.3613Z" fill="black"/>
<path d="M8 15.186C8.10579 15.5923 8.26025 15.9753 8.46338 16.335C8.6665 16.6904 9.08757 17.1623 9.72656 17.7505C10.3232 18.2837 10.6956 18.6899 10.8438 18.9692C10.9919 19.2485 11.0701 19.5384 11.0786 19.8389C11.0786 20.2451 10.9411 20.5837 10.666 20.8545C10.391 21.1253 10.0693 21.2607 9.70117 21.2607C9.03678 21.2607 8.49512 20.8566 8.07617 20.0483C8.08887 20.7212 8.17773 21.2332 8.34277 21.5845C8.51204 21.9357 8.76807 22.2108 9.11084 22.4097C9.45785 22.6086 9.91064 22.7271 10.4692 22.7651L10.52 23H5.49268L5.53076 22.7651C6.0555 22.7651 6.49984 22.6636 6.86377 22.4604C7.2277 22.2531 7.50065 21.9674 7.68262 21.6035C7.86882 21.2396 7.96191 20.7508 7.96191 20.1372V20.0483C7.58105 20.8566 7.03092 21.2607 6.31152 21.2607C5.9349 21.2607 5.60905 21.1253 5.33398 20.8545C5.05892 20.5837 4.92139 20.2536 4.92139 19.8643C4.92139 19.4876 5.01449 19.1554 5.20068 18.8677C5.39111 18.5799 5.6958 18.2625 6.11475 17.9155C6.70296 17.4119 7.13672 16.9634 7.41602 16.5698C7.69531 16.1763 7.88997 15.715 8 15.186Z" fill="black"/>
<path d="M55 64.186C55.1058 64.5923 55.2603 64.9753 55.4634 65.335C55.6665 65.6904 56.0876 66.1623 56.7266 66.7505C57.3232 67.2837 57.6956 67.6899 57.8438 67.9692C57.9919 68.2485 58.0701 68.5384 58.0786 68.8389C58.0786 69.2451 57.9411 69.5837 57.666 69.8545C57.391 70.1253 57.0693 70.2607 56.7012 70.2607C56.0368 70.2607 55.4951 69.8566 55.0762 69.0483C55.0889 69.7212 55.1777 70.2332 55.3428 70.5845C55.512 70.9357 55.7681 71.2108 56.1108 71.4097C56.4578 71.6086 56.9106 71.7271 57.4692 71.7651L57.52 72H52.4927L52.5308 71.7651C53.0555 71.7651 53.4998 71.6636 53.8638 71.4604C54.2277 71.2531 54.5007 70.9674 54.6826 70.6035C54.8688 70.2396 54.9619 69.7508 54.9619 69.1372V69.0483C54.5811 69.8566 54.0309 70.2607 53.3115 70.2607C52.9349 70.2607 52.609 70.1253 52.334 69.8545C52.0589 69.5837 51.9214 69.2536 51.9214 68.8643C51.9214 68.4876 52.0145 68.1554 52.2007 67.8677C52.3911 67.5799 52.6958 67.2625 53.1147 66.9155C53.703 66.4119 54.1367 65.9634 54.416 65.5698C54.6953 65.1763 54.89 64.715 55 64.186Z" fill="black"/>
<defs>
<linearGradient id="paint0_linear" x1="31" y1="0" x2="31" y2="88" gradientUnits="userSpaceOnUse">
<stop stop-color="white"/>
<stop offset="1" stop-color="#EEEEEE"/>
</linearGradient>
</defs>
</svg>
