<svg width="62" height="88" viewBox="0 0 62 88" fill="none" xmlns="http://www.w3.org/2000/svg">
<rect width="62" height="88" fill="url(#paint0_linear)"/>
<path d="M7.2002 12.2686C8.46257 12.2686 9.09375 11.3389 9.09375 9.47949V4.24316C9.09375 3.94694 9.03223 3.76237 8.90918 3.68945C8.68587 3.56185 8.27572 3.49805 7.67871 3.49805V2.74609H11.7803V3.49805C11.3473 3.49805 11.0648 3.54134 10.9326 3.62793C10.8005 3.70996 10.7161 3.79883 10.6797 3.89453C10.6432 3.99023 10.625 4.10645 10.625 4.24316L10.6318 9.48633C10.6318 11.2865 10.0007 12.4258 8.73828 12.9043C8.32812 13.0592 7.87467 13.1367 7.37793 13.1367C6.43913 13.1367 5.6735 12.8952 5.08105 12.4121C4.49316 11.929 4.19922 11.3343 4.19922 10.6279C4.19922 10.2497 4.30632 9.94206 4.52051 9.70508C4.7347 9.46354 4.99902 9.34277 5.31348 9.34277C5.62793 9.34277 5.88314 9.44531 6.0791 9.65039C6.27507 9.85547 6.37305 10.0902 6.37305 10.3545C6.37305 10.6143 6.30924 10.8353 6.18164 11.0176C6.05404 11.1999 5.88997 11.332 5.68945 11.4141C5.79883 11.6784 5.99251 11.888 6.27051 12.043C6.55306 12.1934 6.86296 12.2686 7.2002 12.2686Z" fill="#C50000"/>
<path d="M53.2002 84.2686C54.4626 84.2686 55.0938 83.3389 55.0938 81.4795V76.2432C55.0938 75.9469 55.0322 75.7624 54.9092 75.6895C54.6859 75.5618 54.2757 75.498 53.6787 75.498V74.7461H57.7803V75.498C57.3473 75.498 57.0648 75.5413 56.9326 75.6279C56.8005 75.71 56.7161 75.7988 56.6797 75.8945C56.6432 75.9902 56.625 76.1064 56.625 76.2432L56.6318 81.4863C56.6318 83.2865 56.0007 84.4258 54.7383 84.9043C54.3281 85.0592 53.8747 85.1367 53.3779 85.1367C52.4391 85.1367 51.6735 84.8952 51.0811 84.4121C50.4932 83.929 50.1992 83.3343 50.1992 82.6279C50.1992 82.2497 50.3063 81.9421 50.5205 81.7051C50.7347 81.4635 50.999 81.3428 51.3135 81.3428C51.6279 81.3428 51.8831 81.4453 52.0791 81.6504C52.2751 81.8555 52.373 82.0902 52.373 82.3545C52.373 82.6143 52.3092 82.8353 52.1816 83.0176C52.054 83.1999 51.89 83.332 51.6895 83.4141C51.7988 83.6784 51.9925 83.888 52.2705 84.043C52.5531 84.1934 52.863 84.2686 53.2002 84.2686Z" fill="#C50000"/>
<path d="M31.0352 56.4043C30.7773 55.3965 30.3789 54.3594 29.8398 53.293C29.3125 52.2266 28.0176 50.3105 25.9551 47.5449L24.373 45.3828C23.4941 44.2109 22.8965 43.25 22.5801 42.5C22.2637 41.7383 22.1055 40.9707 22.1055 40.1973C22.1055 38.9434 22.5098 37.918 23.3184 37.1211C24.1387 36.3125 25.1406 35.9082 26.3242 35.9082C27.3438 35.9082 28.2695 36.2422 29.1016 36.9102C29.9453 37.5781 30.5898 38.6152 31.0352 40.0215C31.4336 38.627 32.0488 37.5898 32.8809 36.9102C33.7129 36.2188 34.6445 35.873 35.6758 35.873C36.8125 35.873 37.7969 36.2715 38.6289 37.0684C39.4727 37.8652 39.8945 38.8379 39.8945 39.9863C39.8945 40.9941 39.6367 42.0547 39.1211 43.168C38.6055 44.2812 37.6973 45.6406 36.3965 47.2461C34.7559 49.3438 33.5547 51.0195 32.793 52.2734C32.043 53.5156 31.457 54.8926 31.0352 56.4043Z" fill="#C50000"/>
<path d="M8.0127 23.146C7.9196 22.7821 7.77572 22.4076 7.58105 22.0225C7.39062 21.6374 6.92301 20.9455 6.17822 19.9468L5.60693 19.166C5.28955 18.7428 5.07373 18.3958 4.95947 18.125C4.84521 17.8499 4.78809 17.5728 4.78809 17.2935C4.78809 16.8407 4.93408 16.4704 5.22607 16.1826C5.5223 15.8906 5.88411 15.7446 6.31152 15.7446C6.67969 15.7446 7.014 15.8652 7.31445 16.1064C7.61914 16.3477 7.85189 16.7222 8.0127 17.23C8.15658 16.7264 8.37874 16.3519 8.6792 16.1064C8.97965 15.8568 9.31608 15.7319 9.68848 15.7319C10.099 15.7319 10.4544 15.8758 10.7549 16.1636C11.0596 16.4513 11.2119 16.8026 11.2119 17.2173C11.2119 17.5812 11.1188 17.9642 10.9326 18.3662C10.7464 18.7682 10.4185 19.2591 9.94873 19.8389C9.35628 20.5964 8.92253 21.2015 8.64746 21.6543C8.37663 22.1029 8.16504 22.6001 8.0127 23.146Z" fill="#C50000"/>
<path d="M55.0127 72.146C54.9196 71.7821 54.7757 71.4076 54.5811 71.0225C54.3906 70.6374 53.923 69.9455 53.1782 68.9468L52.6069 68.166C52.2896 67.7428 52.0737 67.3958 51.9595 67.125C51.8452 66.8499 51.7881 66.5728 51.7881 66.2935C51.7881 65.8407 51.9341 65.4704 52.2261 65.1826C52.5223 64.8906 52.8841 64.7446 53.3115 64.7446C53.6797 64.7446 54.014 64.8652 54.3145 65.1064C54.6191 65.3477 54.8519 65.7222 55.0127 66.23C55.1566 65.7264 55.3787 65.3519 55.6792 65.1064C55.9797 64.8568 56.3161 64.7319 56.6885 64.7319C57.099 64.7319 57.4544 64.8758 57.7549 65.1636C58.0596 65.4513 58.2119 65.8026 58.2119 66.2173C58.2119 66.5812 58.1188 66.9642 57.9326 67.3662C57.7464 67.7682 57.4185 68.2591 56.9487 68.8389C56.3563 69.5964 55.9225 70.2015 55.6475 70.6543C55.3766 71.1029 55.165 71.6001 55.0127 72.146Z" fill="#C50000"/>
<defs>
<linearGradient id="paint0_linear" x1="31" y1="0" x2="31" y2="88" gradientUnits="userSpaceOnUse">
<stop stop-color="white"/>
<stop offset="1" stop-color="#EEEEEE"/>
</linearGradient>
</defs>
</svg>
