<svg width="62" height="88" viewBox="0 0 62 88" fill="none" xmlns="http://www.w3.org/2000/svg">
<rect width="62" height="88" fill="url(#paint0_linear)"/>
<path d="M8.78613 12.248C9.77507 12.2253 10.0531 11.8812 9.62012 11.2158L7.52148 7.85938L5.83984 9.49316L5.84668 11.5029C5.84668 11.7992 5.89681 11.9837 5.99707 12.0566C6.17025 12.1842 6.49837 12.248 6.98145 12.248V13H3.15332V12.248C3.58626 12.248 3.86882 12.207 4.00098 12.125C4.13314 12.0384 4.21745 11.9473 4.25391 11.8516C4.29036 11.7559 4.30859 11.6396 4.30859 11.5029L4.30176 4.24316C4.30176 3.94694 4.25163 3.76237 4.15137 3.68945C3.96908 3.56185 3.63639 3.49805 3.15332 3.49805V2.74609H6.98145V3.49805C6.5485 3.49805 6.26823 3.54134 6.14062 3.62793C6.01302 3.70996 5.93099 3.79883 5.89453 3.89453C5.85807 3.99023 5.83984 4.10645 5.83984 4.24316V8.33105L9.90723 4.25684C10.1579 4.0153 10.1898 3.82845 10.0029 3.69629C9.81608 3.56413 9.50618 3.49805 9.07324 3.49805V2.74609H12.7305V3.49805C12.4251 3.51628 12.1722 3.57552 11.9717 3.67578C11.7757 3.77148 11.5638 3.93327 11.3359 4.16113L8.52637 6.88867L11.3564 11.2295C11.5843 11.5941 11.8258 11.8561 12.0811 12.0156C12.3408 12.1706 12.6416 12.248 12.9834 12.248C13.0153 12.248 13.0449 12.248 13.0723 12.248V13H8.78613V12.248Z" fill="#C50000"/>
<path d="M54.7861 84.248C55.7751 84.2253 56.0531 83.8812 55.6201 83.2158L53.5215 79.8594L51.8398 81.4932L51.8467 83.5029C51.8467 83.7992 51.8968 83.9837 51.9971 84.0566C52.1702 84.1842 52.4984 84.248 52.9814 84.248V85H49.1533V84.248C49.5863 84.248 49.8688 84.207 50.001 84.125C50.1331 84.0384 50.2174 83.9473 50.2539 83.8516C50.2904 83.7559 50.3086 83.6396 50.3086 83.5029L50.3018 76.2432C50.3018 75.9469 50.2516 75.7624 50.1514 75.6895C49.9691 75.5618 49.6364 75.498 49.1533 75.498V74.7461H52.9814V75.498C52.5485 75.498 52.2682 75.5413 52.1406 75.6279C52.013 75.71 51.931 75.7988 51.8945 75.8945C51.8581 75.9902 51.8398 76.1064 51.8398 76.2432V80.3311L55.9072 76.2568C56.1579 76.0153 56.1898 75.8285 56.0029 75.6963C55.8161 75.5641 55.5062 75.498 55.0732 75.498V74.7461H58.7305V75.498C58.4251 75.5163 58.1722 75.5755 57.9717 75.6758C57.7757 75.7715 57.5638 75.9333 57.3359 76.1611L54.5264 78.8887L57.3564 83.2295C57.5843 83.5941 57.8258 83.8561 58.0811 84.0156C58.3408 84.1706 58.6416 84.248 58.9834 84.248C59.0153 84.248 59.0449 84.248 59.0723 84.248V85H54.7861V84.248Z" fill="#C50000"/>
<path d="M30.9297 34.502C31.7734 35.9668 32.9688 37.7598 34.5156 39.8809C36.0742 41.9902 37.5684 43.8477 38.998 45.4531C38.2012 46.2734 36.9062 47.8789 35.1133 50.2695C33.3203 52.6484 31.9375 54.7051 30.9648 56.4395C30.5312 55.6074 29.7695 54.4297 28.6797 52.9062C27.6016 51.3711 26.6289 50.0469 25.7617 48.9336C24.8945 47.8086 23.9629 46.6484 22.9668 45.4531C24.3262 43.8477 25.7617 42.0371 27.2734 40.0215C28.7969 37.9941 30.0156 36.1543 30.9297 34.502Z" fill="#C50000"/>
<path d="M7.97461 15.2368C8.2793 15.7658 8.71094 16.4132 9.26953 17.1792C9.83236 17.9409 10.3719 18.6117 10.8882 19.1914C10.6004 19.4876 10.1328 20.0674 9.48535 20.9307C8.83789 21.7897 8.33854 22.5324 7.9873 23.1587C7.83073 22.8582 7.55566 22.4329 7.16211 21.8828C6.77279 21.3285 6.42155 20.8503 6.1084 20.4482C5.79525 20.042 5.45882 19.623 5.09912 19.1914C5.59001 18.6117 6.1084 17.9578 6.6543 17.23C7.20443 16.4979 7.64453 15.8335 7.97461 15.2368Z" fill="#C50000"/>
<path d="M54.9746 64.2368C55.2793 64.7658 55.7109 65.4132 56.2695 66.1792C56.8324 66.9409 57.3719 67.6117 57.8882 68.1914C57.6004 68.4876 57.1328 69.0674 56.4854 69.9307C55.8379 70.7897 55.3385 71.5324 54.9873 72.1587C54.8307 71.8582 54.5557 71.4329 54.1621 70.8828C53.7728 70.3285 53.4215 69.8503 53.1084 69.4482C52.7952 69.042 52.4588 68.623 52.0991 68.1914C52.59 67.6117 53.1084 66.9578 53.6543 66.23C54.2044 65.4979 54.6445 64.8335 54.9746 64.2368Z" fill="#C50000"/>
<defs>
<linearGradient id="paint0_linear" x1="31" y1="0" x2="31" y2="88" gradientUnits="userSpaceOnUse">
<stop stop-color="white"/>
<stop offset="1" stop-color="#EEEEEE"/>
</linearGradient>
</defs>
</svg>
