<svg width="62" height="88" viewBox="0 0 62 88" fill="none" xmlns="http://www.w3.org/2000/svg">
<rect width="62" height="88" fill="url(#paint0_linear)"/>
<path d="M8.78613 12.248C9.77507 12.2253 10.0531 11.8812 9.62012 11.2158L7.52148 7.85938L5.83984 9.49316L5.84668 11.5029C5.84668 11.7992 5.89681 11.9837 5.99707 12.0566C6.17025 12.1842 6.49837 12.248 6.98145 12.248V13H3.15332V12.248C3.58626 12.248 3.86882 12.207 4.00098 12.125C4.13314 12.0384 4.21745 11.9473 4.25391 11.8516C4.29036 11.7559 4.30859 11.6396 4.30859 11.5029L4.30176 4.24316C4.30176 3.94694 4.25163 3.76237 4.15137 3.68945C3.96908 3.56185 3.63639 3.49805 3.15332 3.49805V2.74609H6.98145V3.49805C6.5485 3.49805 6.26823 3.54134 6.14062 3.62793C6.01302 3.70996 5.93099 3.79883 5.89453 3.89453C5.85807 3.99023 5.83984 4.10645 5.83984 4.24316V8.33105L9.90723 4.25684C10.1579 4.0153 10.1898 3.82845 10.0029 3.69629C9.81608 3.56413 9.50618 3.49805 9.07324 3.49805V2.74609H12.7305V3.49805C12.4251 3.51628 12.1722 3.57552 11.9717 3.67578C11.7757 3.77148 11.5638 3.93327 11.3359 4.16113L8.52637 6.88867L11.3564 11.2295C11.5843 11.5941 11.8258 11.8561 12.0811 12.0156C12.3408 12.1706 12.6416 12.248 12.9834 12.248C13.0153 12.248 13.0449 12.248 13.0723 12.248V13H8.78613V12.248Z" fill="#C50000"/>
<path d="M54.7861 84.248C55.7751 84.2253 56.0531 83.8812 55.6201 83.2158L53.5215 79.8594L51.8398 81.4932L51.8467 83.5029C51.8467 83.7992 51.8968 83.9837 51.9971 84.0566C52.1702 84.1842 52.4984 84.248 52.9814 84.248V85H49.1533V84.248C49.5863 84.248 49.8688 84.207 50.001 84.125C50.1331 84.0384 50.2174 83.9473 50.2539 83.8516C50.2904 83.7559 50.3086 83.6396 50.3086 83.5029L50.3018 76.2432C50.3018 75.9469 50.2516 75.7624 50.1514 75.6895C49.9691 75.5618 49.6364 75.498 49.1533 75.498V74.7461H52.9814V75.498C52.5485 75.498 52.2682 75.5413 52.1406 75.6279C52.013 75.71 51.931 75.7988 51.8945 75.8945C51.8581 75.9902 51.8398 76.1064 51.8398 76.2432V80.3311L55.9072 76.2568C56.1579 76.0153 56.1898 75.8285 56.0029 75.6963C55.8161 75.5641 55.5062 75.498 55.0732 75.498V74.7461H58.7305V75.498C58.4251 75.5163 58.1722 75.5755 57.9717 75.6758C57.7757 75.7715 57.5638 75.9333 57.3359 76.1611L54.5264 78.8887L57.3564 83.2295C57.5843 83.5941 57.8258 83.8561 58.0811 84.0156C58.3408 84.1706 58.6416 84.248 58.9834 84.248C59.0153 84.248 59.0449 84.248 59.0723 84.248V85H54.7861V84.248Z" fill="#C50000"/>
<path d="M31.0352 56.4043C30.7773 55.3965 30.3789 54.3594 29.8398 53.293C29.3125 52.2266 28.0176 50.3105 25.9551 47.5449L24.373 45.3828C23.4941 44.2109 22.8965 43.25 22.5801 42.5C22.2637 41.7383 22.1055 40.9707 22.1055 40.1973C22.1055 38.9434 22.5098 37.918 23.3184 37.1211C24.1387 36.3125 25.1406 35.9082 26.3242 35.9082C27.3438 35.9082 28.2695 36.2422 29.1016 36.9102C29.9453 37.5781 30.5898 38.6152 31.0352 40.0215C31.4336 38.627 32.0488 37.5898 32.8809 36.9102C33.7129 36.2188 34.6445 35.873 35.6758 35.873C36.8125 35.873 37.7969 36.2715 38.6289 37.0684C39.4727 37.8652 39.8945 38.8379 39.8945 39.9863C39.8945 40.9941 39.6367 42.0547 39.1211 43.168C38.6055 44.2812 37.6973 45.6406 36.3965 47.2461C34.7559 49.3438 33.5547 51.0195 32.793 52.2734C32.043 53.5156 31.457 54.8926 31.0352 56.4043Z" fill="#C50000"/>
<path d="M8.0127 23.146C7.9196 22.7821 7.77572 22.4076 7.58105 22.0225C7.39062 21.6374 6.92301 20.9455 6.17822 19.9468L5.60693 19.166C5.28955 18.7428 5.07373 18.3958 4.95947 18.125C4.84521 17.8499 4.78809 17.5728 4.78809 17.2935C4.78809 16.8407 4.93408 16.4704 5.22607 16.1826C5.5223 15.8906 5.88411 15.7446 6.31152 15.7446C6.67969 15.7446 7.014 15.8652 7.31445 16.1064C7.61914 16.3477 7.85189 16.7222 8.0127 17.23C8.15658 16.7264 8.37874 16.3519 8.6792 16.1064C8.97965 15.8568 9.31608 15.7319 9.68848 15.7319C10.099 15.7319 10.4544 15.8758 10.7549 16.1636C11.0596 16.4513 11.2119 16.8026 11.2119 17.2173C11.2119 17.5812 11.1188 17.9642 10.9326 18.3662C10.7464 18.7682 10.4185 19.2591 9.94873 19.8389C9.35628 20.5964 8.92253 21.2015 8.64746 21.6543C8.37663 22.1029 8.16504 22.6001 8.0127 23.146Z" fill="#C50000"/>
<path d="M55.0127 72.146C54.9196 71.7821 54.7757 71.4076 54.5811 71.0225C54.3906 70.6374 53.923 69.9455 53.1782 68.9468L52.6069 68.166C52.2896 67.7428 52.0737 67.3958 51.9595 67.125C51.8452 66.8499 51.7881 66.5728 51.7881 66.2935C51.7881 65.8407 51.9341 65.4704 52.2261 65.1826C52.5223 64.8906 52.8841 64.7446 53.3115 64.7446C53.6797 64.7446 54.014 64.8652 54.3145 65.1064C54.6191 65.3477 54.8519 65.7222 55.0127 66.23C55.1566 65.7264 55.3787 65.3519 55.6792 65.1064C55.9797 64.8568 56.3161 64.7319 56.6885 64.7319C57.099 64.7319 57.4544 64.8758 57.7549 65.1636C58.0596 65.4513 58.2119 65.8026 58.2119 66.2173C58.2119 66.5812 58.1188 66.9642 57.9326 67.3662C57.7464 67.7682 57.4185 68.2591 56.9487 68.8389C56.3563 69.5964 55.9225 70.2015 55.6475 70.6543C55.3766 71.1029 55.165 71.6001 55.0127 72.146Z" fill="#C50000"/>
<defs>
<linearGradient id="paint0_linear" x1="31" y1="0" x2="31" y2="88" gradientUnits="userSpaceOnUse">
<stop stop-color="white"/>
<stop offset="1" stop-color="#EEEEEE"/>
</linearGradient>
</defs>
</svg>
