<svg width="62" height="88" viewBox="0 0 62 88" fill="none" xmlns="http://www.w3.org/2000/svg">
<rect width="62" height="88" fill="url(#paint0_linear)"/>
<path d="M8.78613 12.248C9.77507 12.2253 10.0531 11.8812 9.62012 11.2158L7.52148 7.85938L5.83984 9.49316L5.84668 11.5029C5.84668 11.7992 5.89681 11.9837 5.99707 12.0566C6.17025 12.1842 6.49837 12.248 6.98145 12.248V13H3.15332V12.248C3.58626 12.248 3.86882 12.207 4.00098 12.125C4.13314 12.0384 4.21745 11.9473 4.25391 11.8516C4.29036 11.7559 4.30859 11.6396 4.30859 11.5029L4.30176 4.24316C4.30176 3.94694 4.25163 3.76237 4.15137 3.68945C3.96908 3.56185 3.63639 3.49805 3.15332 3.49805V2.74609H6.98145V3.49805C6.5485 3.49805 6.26823 3.54134 6.14062 3.62793C6.01302 3.70996 5.93099 3.79883 5.89453 3.89453C5.85807 3.99023 5.83984 4.10645 5.83984 4.24316V8.33105L9.90723 4.25684C10.1579 4.0153 10.1898 3.82845 10.0029 3.69629C9.81608 3.56413 9.50618 3.49805 9.07324 3.49805V2.74609H12.7305V3.49805C12.4251 3.51628 12.1722 3.57552 11.9717 3.67578C11.7757 3.77148 11.5638 3.93327 11.3359 4.16113L8.52637 6.88867L11.3564 11.2295C11.5843 11.5941 11.8258 11.8561 12.0811 12.0156C12.3408 12.1706 12.6416 12.248 12.9834 12.248C13.0153 12.248 13.0449 12.248 13.0723 12.248V13H8.78613V12.248Z" fill="black"/>
<path d="M54.7861 84.248C55.7751 84.2253 56.0531 83.8812 55.6201 83.2158L53.5215 79.8594L51.8398 81.4932L51.8467 83.5029C51.8467 83.7992 51.8968 83.9837 51.9971 84.0566C52.1702 84.1842 52.4984 84.248 52.9814 84.248V85H49.1533V84.248C49.5863 84.248 49.8688 84.207 50.001 84.125C50.1331 84.0384 50.2174 83.9473 50.2539 83.8516C50.2904 83.7559 50.3086 83.6396 50.3086 83.5029L50.3018 76.2432C50.3018 75.9469 50.2516 75.7624 50.1514 75.6895C49.9691 75.5618 49.6364 75.498 49.1533 75.498V74.7461H52.9814V75.498C52.5485 75.498 52.2682 75.5413 52.1406 75.6279C52.013 75.71 51.931 75.7988 51.8945 75.8945C51.8581 75.9902 51.8398 76.1064 51.8398 76.2432V80.3311L55.9072 76.2568C56.1579 76.0153 56.1898 75.8285 56.0029 75.6963C55.8161 75.5641 55.5062 75.498 55.0732 75.498V74.7461H58.7305V75.498C58.4251 75.5163 58.1722 75.5755 57.9717 75.6758C57.7757 75.7715 57.5638 75.9333 57.3359 76.1611L54.5264 78.8887L57.3564 83.2295C57.5843 83.5941 57.8258 83.8561 58.0811 84.0156C58.3408 84.1706 58.6416 84.248 58.9834 84.248C59.0153 84.248 59.0449 84.248 59.0723 84.248V85H54.7861V84.248Z" fill="black"/>
<path d="M31 34.3613C31.293 35.4863 31.7207 36.5469 32.2832 37.543C32.8457 38.5273 34.0117 39.834 35.7812 41.4629C37.4336 42.9395 38.4648 44.0645 38.875 44.8379C39.2852 45.6113 39.502 46.4141 39.5254 47.2461C39.5254 48.3711 39.1445 49.3086 38.3828 50.0586C37.6211 50.8086 36.7305 51.1836 35.7109 51.1836C33.8711 51.1836 32.3711 50.0645 31.2109 47.8262C31.2461 49.6895 31.4922 51.1074 31.9492 52.0801C32.418 53.0527 33.127 53.8145 34.0762 54.3652C35.0371 54.916 36.291 55.2441 37.8379 55.3496L37.9785 56H24.0566L24.1621 55.3496C25.6152 55.3496 26.8457 55.0684 27.8535 54.5059C28.8613 53.9316 29.6172 53.1406 30.1211 52.1328C30.6367 51.125 30.8945 49.7715 30.8945 48.0723V47.8262C29.8398 50.0645 28.3164 51.1836 26.3242 51.1836C25.2812 51.1836 24.3789 50.8086 23.6172 50.0586C22.8555 49.3086 22.4746 48.3945 22.4746 47.3164C22.4746 46.2734 22.7324 45.3535 23.248 44.5566C23.7754 43.7598 24.6191 42.8809 25.7793 41.9199C27.4082 40.5254 28.6094 39.2832 29.3828 38.1934C30.1562 37.1035 30.6953 35.8262 31 34.3613Z" fill="black"/>
<path d="M8 15.186C8.10579 15.5923 8.26025 15.9753 8.46338 16.335C8.6665 16.6904 9.08757 17.1623 9.72656 17.7505C10.3232 18.2837 10.6956 18.6899 10.8438 18.9692C10.9919 19.2485 11.0701 19.5384 11.0786 19.8389C11.0786 20.2451 10.9411 20.5837 10.666 20.8545C10.391 21.1253 10.0693 21.2607 9.70117 21.2607C9.03678 21.2607 8.49512 20.8566 8.07617 20.0483C8.08887 20.7212 8.17773 21.2332 8.34277 21.5845C8.51204 21.9357 8.76807 22.2108 9.11084 22.4097C9.45785 22.6086 9.91064 22.7271 10.4692 22.7651L10.52 23H5.49268L5.53076 22.7651C6.0555 22.7651 6.49984 22.6636 6.86377 22.4604C7.2277 22.2531 7.50065 21.9674 7.68262 21.6035C7.86882 21.2396 7.96191 20.7508 7.96191 20.1372V20.0483C7.58105 20.8566 7.03092 21.2607 6.31152 21.2607C5.9349 21.2607 5.60905 21.1253 5.33398 20.8545C5.05892 20.5837 4.92139 20.2536 4.92139 19.8643C4.92139 19.4876 5.01449 19.1554 5.20068 18.8677C5.39111 18.5799 5.6958 18.2625 6.11475 17.9155C6.70296 17.4119 7.13672 16.9634 7.41602 16.5698C7.69531 16.1763 7.88997 15.715 8 15.186Z" fill="black"/>
<path d="M55 64.186C55.1058 64.5923 55.2603 64.9753 55.4634 65.335C55.6665 65.6904 56.0876 66.1623 56.7266 66.7505C57.3232 67.2837 57.6956 67.6899 57.8438 67.9692C57.9919 68.2485 58.0701 68.5384 58.0786 68.8389C58.0786 69.2451 57.9411 69.5837 57.666 69.8545C57.391 70.1253 57.0693 70.2607 56.7012 70.2607C56.0368 70.2607 55.4951 69.8566 55.0762 69.0483C55.0889 69.7212 55.1777 70.2332 55.3428 70.5845C55.512 70.9357 55.7681 71.2108 56.1108 71.4097C56.4578 71.6086 56.9106 71.7271 57.4692 71.7651L57.52 72H52.4927L52.5308 71.7651C53.0555 71.7651 53.4998 71.6636 53.8638 71.4604C54.2277 71.2531 54.5007 70.9674 54.6826 70.6035C54.8688 70.2396 54.9619 69.7508 54.9619 69.1372V69.0483C54.5811 69.8566 54.0309 70.2607 53.3115 70.2607C52.9349 70.2607 52.609 70.1253 52.334 69.8545C52.0589 69.5837 51.9214 69.2536 51.9214 68.8643C51.9214 68.4876 52.0145 68.1554 52.2007 67.8677C52.3911 67.5799 52.6958 67.2625 53.1147 66.9155C53.703 66.4119 54.1367 65.9634 54.416 65.5698C54.6953 65.1763 54.89 64.715 55 64.186Z" fill="black"/>
<defs>
<linearGradient id="paint0_linear" x1="31" y1="0" x2="31" y2="88" gradientUnits="userSpaceOnUse">
<stop stop-color="white"/>
<stop offset="1" stop-color="#EEEEEE"/>
</linearGradient>
</defs>
</svg>
