<svg width="62" height="88" viewBox="0 0 62 88" fill="none" xmlns="http://www.w3.org/2000/svg">
<rect width="62" height="88" fill="url(#paint0_linear)"/>
<path d="M9.02539 13.041C8.69727 13.1048 8.35547 13.1367 8 13.1367C6.56901 13.1367 5.40462 12.6764 4.50684 11.7559C3.61361 10.8307 3.16699 9.52507 3.16699 7.83887C3.16699 6.15267 3.65462 4.83333 4.62988 3.88086C5.50033 3.0332 6.61914 2.60938 7.98633 2.60938C9.35352 2.60938 10.4814 3.02865 11.3701 3.86719C12.3454 4.79232 12.833 6.11165 12.833 7.8252C12.833 9.53874 12.359 10.8672 11.4111 11.8105C11.1149 12.1113 10.7822 12.362 10.4131 12.5625C10.6273 13.4284 10.8688 13.9798 11.1377 14.2168C11.2471 14.3125 11.3747 14.3604 11.5205 14.3604C11.7939 14.3604 12.0036 14.2487 12.1494 14.0254C12.2952 13.8066 12.3682 13.5537 12.3682 13.2666H13.0381C13.0791 13.3942 13.0996 13.5332 13.0996 13.6836C13.0996 13.834 13.0791 13.9821 13.0381 14.1279C12.9469 14.4697 12.7624 14.7568 12.4844 14.9893C12.2109 15.2262 11.8669 15.3447 11.4521 15.3447C10.7412 15.3447 10.1898 15.1055 9.79785 14.627C9.51986 14.2897 9.26237 13.7611 9.02539 13.041ZM10.0439 11.3047C10.7184 10.5026 11.0557 9.34961 11.0557 7.8457C11.0557 6.3418 10.7663 5.24121 10.1875 4.54395C9.60872 3.84668 8.87956 3.49805 8 3.49805C7.12044 3.49805 6.39128 3.85807 5.8125 4.57812C5.23372 5.29818 4.94434 6.3737 4.94434 7.80469C4.94434 9.49089 5.32943 10.7191 6.09961 11.4893C6.17253 11.0062 6.37305 10.571 6.70117 10.1836C7.0293 9.79167 7.45768 9.5957 7.98633 9.5957C8.7474 9.5957 9.32845 9.94661 9.72949 10.6484C9.84798 10.8535 9.9528 11.0723 10.0439 11.3047ZM6.81738 11.9883C7.46452 12.2982 8.14128 12.3415 8.84766 12.1182C8.62891 11.0654 8.26204 10.5391 7.74707 10.5391C7.46452 10.5391 7.24349 10.6689 7.08398 10.9287C6.92448 11.1839 6.83561 11.5371 6.81738 11.9883Z" fill="black"/>
<path d="M55.0254 85.041C54.6973 85.1048 54.3555 85.1367 54 85.1367C52.569 85.1367 51.4046 84.6764 50.5068 83.7559C49.6136 82.8307 49.167 81.5251 49.167 79.8389C49.167 78.1527 49.6546 76.8333 50.6299 75.8809C51.5003 75.0332 52.6191 74.6094 53.9863 74.6094C55.3535 74.6094 56.4814 75.0286 57.3701 75.8672C58.3454 76.7923 58.833 78.1117 58.833 79.8252C58.833 81.5387 58.359 82.8672 57.4111 83.8105C57.1149 84.1113 56.7822 84.362 56.4131 84.5625C56.6273 85.4284 56.8688 85.9798 57.1377 86.2168C57.2471 86.3125 57.3747 86.3604 57.5205 86.3604C57.7939 86.3604 58.0036 86.2487 58.1494 86.0254C58.2952 85.8066 58.3682 85.5537 58.3682 85.2666H59.0381C59.0791 85.3942 59.0996 85.5332 59.0996 85.6836C59.0996 85.834 59.0791 85.9821 59.0381 86.1279C58.9469 86.4697 58.7624 86.7568 58.4844 86.9893C58.2109 87.2262 57.8669 87.3447 57.4521 87.3447C56.7412 87.3447 56.1898 87.1055 55.7979 86.627C55.5199 86.2897 55.2624 85.7611 55.0254 85.041ZM56.0439 83.3047C56.7184 82.5026 57.0557 81.3496 57.0557 79.8457C57.0557 78.3418 56.7663 77.2412 56.1875 76.5439C55.6087 75.8467 54.8796 75.498 54 75.498C53.1204 75.498 52.3913 75.8581 51.8125 76.5781C51.2337 77.2982 50.9443 78.3737 50.9443 79.8047C50.9443 81.4909 51.3294 82.7191 52.0996 83.4893C52.1725 83.0062 52.373 82.571 52.7012 82.1836C53.0293 81.7917 53.4577 81.5957 53.9863 81.5957C54.7474 81.5957 55.3285 81.9466 55.7295 82.6484C55.848 82.8535 55.9528 83.0723 56.0439 83.3047ZM52.8174 83.9883C53.4645 84.2982 54.1413 84.3415 54.8477 84.1182C54.6289 83.0654 54.262 82.5391 53.7471 82.5391C53.4645 82.5391 53.2435 82.6689 53.084 82.9287C52.9245 83.1839 52.8356 83.5371 52.8174 83.9883Z" fill="black"/>
<path d="M38.418 56H23.6172L23.7578 55.3848C25.3398 55.0684 26.4766 54.752 27.168 54.4355C27.8711 54.1191 28.498 53.6094 29.0488 52.9062C29.6113 52.2031 30.0449 51.418 30.3496 50.5508C30.666 49.6719 30.8242 48.7871 30.8242 47.8965L30.7891 47.0703C30.1211 48.4766 29.2656 49.5254 28.2227 50.2168C27.1797 50.9082 26.1367 51.2539 25.0938 51.2539C24.1914 51.2539 23.3594 51.0312 22.5977 50.5859C21.8477 50.1406 21.2676 49.5488 20.8574 48.8105C20.4473 48.0723 20.2422 47.252 20.2422 46.3496C20.2422 45.002 20.6699 43.8652 21.5254 42.9395C22.3809 42.0137 23.3535 41.5449 24.4434 41.5332C25.1699 41.5332 26.1191 41.832 27.291 42.4297C26.8457 41.668 26.5234 41.0527 26.3242 40.584C26.1953 40.1504 26.1309 39.7109 26.1309 39.2656C26.1309 37.8477 26.6055 36.6992 27.5547 35.8203C28.5039 34.9414 29.6406 34.502 30.9648 34.502C32.3242 34.502 33.4727 34.9707 34.4102 35.9082C35.3477 36.8457 35.8164 37.9414 35.8164 39.1953C35.8164 40.2031 35.4121 41.2812 34.6035 42.4297C35.5879 41.9609 36.1738 41.709 36.3613 41.6738C36.6191 41.5801 36.9766 41.5332 37.4336 41.5332C38.6641 41.5332 39.6777 41.9902 40.4746 42.9043C41.3301 43.7949 41.7578 44.9199 41.7578 46.2793C41.7578 47.6387 41.3008 48.8047 40.3867 49.7773C39.4727 50.7383 38.3359 51.2188 36.9766 51.2188C36.3203 51.2188 35.6465 51.0781 34.9551 50.7969C34.2637 50.5039 33.6367 50.1172 33.0742 49.6367C32.5234 49.1562 31.8906 48.3008 31.1758 47.0703C31.2344 48.5469 31.4043 49.7363 31.6855 50.6387C31.9785 51.5293 32.4414 52.3262 33.0742 53.0293C33.7188 53.7324 34.4102 54.2422 35.1484 54.5586C35.8984 54.8633 36.9414 55.1387 38.2773 55.3848L38.418 56Z" fill="black"/>
<path d="M10.6787 23H5.33398L5.38477 22.7778C5.95605 22.6636 6.36654 22.5493 6.61621 22.4351C6.87012 22.3208 7.09652 22.1367 7.29541 21.8828C7.49854 21.6289 7.65511 21.3454 7.76514 21.0322C7.87939 20.7148 7.93652 20.3953 7.93652 20.0737L7.92383 19.7754C7.68262 20.2832 7.3737 20.6619 6.99707 20.9116C6.62044 21.1613 6.24382 21.2861 5.86719 21.2861C5.54134 21.2861 5.24089 21.2057 4.96582 21.0449C4.69499 20.8841 4.48551 20.6704 4.3374 20.4038C4.18929 20.1372 4.11523 19.841 4.11523 19.5151C4.11523 19.0285 4.26969 18.618 4.57861 18.2837C4.88753 17.9494 5.23877 17.7801 5.63232 17.7759C5.89469 17.7759 6.23747 17.8838 6.66064 18.0996C6.49984 17.8245 6.38346 17.6024 6.31152 17.4331C6.26497 17.2765 6.2417 17.1178 6.2417 16.957C6.2417 16.445 6.41309 16.0303 6.75586 15.7129C7.09863 15.3955 7.50911 15.2368 7.9873 15.2368C8.47819 15.2368 8.8929 15.4061 9.23145 15.7446C9.56999 16.0832 9.73926 16.4788 9.73926 16.9316C9.73926 17.2956 9.59326 17.6849 9.30127 18.0996C9.65674 17.9303 9.86833 17.8394 9.93604 17.8267C10.0291 17.7928 10.1582 17.7759 10.3232 17.7759C10.7676 17.7759 11.1336 17.9409 11.4214 18.271C11.7303 18.5926 11.8848 18.9989 11.8848 19.4897C11.8848 19.9806 11.7197 20.4017 11.3896 20.7529C11.0596 21.0999 10.6491 21.2734 10.1582 21.2734C9.92122 21.2734 9.6779 21.2227 9.42822 21.1211C9.17855 21.0153 8.95215 20.8757 8.74902 20.7021C8.55013 20.5286 8.32161 20.2197 8.06348 19.7754C8.08464 20.3086 8.146 20.7381 8.24756 21.064C8.35335 21.3856 8.52051 21.6733 8.74902 21.9272C8.98177 22.1812 9.23145 22.3652 9.49805 22.4795C9.76888 22.5895 10.1455 22.689 10.6279 22.7778L10.6787 23Z" fill="black"/>
<path d="M57.6787 72H52.334L52.3848 71.7778C52.9561 71.6636 53.3665 71.5493 53.6162 71.4351C53.8701 71.3208 54.0965 71.1367 54.2954 70.8828C54.4985 70.6289 54.6551 70.3454 54.7651 70.0322C54.8794 69.7148 54.9365 69.3953 54.9365 69.0737L54.9238 68.7754C54.6826 69.2832 54.3737 69.6619 53.9971 69.9116C53.6204 70.1613 53.2438 70.2861 52.8672 70.2861C52.5413 70.2861 52.2409 70.2057 51.9658 70.0449C51.695 69.8841 51.4855 69.6704 51.3374 69.4038C51.1893 69.1372 51.1152 68.841 51.1152 68.5151C51.1152 68.0285 51.2697 67.618 51.5786 67.2837C51.8875 66.9494 52.2388 66.7801 52.6323 66.7759C52.8947 66.7759 53.2375 66.8838 53.6606 67.0996C53.4998 66.8245 53.3835 66.6024 53.3115 66.4331C53.265 66.2765 53.2417 66.1178 53.2417 65.957C53.2417 65.445 53.4131 65.0303 53.7559 64.7129C54.0986 64.3955 54.5091 64.2368 54.9873 64.2368C55.4782 64.2368 55.8929 64.4061 56.2314 64.7446C56.57 65.0832 56.7393 65.4788 56.7393 65.9316C56.7393 66.2956 56.5933 66.6849 56.3013 67.0996C56.6567 66.9303 56.8683 66.8394 56.936 66.8267C57.0291 66.7928 57.1582 66.7759 57.3232 66.7759C57.7676 66.7759 58.1336 66.9409 58.4214 67.271C58.7303 67.5926 58.8848 67.9989 58.8848 68.4897C58.8848 68.9806 58.7197 69.4017 58.3896 69.7529C58.0596 70.0999 57.6491 70.2734 57.1582 70.2734C56.9212 70.2734 56.6779 70.2227 56.4282 70.1211C56.1785 70.0153 55.9521 69.8757 55.749 69.7021C55.5501 69.5286 55.3216 69.2197 55.0635 68.7754C55.0846 69.3086 55.146 69.7381 55.2476 70.064C55.3534 70.3856 55.5205 70.6733 55.749 70.9272C55.9818 71.1812 56.2314 71.3652 56.498 71.4795C56.7689 71.5895 57.1455 71.689 57.6279 71.7778L57.6787 72Z" fill="black"/>
<defs>
<linearGradient id="paint0_linear" x1="31" y1="0" x2="31" y2="88" gradientUnits="userSpaceOnUse">
<stop stop-color="white"/>
<stop offset="1" stop-color="#EEEEEE"/>
</linearGradient>
</defs>
</svg>
