<svg width="62" height="88" viewBox="0 0 62 88" fill="none" xmlns="http://www.w3.org/2000/svg">
<rect width="62" height="88" fill="url(#paint0_linear)"/>
<path d="M9.02539 13.041C8.69727 13.1048 8.35547 13.1367 8 13.1367C6.56901 13.1367 5.40462 12.6764 4.50684 11.7559C3.61361 10.8307 3.16699 9.52507 3.16699 7.83887C3.16699 6.15267 3.65462 4.83333 4.62988 3.88086C5.50033 3.0332 6.61914 2.60938 7.98633 2.60938C9.35352 2.60938 10.4814 3.02865 11.3701 3.86719C12.3454 4.79232 12.833 6.11165 12.833 7.8252C12.833 9.53874 12.359 10.8672 11.4111 11.8105C11.1149 12.1113 10.7822 12.362 10.4131 12.5625C10.6273 13.4284 10.8688 13.9798 11.1377 14.2168C11.2471 14.3125 11.3747 14.3604 11.5205 14.3604C11.7939 14.3604 12.0036 14.2487 12.1494 14.0254C12.2952 13.8066 12.3682 13.5537 12.3682 13.2666H13.0381C13.0791 13.3942 13.0996 13.5332 13.0996 13.6836C13.0996 13.834 13.0791 13.9821 13.0381 14.1279C12.9469 14.4697 12.7624 14.7568 12.4844 14.9893C12.2109 15.2262 11.8669 15.3447 11.4521 15.3447C10.7412 15.3447 10.1898 15.1055 9.79785 14.627C9.51986 14.2897 9.26237 13.7611 9.02539 13.041ZM10.0439 11.3047C10.7184 10.5026 11.0557 9.34961 11.0557 7.8457C11.0557 6.3418 10.7663 5.24121 10.1875 4.54395C9.60872 3.84668 8.87956 3.49805 8 3.49805C7.12044 3.49805 6.39128 3.85807 5.8125 4.57812C5.23372 5.29818 4.94434 6.3737 4.94434 7.80469C4.94434 9.49089 5.32943 10.7191 6.09961 11.4893C6.17253 11.0062 6.37305 10.571 6.70117 10.1836C7.0293 9.79167 7.45768 9.5957 7.98633 9.5957C8.7474 9.5957 9.32845 9.94661 9.72949 10.6484C9.84798 10.8535 9.9528 11.0723 10.0439 11.3047ZM6.81738 11.9883C7.46452 12.2982 8.14128 12.3415 8.84766 12.1182C8.62891 11.0654 8.26204 10.5391 7.74707 10.5391C7.46452 10.5391 7.24349 10.6689 7.08398 10.9287C6.92448 11.1839 6.83561 11.5371 6.81738 11.9883Z" fill="#C50000"/>
<path d="M55.0254 85.041C54.6973 85.1048 54.3555 85.1367 54 85.1367C52.569 85.1367 51.4046 84.6764 50.5068 83.7559C49.6136 82.8307 49.167 81.5251 49.167 79.8389C49.167 78.1527 49.6546 76.8333 50.6299 75.8809C51.5003 75.0332 52.6191 74.6094 53.9863 74.6094C55.3535 74.6094 56.4814 75.0286 57.3701 75.8672C58.3454 76.7923 58.833 78.1117 58.833 79.8252C58.833 81.5387 58.359 82.8672 57.4111 83.8105C57.1149 84.1113 56.7822 84.362 56.4131 84.5625C56.6273 85.4284 56.8688 85.9798 57.1377 86.2168C57.2471 86.3125 57.3747 86.3604 57.5205 86.3604C57.7939 86.3604 58.0036 86.2487 58.1494 86.0254C58.2952 85.8066 58.3682 85.5537 58.3682 85.2666H59.0381C59.0791 85.3942 59.0996 85.5332 59.0996 85.6836C59.0996 85.834 59.0791 85.9821 59.0381 86.1279C58.9469 86.4697 58.7624 86.7568 58.4844 86.9893C58.2109 87.2262 57.8669 87.3447 57.4521 87.3447C56.7412 87.3447 56.1898 87.1055 55.7979 86.627C55.5199 86.2897 55.2624 85.7611 55.0254 85.041ZM56.0439 83.3047C56.7184 82.5026 57.0557 81.3496 57.0557 79.8457C57.0557 78.3418 56.7663 77.2412 56.1875 76.5439C55.6087 75.8467 54.8796 75.498 54 75.498C53.1204 75.498 52.3913 75.8581 51.8125 76.5781C51.2337 77.2982 50.9443 78.3737 50.9443 79.8047C50.9443 81.4909 51.3294 82.7191 52.0996 83.4893C52.1725 83.0062 52.373 82.571 52.7012 82.1836C53.0293 81.7917 53.4577 81.5957 53.9863 81.5957C54.7474 81.5957 55.3285 81.9466 55.7295 82.6484C55.848 82.8535 55.9528 83.0723 56.0439 83.3047ZM52.8174 83.9883C53.4645 84.2982 54.1413 84.3415 54.8477 84.1182C54.6289 83.0654 54.262 82.5391 53.7471 82.5391C53.4645 82.5391 53.2435 82.6689 53.084 82.9287C52.9245 83.1839 52.8356 83.5371 52.8174 83.9883Z" fill="#C50000"/>
<path d="M30.9297 34.502C31.7734 35.9668 32.9688 37.7598 34.5156 39.8809C36.0742 41.9902 37.5684 43.8477 38.998 45.4531C38.2012 46.2734 36.9062 47.8789 35.1133 50.2695C33.3203 52.6484 31.9375 54.7051 30.9648 56.4395C30.5312 55.6074 29.7695 54.4297 28.6797 52.9062C27.6016 51.3711 26.6289 50.0469 25.7617 48.9336C24.8945 47.8086 23.9629 46.6484 22.9668 45.4531C24.3262 43.8477 25.7617 42.0371 27.2734 40.0215C28.7969 37.9941 30.0156 36.1543 30.9297 34.502Z" fill="#C50000"/>
<path d="M7.97461 15.2368C8.2793 15.7658 8.71094 16.4132 9.26953 17.1792C9.83236 17.9409 10.3719 18.6117 10.8882 19.1914C10.6004 19.4876 10.1328 20.0674 9.48535 20.9307C8.83789 21.7897 8.33854 22.5324 7.9873 23.1587C7.83073 22.8582 7.55566 22.4329 7.16211 21.8828C6.77279 21.3285 6.42155 20.8503 6.1084 20.4482C5.79525 20.042 5.45882 19.623 5.09912 19.1914C5.59001 18.6117 6.1084 17.9578 6.6543 17.23C7.20443 16.4979 7.64453 15.8335 7.97461 15.2368Z" fill="#C50000"/>
<path d="M54.9746 64.2368C55.2793 64.7658 55.7109 65.4132 56.2695 66.1792C56.8324 66.9409 57.3719 67.6117 57.8882 68.1914C57.6004 68.4876 57.1328 69.0674 56.4854 69.9307C55.8379 70.7897 55.3385 71.5324 54.9873 72.1587C54.8307 71.8582 54.5557 71.4329 54.1621 70.8828C53.7728 70.3285 53.4215 69.8503 53.1084 69.4482C52.7952 69.042 52.4588 68.623 52.0991 68.1914C52.59 67.6117 53.1084 66.9578 53.6543 66.23C54.2044 65.4979 54.6445 64.8335 54.9746 64.2368Z" fill="#C50000"/>
<defs>
<linearGradient id="paint0_linear" x1="31" y1="0" x2="31" y2="88" gradientUnits="userSpaceOnUse">
<stop stop-color="white"/>
<stop offset="1" stop-color="#EEEEEE"/>
</linearGradient>
</defs>
</svg>
