<svg width="62" height="88" viewBox="0 0 62 88" fill="none" xmlns="http://www.w3.org/2000/svg">
<rect width="62" height="88" fill="url(#paint0_linear)"/>
<path d="M9.02539 13.041C8.69727 13.1048 8.35547 13.1367 8 13.1367C6.56901 13.1367 5.40462 12.6764 4.50684 11.7559C3.61361 10.8307 3.16699 9.52507 3.16699 7.83887C3.16699 6.15267 3.65462 4.83333 4.62988 3.88086C5.50033 3.0332 6.61914 2.60938 7.98633 2.60938C9.35352 2.60938 10.4814 3.02865 11.3701 3.86719C12.3454 4.79232 12.833 6.11165 12.833 7.8252C12.833 9.53874 12.359 10.8672 11.4111 11.8105C11.1149 12.1113 10.7822 12.362 10.4131 12.5625C10.6273 13.4284 10.8688 13.9798 11.1377 14.2168C11.2471 14.3125 11.3747 14.3604 11.5205 14.3604C11.7939 14.3604 12.0036 14.2487 12.1494 14.0254C12.2952 13.8066 12.3682 13.5537 12.3682 13.2666H13.0381C13.0791 13.3942 13.0996 13.5332 13.0996 13.6836C13.0996 13.834 13.0791 13.9821 13.0381 14.1279C12.9469 14.4697 12.7624 14.7568 12.4844 14.9893C12.2109 15.2262 11.8669 15.3447 11.4521 15.3447C10.7412 15.3447 10.1898 15.1055 9.79785 14.627C9.51986 14.2897 9.26237 13.7611 9.02539 13.041ZM10.0439 11.3047C10.7184 10.5026 11.0557 9.34961 11.0557 7.8457C11.0557 6.3418 10.7663 5.24121 10.1875 4.54395C9.60872 3.84668 8.87956 3.49805 8 3.49805C7.12044 3.49805 6.39128 3.85807 5.8125 4.57812C5.23372 5.29818 4.94434 6.3737 4.94434 7.80469C4.94434 9.49089 5.32943 10.7191 6.09961 11.4893C6.17253 11.0062 6.37305 10.571 6.70117 10.1836C7.0293 9.79167 7.45768 9.5957 7.98633 9.5957C8.7474 9.5957 9.32845 9.94661 9.72949 10.6484C9.84798 10.8535 9.9528 11.0723 10.0439 11.3047ZM6.81738 11.9883C7.46452 12.2982 8.14128 12.3415 8.84766 12.1182C8.62891 11.0654 8.26204 10.5391 7.74707 10.5391C7.46452 10.5391 7.24349 10.6689 7.08398 10.9287C6.92448 11.1839 6.83561 11.5371 6.81738 11.9883Z" fill="#C50000"/>
<path d="M55.0254 85.041C54.6973 85.1048 54.3555 85.1367 54 85.1367C52.569 85.1367 51.4046 84.6764 50.5068 83.7559C49.6136 82.8307 49.167 81.5251 49.167 79.8389C49.167 78.1527 49.6546 76.8333 50.6299 75.8809C51.5003 75.0332 52.6191 74.6094 53.9863 74.6094C55.3535 74.6094 56.4814 75.0286 57.3701 75.8672C58.3454 76.7923 58.833 78.1117 58.833 79.8252C58.833 81.5387 58.359 82.8672 57.4111 83.8105C57.1149 84.1113 56.7822 84.362 56.4131 84.5625C56.6273 85.4284 56.8688 85.9798 57.1377 86.2168C57.2471 86.3125 57.3747 86.3604 57.5205 86.3604C57.7939 86.3604 58.0036 86.2487 58.1494 86.0254C58.2952 85.8066 58.3682 85.5537 58.3682 85.2666H59.0381C59.0791 85.3942 59.0996 85.5332 59.0996 85.6836C59.0996 85.834 59.0791 85.9821 59.0381 86.1279C58.9469 86.4697 58.7624 86.7568 58.4844 86.9893C58.2109 87.2262 57.8669 87.3447 57.4521 87.3447C56.7412 87.3447 56.1898 87.1055 55.7979 86.627C55.5199 86.2897 55.2624 85.7611 55.0254 85.041ZM56.0439 83.3047C56.7184 82.5026 57.0557 81.3496 57.0557 79.8457C57.0557 78.3418 56.7663 77.2412 56.1875 76.5439C55.6087 75.8467 54.8796 75.498 54 75.498C53.1204 75.498 52.3913 75.8581 51.8125 76.5781C51.2337 77.2982 50.9443 78.3737 50.9443 79.8047C50.9443 81.4909 51.3294 82.7191 52.0996 83.4893C52.1725 83.0062 52.373 82.571 52.7012 82.1836C53.0293 81.7917 53.4577 81.5957 53.9863 81.5957C54.7474 81.5957 55.3285 81.9466 55.7295 82.6484C55.848 82.8535 55.9528 83.0723 56.0439 83.3047ZM52.8174 83.9883C53.4645 84.2982 54.1413 84.3415 54.8477 84.1182C54.6289 83.0654 54.262 82.5391 53.7471 82.5391C53.4645 82.5391 53.2435 82.6689 53.084 82.9287C52.9245 83.1839 52.8356 83.5371 52.8174 83.9883Z" fill="#C50000"/>
<path d="M31.0352 56.4043C30.7773 55.3965 30.3789 54.3594 29.8398 53.293C29.3125 52.2266 28.0176 50.3105 25.9551 47.5449L24.373 45.3828C23.4941 44.2109 22.8965 43.25 22.5801 42.5C22.2637 41.7383 22.1055 40.9707 22.1055 40.1973C22.1055 38.9434 22.5098 37.918 23.3184 37.1211C24.1387 36.3125 25.1406 35.9082 26.3242 35.9082C27.3438 35.9082 28.2695 36.2422 29.1016 36.9102C29.9453 37.5781 30.5898 38.6152 31.0352 40.0215C31.4336 38.627 32.0488 37.5898 32.8809 36.9102C33.7129 36.2188 34.6445 35.873 35.6758 35.873C36.8125 35.873 37.7969 36.2715 38.6289 37.0684C39.4727 37.8652 39.8945 38.8379 39.8945 39.9863C39.8945 40.9941 39.6367 42.0547 39.1211 43.168C38.6055 44.2812 37.6973 45.6406 36.3965 47.2461C34.7559 49.3438 33.5547 51.0195 32.793 52.2734C32.043 53.5156 31.457 54.8926 31.0352 56.4043Z" fill="#C50000"/>
<path d="M8.0127 23.146C7.9196 22.7821 7.77572 22.4076 7.58105 22.0225C7.39062 21.6374 6.92301 20.9455 6.17822 19.9468L5.60693 19.166C5.28955 18.7428 5.07373 18.3958 4.95947 18.125C4.84521 17.8499 4.78809 17.5728 4.78809 17.2935C4.78809 16.8407 4.93408 16.4704 5.22607 16.1826C5.5223 15.8906 5.88411 15.7446 6.31152 15.7446C6.67969 15.7446 7.014 15.8652 7.31445 16.1064C7.61914 16.3477 7.85189 16.7222 8.0127 17.23C8.15658 16.7264 8.37874 16.3519 8.6792 16.1064C8.97965 15.8568 9.31608 15.7319 9.68848 15.7319C10.099 15.7319 10.4544 15.8758 10.7549 16.1636C11.0596 16.4513 11.2119 16.8026 11.2119 17.2173C11.2119 17.5812 11.1188 17.9642 10.9326 18.3662C10.7464 18.7682 10.4185 19.2591 9.94873 19.8389C9.35628 20.5964 8.92253 21.2015 8.64746 21.6543C8.37663 22.1029 8.16504 22.6001 8.0127 23.146Z" fill="#C50000"/>
<path d="M55.0127 72.146C54.9196 71.7821 54.7757 71.4076 54.5811 71.0225C54.3906 70.6374 53.923 69.9455 53.1782 68.9468L52.6069 68.166C52.2896 67.7428 52.0737 67.3958 51.9595 67.125C51.8452 66.8499 51.7881 66.5728 51.7881 66.2935C51.7881 65.8407 51.9341 65.4704 52.2261 65.1826C52.5223 64.8906 52.8841 64.7446 53.3115 64.7446C53.6797 64.7446 54.014 64.8652 54.3145 65.1064C54.6191 65.3477 54.8519 65.7222 55.0127 66.23C55.1566 65.7264 55.3787 65.3519 55.6792 65.1064C55.9797 64.8568 56.3161 64.7319 56.6885 64.7319C57.099 64.7319 57.4544 64.8758 57.7549 65.1636C58.0596 65.4513 58.2119 65.8026 58.2119 66.2173C58.2119 66.5812 58.1188 66.9642 57.9326 67.3662C57.7464 67.7682 57.4185 68.2591 56.9487 68.8389C56.3563 69.5964 55.9225 70.2015 55.6475 70.6543C55.3766 71.1029 55.165 71.6001 55.0127 72.146Z" fill="#C50000"/>
<defs>
<linearGradient id="paint0_linear" x1="31" y1="0" x2="31" y2="88" gradientUnits="userSpaceOnUse">
<stop stop-color="white"/>
<stop offset="1" stop-color="#EEEEEE"/>
</linearGradient>
</defs>
</svg>
