<svg width="62" height="88" viewBox="0 0 62 88" fill="none" xmlns="http://www.w3.org/2000/svg">
<rect width="62" height="88" fill="url(#paint0_linear)"/>
<path d="M9.02539 13.041C8.69727 13.1048 8.35547 13.1367 8 13.1367C6.56901 13.1367 5.40462 12.6764 4.50684 11.7559C3.61361 10.8307 3.16699 9.52507 3.16699 7.83887C3.16699 6.15267 3.65462 4.83333 4.62988 3.88086C5.50033 3.0332 6.61914 2.60938 7.98633 2.60938C9.35352 2.60938 10.4814 3.02865 11.3701 3.86719C12.3454 4.79232 12.833 6.11165 12.833 7.8252C12.833 9.53874 12.359 10.8672 11.4111 11.8105C11.1149 12.1113 10.7822 12.362 10.4131 12.5625C10.6273 13.4284 10.8688 13.9798 11.1377 14.2168C11.2471 14.3125 11.3747 14.3604 11.5205 14.3604C11.7939 14.3604 12.0036 14.2487 12.1494 14.0254C12.2952 13.8066 12.3682 13.5537 12.3682 13.2666H13.0381C13.0791 13.3942 13.0996 13.5332 13.0996 13.6836C13.0996 13.834 13.0791 13.9821 13.0381 14.1279C12.9469 14.4697 12.7624 14.7568 12.4844 14.9893C12.2109 15.2262 11.8669 15.3447 11.4521 15.3447C10.7412 15.3447 10.1898 15.1055 9.79785 14.627C9.51986 14.2897 9.26237 13.7611 9.02539 13.041ZM10.0439 11.3047C10.7184 10.5026 11.0557 9.34961 11.0557 7.8457C11.0557 6.3418 10.7663 5.24121 10.1875 4.54395C9.60872 3.84668 8.87956 3.49805 8 3.49805C7.12044 3.49805 6.39128 3.85807 5.8125 4.57812C5.23372 5.29818 4.94434 6.3737 4.94434 7.80469C4.94434 9.49089 5.32943 10.7191 6.09961 11.4893C6.17253 11.0062 6.37305 10.571 6.70117 10.1836C7.0293 9.79167 7.45768 9.5957 7.98633 9.5957C8.7474 9.5957 9.32845 9.94661 9.72949 10.6484C9.84798 10.8535 9.9528 11.0723 10.0439 11.3047ZM6.81738 11.9883C7.46452 12.2982 8.14128 12.3415 8.84766 12.1182C8.62891 11.0654 8.26204 10.5391 7.74707 10.5391C7.46452 10.5391 7.24349 10.6689 7.08398 10.9287C6.92448 11.1839 6.83561 11.5371 6.81738 11.9883Z" fill="black"/>
<path d="M55.0254 85.041C54.6973 85.1048 54.3555 85.1367 54 85.1367C52.569 85.1367 51.4046 84.6764 50.5068 83.7559C49.6136 82.8307 49.167 81.5251 49.167 79.8389C49.167 78.1527 49.6546 76.8333 50.6299 75.8809C51.5003 75.0332 52.6191 74.6094 53.9863 74.6094C55.3535 74.6094 56.4814 75.0286 57.3701 75.8672C58.3454 76.7923 58.833 78.1117 58.833 79.8252C58.833 81.5387 58.359 82.8672 57.4111 83.8105C57.1149 84.1113 56.7822 84.362 56.4131 84.5625C56.6273 85.4284 56.8688 85.9798 57.1377 86.2168C57.2471 86.3125 57.3747 86.3604 57.5205 86.3604C57.7939 86.3604 58.0036 86.2487 58.1494 86.0254C58.2952 85.8066 58.3682 85.5537 58.3682 85.2666H59.0381C59.0791 85.3942 59.0996 85.5332 59.0996 85.6836C59.0996 85.834 59.0791 85.9821 59.0381 86.1279C58.9469 86.4697 58.7624 86.7568 58.4844 86.9893C58.2109 87.2262 57.8669 87.3447 57.4521 87.3447C56.7412 87.3447 56.1898 87.1055 55.7979 86.627C55.5199 86.2897 55.2624 85.7611 55.0254 85.041ZM56.0439 83.3047C56.7184 82.5026 57.0557 81.3496 57.0557 79.8457C57.0557 78.3418 56.7663 77.2412 56.1875 76.5439C55.6087 75.8467 54.8796 75.498 54 75.498C53.1204 75.498 52.3913 75.8581 51.8125 76.5781C51.2337 77.2982 50.9443 78.3737 50.9443 79.8047C50.9443 81.4909 51.3294 82.7191 52.0996 83.4893C52.1725 83.0062 52.373 82.571 52.7012 82.1836C53.0293 81.7917 53.4577 81.5957 53.9863 81.5957C54.7474 81.5957 55.3285 81.9466 55.7295 82.6484C55.848 82.8535 55.9528 83.0723 56.0439 83.3047ZM52.8174 83.9883C53.4645 84.2982 54.1413 84.3415 54.8477 84.1182C54.6289 83.0654 54.262 82.5391 53.7471 82.5391C53.4645 82.5391 53.2435 82.6689 53.084 82.9287C52.9245 83.1839 52.8356 83.5371 52.8174 83.9883Z" fill="black"/>
<path d="M31 34.3613C31.293 35.4863 31.7207 36.5469 32.2832 37.543C32.8457 38.5273 34.0117 39.834 35.7812 41.4629C37.4336 42.9395 38.4648 44.0645 38.875 44.8379C39.2852 45.6113 39.502 46.4141 39.5254 47.2461C39.5254 48.3711 39.1445 49.3086 38.3828 50.0586C37.6211 50.8086 36.7305 51.1836 35.7109 51.1836C33.8711 51.1836 32.3711 50.0645 31.2109 47.8262C31.2461 49.6895 31.4922 51.1074 31.9492 52.0801C32.418 53.0527 33.127 53.8145 34.0762 54.3652C35.0371 54.916 36.291 55.2441 37.8379 55.3496L37.9785 56H24.0566L24.1621 55.3496C25.6152 55.3496 26.8457 55.0684 27.8535 54.5059C28.8613 53.9316 29.6172 53.1406 30.1211 52.1328C30.6367 51.125 30.8945 49.7715 30.8945 48.0723V47.8262C29.8398 50.0645 28.3164 51.1836 26.3242 51.1836C25.2812 51.1836 24.3789 50.8086 23.6172 50.0586C22.8555 49.3086 22.4746 48.3945 22.4746 47.3164C22.4746 46.2734 22.7324 45.3535 23.248 44.5566C23.7754 43.7598 24.6191 42.8809 25.7793 41.9199C27.4082 40.5254 28.6094 39.2832 29.3828 38.1934C30.1562 37.1035 30.6953 35.8262 31 34.3613Z" fill="black"/>
<path d="M8 15.186C8.10579 15.5923 8.26025 15.9753 8.46338 16.335C8.6665 16.6904 9.08757 17.1623 9.72656 17.7505C10.3232 18.2837 10.6956 18.6899 10.8438 18.9692C10.9919 19.2485 11.0701 19.5384 11.0786 19.8389C11.0786 20.2451 10.9411 20.5837 10.666 20.8545C10.391 21.1253 10.0693 21.2607 9.70117 21.2607C9.03678 21.2607 8.49512 20.8566 8.07617 20.0483C8.08887 20.7212 8.17773 21.2332 8.34277 21.5845C8.51204 21.9357 8.76807 22.2108 9.11084 22.4097C9.45785 22.6086 9.91064 22.7271 10.4692 22.7651L10.52 23H5.49268L5.53076 22.7651C6.0555 22.7651 6.49984 22.6636 6.86377 22.4604C7.2277 22.2531 7.50065 21.9674 7.68262 21.6035C7.86882 21.2396 7.96191 20.7508 7.96191 20.1372V20.0483C7.58105 20.8566 7.03092 21.2607 6.31152 21.2607C5.9349 21.2607 5.60905 21.1253 5.33398 20.8545C5.05892 20.5837 4.92139 20.2536 4.92139 19.8643C4.92139 19.4876 5.01449 19.1554 5.20068 18.8677C5.39111 18.5799 5.6958 18.2625 6.11475 17.9155C6.70296 17.4119 7.13672 16.9634 7.41602 16.5698C7.69531 16.1763 7.88997 15.715 8 15.186Z" fill="black"/>
<path d="M55 64.186C55.1058 64.5923 55.2603 64.9753 55.4634 65.335C55.6665 65.6904 56.0876 66.1623 56.7266 66.7505C57.3232 67.2837 57.6956 67.6899 57.8438 67.9692C57.9919 68.2485 58.0701 68.5384 58.0786 68.8389C58.0786 69.2451 57.9411 69.5837 57.666 69.8545C57.391 70.1253 57.0693 70.2607 56.7012 70.2607C56.0368 70.2607 55.4951 69.8566 55.0762 69.0483C55.0889 69.7212 55.1777 70.2332 55.3428 70.5845C55.512 70.9357 55.7681 71.2108 56.1108 71.4097C56.4578 71.6086 56.9106 71.7271 57.4692 71.7651L57.52 72H52.4927L52.5308 71.7651C53.0555 71.7651 53.4998 71.6636 53.8638 71.4604C54.2277 71.2531 54.5007 70.9674 54.6826 70.6035C54.8688 70.2396 54.9619 69.7508 54.9619 69.1372V69.0483C54.5811 69.8566 54.0309 70.2607 53.3115 70.2607C52.9349 70.2607 52.609 70.1253 52.334 69.8545C52.0589 69.5837 51.9214 69.2536 51.9214 68.8643C51.9214 68.4876 52.0145 68.1554 52.2007 67.8677C52.3911 67.5799 52.6958 67.2625 53.1147 66.9155C53.703 66.4119 54.1367 65.9634 54.416 65.5698C54.6953 65.1763 54.89 64.715 55 64.186Z" fill="black"/>
<defs>
<linearGradient id="paint0_linear" x1="31" y1="0" x2="31" y2="88" gradientUnits="userSpaceOnUse">
<stop stop-color="white"/>
<stop offset="1" stop-color="#EEEEEE"/>
</linearGradient>
</defs>
</svg>
